<?xml version="1.0" encoding="UTF-8" standalone="no"?>
<!-- Created with Inkscape (http://www.inkscape.org/) -->

<svg
   width="1200"
   height="630"
   viewBox="0 0 317.5 166.6875"
   version="1.1"
   id="svg5"
   xml:space="preserve"
   inkscape:version="1.2.2 (732a01da63, 2022-12-09)"
   sodipodi:docname="cloudflare-haproxy.svg"
   inkscape:export-filename="..\Output\cloudflare-haproxy.png"
   inkscape:export-xdpi="96"
   inkscape:export-ydpi="96"
   xmlns:inkscape="http://www.inkscape.org/namespaces/inkscape"
   xmlns:sodipodi="http://sodipodi.sourceforge.net/DTD/sodipodi-0.dtd"
   xmlns:xlink="http://www.w3.org/1999/xlink"
   xmlns="http://www.w3.org/2000/svg"
   xmlns:svg="http://www.w3.org/2000/svg"><sodipodi:namedview
     id="namedview7"
     pagecolor="#ffffff"
     bordercolor="#000000"
     borderopacity="0.25"
     inkscape:showpageshadow="2"
     inkscape:pageopacity="0.0"
     inkscape:pagecheckerboard="0"
     inkscape:deskcolor="#d1d1d1"
     inkscape:document-units="mm"
     showgrid="false"
     inkscape:zoom="0.457453"
     inkscape:cx="545.41122"
     inkscape:cy="-191.27648"
     inkscape:window-width="1350"
     inkscape:window-height="1230"
     inkscape:window-x="4403"
     inkscape:window-y="129"
     inkscape:window-maximized="0"
     inkscape:current-layer="layer1" /><defs
     id="defs2"><style
       id="style458">.cls-1{fill:none;}.cls-2{fill:#4d4d4d;}.cls-3{clip-path:url(#clip-path);}.cls-4{fill:url(#linear-gradient);}.cls-5{fill:#e1e1e1;}.cls-6{fill:#585858;}.cls-7{fill:#696969;}.cls-8{fill:#5e5e5e;}.cls-9{fill:#6d6d6d;}.cls-10{fill:#636363;}.cls-11{fill:#737373;}.cls-12{fill:#757575;}.cls-13{fill:#646464;}.cls-14{fill:#6c6c6c;}.cls-15{fill:#606060;}.cls-16{fill:#707070;}.cls-17{fill:#767676;}.cls-18{fill:#797979;}.cls-19{fill:#7f7f7f;}.cls-20{fill:#868686;}.cls-21{fill:#8a8a8a;}.cls-22{fill:#7d7d7d;}.cls-23{fill:#919191;}.cls-24{fill:#858585;}.cls-25{fill:#929292;}.cls-26{fill:#898989;}.cls-27{fill:#8f8f8f;}.cls-28{fill:#999;}.cls-29{fill:#979797;}.cls-30{fill:#9f9f9f;}.cls-31{fill:#a6a6a6;}.cls-32{fill:#a0a0a0;}.cls-33{fill:#9b9b9b;}.cls-34{fill:#9d9d9d;}.cls-35{fill:#a3a3a3;}.cls-36{fill:#aaa;}.cls-37{fill:#a9a9a9;}.cls-38{fill:#989898;}.cls-39{fill:#b1b1b1;}.cls-40{fill:#9e9e9e;}.cls-41{fill:#a4a4a4;}.cls-42{fill:#aeaeae;}.cls-43{fill:#ababab;}.cls-44{fill:#b4b4b4;}.cls-45{fill:#a2a2a2;}.cls-46{fill:#bcbcbc;}.cls-47{fill:#b8b8b8;}.cls-48{fill:#b0b0b0;}.cls-49{fill:#b9b9b9;}.cls-50{fill:#bfbfbf;}.cls-51{fill:#b5b5b5;}.cls-52{fill:#bdbdbd;}.cls-53{fill:#b6b6b6;}.cls-54{fill:#c3c3c3;}.cls-55{fill:#c9c9c9;}.cls-56{fill:#bbb;}.cls-57{fill:#c1c1c1;}.cls-58{fill:#c6c6c6;}.cls-59{fill:#cdcdcd;}.cls-60{fill:#ccc;}.cls-61{fill:#c2c2c2;}.cls-62{fill:#c8c8c8;}.cls-63{fill:#c7c7c7;}.cls-64{fill:#cecece;}.cls-65{fill:#d3d3d3;}.cls-66{fill:#d5d5d5;}.cls-67{fill:#d0d0d0;}.cls-68{fill:#d9d9d9;}.cls-69{fill:#d4d4d4;}.cls-70{fill:#d8d8d8;}.cls-71{fill:#e2e2e2;}.cls-72{fill:#e4e4e4;}.cls-73{fill:#dedede;}.cls-74{fill:#c5c5c5;}.cls-75{fill:#d1d1d1;}.cls-76{fill:#cbcbcb;}.cls-77{fill:#d7d7d7;}.cls-78{fill:#ddd;}.cls-79{fill:#e3e3e3;}.cls-80{fill:#00b8e3;}.cls-81{fill:#33c6e9;}.cls-82{fill:#008aaa;}</style><clipPath
       id="clip-path"><path
         class="cls-1"
         d="M580.49,328.6H567a0.58,0.58,0,0,1-.46-0.23l-1.05-1.43-2.88-3.87-7.86-10.58-4.39-5.92a0.56,0.56,0,0,0-.86,0l-4.6,5.12-0.52.59a0.55,0.55,0,0,0-.14.37V328a0.57,0.57,0,0,1-.56.56H532a0.56,0.56,0,0,1-.56-0.56V272a0.56,0.56,0,0,1,.56-0.56h11.63a0.56,0.56,0,0,1,.56.56v21.47a0.56,0.56,0,0,0,1,.38l6.42-7,9.55-10.39,4.48-4.87a0.56,0.56,0,0,1,.41-0.18h14.28a0.56,0.56,0,0,1,.56.58,0.63,0.63,0,0,1-.14.35l-6.43,7.15-10.7,11.9-4.46,5a0.55,0.55,0,0,0,0,.69l5.56,7.77,5.06,7.13,0.62,0.87,3.83,5.36,4,5.62,2.79,3.9A0.57,0.57,0,0,1,580.49,328.6ZM527,327.81a0.57,0.57,0,0,1-.51.79H514.11a0.55,0.55,0,0,1-.51-0.34l-0.25-.55h0l-4.78-11.11a0.55,0.55,0,0,0-.51-0.34H484.84a0.57,0.57,0,0,0-.52.34l-0.71,1.65-4.31,10v0a0.56,0.56,0,0,1-.5.32H466.43a0.56,0.56,0,0,1-.51-0.79l0.86-2,5.83-13.49h0l0.21-.48,0.25-.56,0.11-.28,1.94-4.5v0l0,0h0l15-34.67a0.57,0.57,0,0,1,.51-0.34h11.61a0.55,0.55,0,0,1,.51.34l7.79,18,3.85,8.91,4.31,10,8.15,18.87Zm-23.71-23.55-0.82-1.91-2.74-6.4L497,289.63a0.57,0.57,0,0,0-1,0l-4.86,11.21-1.48,3.42a0.56,0.56,0,0,0,.51.78h12.61A0.56,0.56,0,0,0,503.26,304.26Zm-36.64,6.44a24.47,24.47,0,0,1-1.14,2.55,28.69,28.69,0,0,1-5.52,7.42l0,0a30.51,30.51,0,0,1-3.13,2.68,29,29,0,0,1-16.14,5.72c-0.68,0-1.38.07-2.08,0.07a29.86,29.86,0,0,1-16.72-4.73,30.35,30.35,0,0,1-4.62-3.74c-0.57-.56-1.12-1.13-1.63-1.72a28.24,28.24,0,0,1-7-19.33,32.44,32.44,0,0,1,.37-5h0l-0.26-.38,0.42-.63a27.71,27.71,0,0,1,8.14-15.07,30.43,30.43,0,0,1,4.31-3.52,28.1,28.1,0,0,1,10.22-4.28h0a32.86,32.86,0,0,1,6.8-.67,29.36,29.36,0,0,1,21.35,8.47,28,28,0,0,1,8.53,17.89v0c0.1,1,.14,2.08.14,3.16A30.07,30.07,0,0,1,466.63,310.7Zm-11-11a18.72,18.72,0,0,0-4.4-12.46,7.21,7.21,0,0,0-.5-0.59,15.67,15.67,0,0,0-12.06-5.39,17.27,17.27,0,0,0-3.69.39,15.75,15.75,0,0,0-8.37,5,18.58,18.58,0,0,0-4.9,12.6c0,0.15,0,.29,0,0.45a18.54,18.54,0,0,0,4.91,13,16.28,16.28,0,0,0,1.48,1.44,15.69,15.69,0,0,0,3.22,2.21,16.71,16.71,0,0,0,14.94-.12,16.26,16.26,0,0,0,4-3c0.17-.17.34-0.34,0.5-0.52a18.55,18.55,0,0,0,2.77-3.92A19.13,19.13,0,0,0,455.6,299.69Zm-47.7,17.53H384.65a0.55,0.55,0,0,1-.56-0.55V272a0.55,0.55,0,0,0-.32-0.5,0.49,0.49,0,0,0-.24-0.06H371.9a0.56,0.56,0,0,0-.56.56v56a0.56,0.56,0,0,0,.56.56h36a0.56,0.56,0,0,0,.56-0.56V317.78A0.56,0.56,0,0,0,407.9,317.22Zm-63.24-47c-0.92-.08-1.85-0.11-2.8-0.11a29.36,29.36,0,0,0-21.31,8.51,30.65,30.65,0,0,0-2.88,3.25h0a28.57,28.57,0,0,0-5.83,18,30.78,30.78,0,0,0,1.86,10.9,26.61,26.61,0,0,0,2.87,5.6h0a28.23,28.23,0,0,0,3.79,4.53,28.92,28.92,0,0,0,5.7,4.34h0c0.51,0.29,1,.58,1.57.85q0.57,0.29,1.17.54h0a32.63,32.63,0,0,0,13.27,2.59,29.57,29.57,0,0,0,4.24-.3h0c0.88-.12,1.76-0.29,2.62-0.5a29.64,29.64,0,0,0,13.31-7.35c0.81-.74,1.61-1.55,2.39-2.4a0.57,0.57,0,0,0,0-.78l-7.38-7.59a0.54,0.54,0,0,0-.49-0.16,0.61,0.61,0,0,0-.33.2,18.73,18.73,0,0,1-15,7,16.65,16.65,0,0,1-5.78-1,16.21,16.21,0,0,1-5.91-3.85,15.61,15.61,0,0,1-3.74-5.94,20.28,20.28,0,0,1-1.09-6.85q0-7.43,4.44-12c0.22-.22.44-0.44,0.67-0.66a17.52,17.52,0,0,1,12.31-4.7,18.45,18.45,0,0,1,14.64,7,0.55,0.55,0,0,0,.84,0l7.18-8.14a0.58,0.58,0,0,0,0-.76A30,30,0,0,0,344.66,270.24Zm-32.26,5.82,2.17-3.78a0.56,0.56,0,0,0-.48-0.84H301.55a0.57,0.57,0,0,0-.48.28l-11.36,19.55h0l-0.61.45-0.46.35a0.58,0.58,0,0,1-.24-0.22l-0.19-.32-0.29-.48L276.7,271.71a0.57,0.57,0,0,0-.48-0.28H263.68a0.56,0.56,0,0,0-.48.84l5.44,9.5L278.47,299l4,6.93a0.57,0.57,0,0,1,.08.28V328a0.56,0.56,0,0,0,.56.56H294.7a0.56,0.56,0,0,0,.56-0.56V306.17a0.57,0.57,0,0,1,.08-0.28l2.8-4.9,10.64-18.61,2.18-3.79,1.44-2.53h0Zm-53.69,41.26H230.48a0.56,0.56,0,0,1-.56-0.56V306a0.57,0.57,0,0,1,.56-0.56H255a0.56,0.56,0,0,0,.56-0.56v-9.75a0.56,0.56,0,0,0-.56-0.56H230.48a0.56,0.56,0,0,1-.56-0.56V283.36a0.56,0.56,0,0,1,.56-0.56h27.34a0.56,0.56,0,0,0,.56-0.56V272a0.56,0.56,0,0,0-.56-0.56h-40.1a0.56,0.56,0,0,0-.56.56v56a0.56,0.56,0,0,0,.56.56h41a0.56,0.56,0,0,0,.56-0.56V317.87A0.56,0.56,0,0,0,258.72,317.31ZM210.59,327q-2.18-3-5.3-7.43-2.44-3.41-5.43-7.62l-0.2-.29q-7.44-10.46-10.43-14.62a0.56,0.56,0,0,1,0-.69l5.09-5.65h0l4.19-4.66,4-4.48,8.28-9.2a0.56,0.56,0,0,0-.42-0.93H196.18a0.57,0.57,0,0,0-.42.18l-8.85,9.61-11.6,12.62a0.56,0.56,0,0,1-1-.38V272a0.55,0.55,0,0,0-.56-0.55H162.15a0.56,0.56,0,0,0-.56.56v56a0.56,0.56,0,0,0,.56.56h11.63a0.56,0.56,0,0,0,.56-0.56V312.61a0.55,0.55,0,0,1,.14-0.37l2.42-2.71,2.7-3a0.56,0.56,0,0,1,.86,0l8.07,10.85,5.8,7.8,2.33,3.14a0.55,0.55,0,0,0,.45.23h13.51a0.57,0.57,0,0,0,.46-0.89Zm-55.66-55.65h-119a1.08,1.08,0,0,0-.91.51s0,0,0,0l-0.59,1-7.28,12.62-8,13.94a1,1,0,0,0,0,1.05l1.75,3L35,328.11a1.06,1.06,0,0,0,.92.53h119a1.18,1.18,0,0,0,1.17-1.18v-54.9A1.19,1.19,0,0,0,154.93,271.37Z"
         id="path460" /></clipPath><linearGradient
       id="linear-gradient"
       x1="17.66"
       y1="300.84"
       x2="584.47"
       y2="300.84"
       gradientUnits="userSpaceOnUse"><stop
         offset="0"
         stop-color="#e6e6e6"
         id="stop463" /><stop
         offset="1"
         stop-color="#595959"
         id="stop465" /></linearGradient><path
       id="B"
       d="M11.2 9.013l.013-1.88 1.916.013-.013 1.88z" /><style
       id="style992">.cls-1{fill:#f78100;}.cls-2{fill:#fcad32;}</style><style
       id="style1049">.cls-1{fill:#f4801f;}.cls-2{fill:#f9ab41;}</style></defs><g
     inkscape:label="Layer 1"
     inkscape:groupmode="layer"
     id="layer1"><g
       id="g1063"
       transform="matrix(1.0541931,0,0,1.0541931,43.010147,33.405772)"><path
         class="cls-1"
         d="m 143.05,93.42 1.07,-3.71 c 1.27,-4.41 0.8,-8.48 -1.34,-11.48 -2,-2.76 -5.26,-4.38 -9.25,-4.57 L 58,72.7 a 1.47,1.47 0 0 1 -1.35,-2 2,2 0 0 1 1.75,-1.34 l 76.26,-1 c 9,-0.41 18.84,-7.75 22.27,-16.71 l 4.34,-11.36 a 2.68,2.68 0 0 0 0.18,-1 3.31,3.31 0 0 0 -0.06,-0.54 49.67,49.67 0 0 0 -95.49,-5.14 22.35,22.35 0 0 0 -35,23.42 31.73,31.73 0 0 0 -30.56,36.42 1.47,1.47 0 0 0 1.45,1.27 h 139.49 v 0 a 1.83,1.83 0 0 0 1.77,-1.3 z"
         id="path1053" /><path
         class="cls-2"
         d="m 168.22,41.15 q -1,0 -2.1,0.06 a 0.88,0.88 0 0 0 -0.32,0.07 1.17,1.17 0 0 0 -0.76,0.8 l -3,10.26 c -1.28,4.41 -0.81,8.48 1.34,11.48 a 11.65,11.65 0 0 0 9.24,4.57 l 16.11,1 a 1.44,1.44 0 0 1 1.14,0.62 1.5,1.5 0 0 1 0.17,1.37 2,2 0 0 1 -1.75,1.34 l -16.73,1 c -9.09,0.42 -18.88,7.75 -22.31,16.7 l -1.21,3.16 a 0.9,0.9 0 0 0 0.79,1.22 h 57.63 A 1.55,1.55 0 0 0 208,93.63 41.34,41.34 0 0 0 168.24,41.15 Z"
         id="path1055" /></g><g
       id="g905"
       transform="matrix(1.5625,0,0,1.5625,174.82083,33.34375)"><g
         fill="none"
         class="H"
         id="g747"><g
           stroke="#284a6a"
           id="g707"><path
             d="m 31.973,23.69 -6.65,-7.518"
             stroke-width="0.26"
             id="path671" /><path
             d="m 11,17.908 5.205,7.6"
             stroke-width="0.13"
             id="path673" /><g
             stroke-width="0.26"
             id="g683"><path
               d="m 31.973,23.7 6.578,-7.6 m 1.374,15.987 7.807,-6.578 m -7.807,6.568 7.807,6.867 m -9.108,8.676 -6.65,-7.373 m -6.65,7.373 6.65,-7.373 m -15.76,-1.592 7.518,-6.578 m -7.517,-6.58 7.518,6.578 m 8.24,-8.386 -15.76,1.807 m 15.76,-1.806 15.76,1.807"
               id="path675" /><path
               d="M 39.925,32.077 38.55,16.1 m 1.375,15.977 -1.3,15.542"
               id="path677" /><path
               d="m 47.732,38.944 -15.76,1.3 m -15.758,-1.59 15.76,1.6"
               id="path679" /><path
               d="m 25.323,47.62 -1.6,-15.542 m 1.6,-15.905 -1.6,15.903"
               id="path681" /></g><g
             stroke-width="0.13"
             id="g705"><path
               d="m 8.985,27.522 7.23,-2.024 m 1.517,-14.746 7.6,5.422 m 1.726,-8.82 -1.735,8.82 M 27.058,7.354 38.55,16.1"
               id="path685" /><path
               d="M 36.816,7.354 38.55,16.1 m 7.592,-5.348 -7.6,5.35 M 52.937,17.908 38.55,16.1 m 9.182,9.398 5.205,-7.6 m -5.205,7.6 7.373,2.024"
               id="path687" /><path
               d="m 47.732,25.498 7.23,10.988 M 36.816,7.354 25.322,16.174"
               id="path689" /><path
               d="m 47.732,25.498 -1.6,-14.747 m 1.6,28.193 7.23,-2.458"
               id="path691" /><path
               d="m 47.732,38.944 7.373,-11.422 m -7.373,11.422 5.205,7.012 m -5.205,-7.012 -1.6,14.168 m -7.508,-5.492 7.518,5.494"
               id="path693" /><path
               d="M 38.624,47.62 52.937,45.957 M 38.624,47.62 36.9,56.5 m 1.724,-8.88 -11.566,8.88 m -1.735,-8.88 1.735,8.9"
               id="path695" /><path
               d="M 25.323,47.62 36.9,56.5 m -11.567,-8.88 -7.6,5.494 M 25.333,47.62 11,46.028 M 16.214,38.655 11,46.028"
               id="path697" /><path
               d="m 16.214,38.655 1.518,14.458 m -1.518,-14.458 -7.3,-2.24 m 7.3,-10.917 -7.3,10.916"
               id="path699" /><path
               d="M 16.214,38.655 8.984,27.523 M 17.732,10.753 16.214,25.5"
               id="path701" /><path
               d="M 11,17.908 25.313,16.173"
               id="path703" /></g></g><g
           stroke="#24405d"
           stroke-width="0.101"
           id="g745"><path
             d="M 17.732,10.752 12.166,8.15 M 17.732,10.752 17.3,4.68 M 27.058,7.354 17.3,4.68"
             id="path709" /><path
             d="M 27.058,7.354 22.865,2.222 M 27.058,7.354 28.792,1.2 m -11.06,9.552 5.132,-8.53 M 36.816,7.354 28.792,1.2"
             id="path711" /><path
             d="M 36.816,7.354 35,0.993 M 27.048,7.353 35,0.993 m 1.816,6.36 4.193,-5.132 m 5.133,8.53 L 41,2.222"
             id="path713" /><path
             d="M 46.142,10.752 46.648,4.68 m -9.832,2.674 9.83,-2.675 m -0.504,6.073 5.7,-2.892 m -5.7,2.892 9.903,1.518"
             id="path715" /><path
             d="M 52.937,17.908 56.045,12.27 M 52.937,17.908 51.852,7.86 m 1.085,10.048 6.506,-0.506 m -6.506,0.506 8.9,5.06"
             id="path717" /><path
             d="m 55.105,27.522 4.337,-10.12 m -4.337,10.12 6.723,-4.554 m -6.723,4.554 7.518,1.518 m -7.663,7.446 7.663,-7.446"
             id="path719" /><path
             d="m 54.96,36.486 7.88,-1.446 m -7.735,-7.518 7.735,7.518 m -7.88,1.446 6.723,4.482 m -8.746,4.988 8.747,-4.988"
             id="path721" /><path
             d="m 52.937,45.956 6.434,0.65 m -4.4,-10.12 4.4,10.12 m -6.424,-0.65 3.036,5.7 m -3.036,-5.7 -1.157,9.976"
             id="path723" /><path
             d="m 51.78,55.932 -5.638,-2.82 m 0,0 0.434,6.3 m -0.434,-6.3 9.83,-1.446 M 46.142,53.112 41,61.787"
             id="path725" /><path
             d="M 36.9,56.5 41,61.777 M 36.9,56.5 46.587,59.392 M 36.9,56.5 35,63.006 m 1.9,-6.506 -8.096,6.506"
             id="path727" /><path
             d="m 27.058,56.5 1.735,6.506 M 27.058,56.5 35,63.006 m -7.942,-6.506 -4.12,5.277 m -5.206,-8.665 5.205,8.675"
             id="path729" /><path
             d="m 27.058,56.5 -9.83,3.036 m 0.504,-6.424 -0.506,6.434 m 0.506,-6.434 -5.638,3.108 M 11,46.028 12.084,56.221"
             id="path731" /><path
             d="M 17.732,53.112 7.83,51.74 m 3.17,-5.712 -3.18,5.7 m 3.18,-5.7 -6.506,0.65 M 11,46.028 2.046,41.04 M 8.913,36.414 2.046,41.04 M 8.913,36.414 1.106,35.04"
             id="path733" /><path
             d="m 8.913,36.414 -4.4,10.265 M 8.985,27.522 1.105,35.04"
             id="path735" /><path
             d="M 8.913,36.414 1.106,29.04 M 8.986,27.522 2.263,23.04"
             id="path737" /><path
             d="M 8.985,27.522 1.105,29.04 M 8.985,27.522 4.503,17.402"
             id="path739" /><path
             d="M 11,17.908 4.494,17.402 M 11,17.908 2.263,23.04 M 11,17.908 7.9,12.56 m 3.1,5.348 1.157,-9.76"
             id="path741" /><path
             d="M 17.732,10.752 7.9,12.56"
             id="path743" /></g></g><path
         d="m 19.862,35.835 0.053,-7.6 7.605,0.053 -0.053,7.6 z m 8.228,-8.372 0.053,-7.6 7.605,0.053 -0.053,7.6 z m -0.002,16.67 0.053,-7.6 7.605,0.053 -0.053,7.6 z m 8.3,-8.37 0.053,-7.6 7.605,0.053 -0.053,7.6 z"
         fill="#256ea5"
         id="path749" /><path
         d="m 35.95,18.744 0.037,-5.277 5.3,0.037 -0.037,5.277 z m -13.25,-0.001 0.037,-5.277 5.3,0.037 L 28,18.78 Z m -9.172,9.4 0.037,-5.277 5.3,0.037 -0.037,5.277 z m -0.006,13.257 0.055,-5.277 5.298,0.055 -0.055,5.277 z m 31.598,-0.1 0.037,-5.277 5.3,0.037 -0.037,5.277 z m 0.107,-13.12 0.055,-5.277 5.298,0.055 -0.055,5.277 z"
         fill="#3378bc"
         id="path751" /><path
         d="m 9.233,19.63 0.024,-3.47 3.463,0.024 -0.024,3.47 z m 6.77,-7.062 0.024,-3.47 3.463,0.024 -0.024,3.47 z m 9.32,-3.493 0.024,-3.47 3.463,0.024 -0.024,3.47 z M 7.194,29.24 l 0.024,-3.47 3.44,0.024 -0.024,3.47 z m 43.993,-13.032 3.47,-0.024 0.024,3.463 -3.47,0.024 z m -6.773,-7.18 3.47,-0.024 0.024,3.463 -3.47,0.024 z m -9.35,-3.406 3.47,-0.024 0.024,3.463 -3.47,0.024 z m 18.14,20.186 3.47,-0.024 0.024,3.463 -3.47,0.024 z"
         fill="#169bd6"
         id="path753" /><path
         d="m 22.627,50.4 0.037,-5.277 5.3,0.037 -0.037,5.277 z m 13.25,0 0.037,-5.277 5.3,0.037 -0.037,5.277 z"
         fill="#3378bc"
         id="path755" /><path
         d="m 51.164,47.73 0.024,-3.47 3.463,0.024 -0.024,3.47 z m -6.698,7.134 0.024,-3.47 3.463,0.024 -0.024,3.47 z m -9.32,3.42 0.024,-3.47 3.463,0.024 -0.024,3.47 z m 18.056,-20.164 0.024,-3.47 3.463,0.024 -0.024,3.47 z m -43.962,6.14 3.47,-0.024 0.024,3.463 -3.47,0.024 z m 6.772,7.108 3.47,-0.024 0.024,3.463 -3.47,0.024 z m 9.276,3.405 3.47,-0.024 0.024,3.463 -3.47,0.024 z M 7.22,34.66 l 3.47,-0.024 0.024,3.463 -3.47,0.024 z"
         fill="#169bd6"
         id="path757" /><g
         fill="#00a8da"
         id="g819"><use
           xlink:href="#B"
           x="47.243999"
           y="9.3190002"
           id="use759" /><use
           xlink:href="#B"
           x="49.717999"
           y="14.997"
           id="use761" /><use
           xlink:href="#B"
           x="43.896"
           y="4.2950001"
           id="use763" /><use
           xlink:href="#B"
           id="use765" /><use
           xlink:href="#B"
           x="-10.993"
           y="20.964001"
           id="use767" /><use
           xlink:href="#B"
           x="39.674"
           y="0.001"
           id="use769" /><use
           xlink:href="#B"
           x="-9.8999996"
           y="14.995"
           id="use771" /><use
           xlink:href="#B"
           x="10.772"
           y="-5.823"
           id="use773" /><use
           xlink:href="#B"
           x="-7.572"
           y="9.3170004"
           id="use775" /><use
           xlink:href="#B"
           x="-4.1500001"
           y="4.223"
           id="use777" /><path
           d="m 16.33,3.73 1.88,-0.013 0.013,1.916 -1.88,0.013 z m 11.612,-3.696 1.88,-0.013 0.013,1.916 -1.88,0.013 z"
           id="path779" /><use
           xlink:href="#B"
           x="34.577"
           y="-3.348"
           id="use781" /><use
           xlink:href="#B"
           x="50.666"
           y="20.893"
           id="use783" /><path
           d="M 34.057,1.88 34.07,0 l 1.916,0.013 -0.013,1.88 z"
           id="path785" /><use
           xlink:href="#B"
           x="28.827"
           y="-5.8959999"
           id="use787" /><use
           xlink:href="#B"
           x="39.672001"
           y="47.900002"
           id="use789" /><use
           xlink:href="#B"
           x="50.666"
           y="26.934999"
           id="use791" /><use
           xlink:href="#B"
           x="-0.0020000001"
           y="47.898998"
           id="use793" /><use
           xlink:href="#B"
           x="49.717999"
           y="32.987"
           id="use795" /><use
           xlink:href="#B"
           x="28.825001"
           y="53.797001"
           id="use797" /><use
           xlink:href="#B"
           x="47.243"
           y="38.654999"
           id="use799" /><use
           xlink:href="#B"
           x="43.895"
           y="43.750999"
           id="use801" /><path
           d="m 45.7,58.534 1.88,-0.013 0.013,1.916 -1.88,0.013 z m -11.542,3.55 1.88,-0.013 0.013,1.916 -1.88,0.013 z"
           id="path803" /><use
           xlink:href="#B"
           x="5.1669998"
           y="51.466999"
           id="use805" /><use
           xlink:href="#B"
           x="-7.645"
           y="38.581001"
           id="use807" /><use
           xlink:href="#B"
           x="-9.9020004"
           y="32.977001"
           id="use809" /><use
           xlink:href="#B"
           x="-4.2249999"
           y="43.749001"
           id="use811" /><use
           xlink:href="#B"
           x="-10.993"
           y="26.934"
           id="use813" /><use
           xlink:href="#B"
           x="16.813999"
           y="54.960999"
           id="use815" /><use
           xlink:href="#B"
           x="10.7"
           y="53.723"
           id="use817" /></g></g></g><style
     type="text/css"
     id="style1072">
	.st0{fill:#17541F;stroke:#000000;stroke-miterlimit:10;}
</style><style
     id="style669"><![CDATA[.H{stroke-miterlimit:10}]]></style></svg>
