<?xml version="1.0" encoding="UTF-8" standalone="no"?>
<!-- Created with Inkscape (http://www.inkscape.org/) -->

<svg
   width="1200"
   height="630"
   viewBox="0 0 317.5 166.6875"
   version="1.1"
   id="svg5"
   xml:space="preserve"
   inkscape:version="1.2.2 (732a01da63, 2022-12-09)"
   sodipodi:docname="cx-expressroute.svg"
   inkscape:export-filename="..\Output\cx-expressroute.png"
   inkscape:export-xdpi="96"
   inkscape:export-ydpi="96"
   xmlns:inkscape="http://www.inkscape.org/namespaces/inkscape"
   xmlns:sodipodi="http://sodipodi.sourceforge.net/DTD/sodipodi-0.dtd"
   xmlns="http://www.w3.org/2000/svg"
   xmlns:svg="http://www.w3.org/2000/svg"><sodipodi:namedview
     id="namedview7"
     pagecolor="#ffffff"
     bordercolor="#000000"
     borderopacity="0.25"
     inkscape:showpageshadow="2"
     inkscape:pageopacity="0.0"
     inkscape:pagecheckerboard="0"
     inkscape:deskcolor="#d1d1d1"
     inkscape:document-units="mm"
     showgrid="false"
     inkscape:zoom="0.914906"
     inkscape:cx="315.87945"
     inkscape:cy="349.2162"
     inkscape:window-width="2241"
     inkscape:window-height="1350"
     inkscape:window-x="3524"
     inkscape:window-y="76"
     inkscape:window-maximized="0"
     inkscape:current-layer="layer1" /><defs
     id="defs2"><path
       id="B"
       d="m 11.2,9.013 0.013,-1.88 1.916,0.013 -0.013,1.88 z" /><style
       id="style733">.cls-1{fill:#c2c4c5;}.cls-2{fill:#008775;}.cls-3{fill:#fff;}.cls-4{fill:#c1c3c6;}</style><linearGradient
       id="bb37dfaa-4390-42b5-a627-52fd73968e3c"
       x1="5.33"
       y1="2.81"
       x2="8.74"
       y2="6.22"
       gradientTransform="rotate(-0.08,-980.17506,-1454.5652)"
       gradientUnits="userSpaceOnUse"><stop
         offset="0"
         stop-color="#86d633"
         id="stop960" /><stop
         offset="1"
         stop-color="#5e9624"
         id="stop962" /></linearGradient><linearGradient
       id="b0a858c9-0e98-4e4e-9ead-d7a0786c484b"
       x1="11.84"
       y1="14.54"
       x2="15.24"
       y2="17.95"
       gradientUnits="userSpaceOnUse"><stop
         offset="0"
         stop-color="#86d633"
         id="stop965" /><stop
         offset="1"
         stop-color="#5e9624"
         id="stop967" /></linearGradient><linearGradient
       id="eee8ab19-1451-41df-b871-13f8a49d17d6"
       x1="-1.34"
       y1="14.53"
       x2="2.06"
       y2="17.93"
       gradientUnits="userSpaceOnUse"><stop
         offset="0"
         stop-color="#86d633"
         id="stop970" /><stop
         offset="1"
         stop-color="#5e9624"
         id="stop972" /></linearGradient><linearGradient
       id="e399c19f-b68f-429d-b176-18c2117ff73c"
       x1="-1032.172"
       x2="-1059.213"
       y1="145.312"
       y2="65.426"
       gradientTransform="matrix(1,0,0,-1,1075,158)"
       gradientUnits="userSpaceOnUse"><stop
         offset="0"
         stop-color="#114a8b"
         id="stop1011" /><stop
         offset="1"
         stop-color="#0669bc"
         id="stop1013" /></linearGradient><linearGradient
       id="ac2a6fc2-ca48-4327-9a3c-d4dcc3256e15"
       x1="-1023.725"
       x2="-1029.98"
       y1="108.083"
       y2="105.968"
       gradientTransform="matrix(1,0,0,-1,1075,158)"
       gradientUnits="userSpaceOnUse"><stop
         offset="0"
         stop-opacity=".3"
         id="stop1016" /><stop
         offset=".071"
         stop-opacity=".2"
         id="stop1018" /><stop
         offset=".321"
         stop-opacity=".1"
         id="stop1020" /><stop
         offset=".623"
         stop-opacity=".05"
         id="stop1022" /><stop
         offset="1"
         stop-opacity="0"
         id="stop1024" /></linearGradient><linearGradient
       id="a7fee970-a784-4bb1-af8d-63d18e5f7db9"
       x1="-1027.165"
       x2="-997.482"
       y1="147.642"
       y2="68.561"
       gradientTransform="matrix(1,0,0,-1,1075,158)"
       gradientUnits="userSpaceOnUse"><stop
         offset="0"
         stop-color="#3ccbf4"
         id="stop1027" /><stop
         offset="1"
         stop-color="#2892df"
         id="stop1029" /></linearGradient></defs><g
     inkscape:label="Layer 1"
     inkscape:groupmode="layer"
     id="layer1"><g
       id="g1062"
       transform="matrix(1.2060835,0,0,1.2060835,155.33023,25.452344)"><path
         fill="url(#e399c19f-b68f-429d-b176-18c2117ff73c)"
         d="m 33.338,6.544 h 26.038 l -27.03,80.087 a 4.152,4.152 0 0 1 -3.933,2.824 H 8.149 A 4.145,4.145 0 0 1 4.221,83.985 L 29.404,9.368 a 4.152,4.152 0 0 1 3.934,-2.825 z"
         id="path1034"
         style="fill:url(#e399c19f-b68f-429d-b176-18c2117ff73c)" /><path
         fill="#0078d4"
         d="M 71.175,60.261 H 29.885 A 1.911,1.911 0 0 0 28.58,63.57 l 26.532,24.764 a 4.171,4.171 0 0 0 2.846,1.121 h 23.38 z"
         id="path1036" /><path
         fill="url(#ac2a6fc2-ca48-4327-9a3c-d4dcc3256e15)"
         d="M 33.338,6.544 A 4.118,4.118 0 0 0 29.395,9.423 L 4.252,83.917 a 4.14,4.14 0 0 0 3.908,5.538 h 20.787 a 4.443,4.443 0 0 0 3.41,-2.9 l 5.014,-14.777 17.91,16.705 a 4.237,4.237 0 0 0 2.666,0.972 H 81.24 L 71.024,60.261 41.243,60.268 59.47,6.544 Z"
         id="path1038"
         style="fill:url(#ac2a6fc2-ca48-4327-9a3c-d4dcc3256e15)" /><path
         fill="url(#a7fee970-a784-4bb1-af8d-63d18e5f7db9)"
         d="M 66.595,9.364 A 4.145,4.145 0 0 0 62.667,6.544 H 33.648 a 4.146,4.146 0 0 1 3.928,2.82 l 25.184,74.62 a 4.146,4.146 0 0 1 -3.928,5.472 h 29.02 a 4.146,4.146 0 0 0 3.927,-5.472 z"
         id="path1040"
         style="fill:url(#a7fee970-a784-4bb1-af8d-63d18e5f7db9)" /></g><path
       fill="#ff8300"
       fill-rule="evenodd"
       d="m 102.60289,111.12153 c -15.625002,0 -28.472226,-12.499995 -28.472226,-27.777776 0,-15.277776 12.847224,-27.777777 28.472226,-27.777777 15.625,0 28.47222,12.500001 28.47222,27.777777 0,15.277781 -12.84722,27.777776 -28.47222,27.777776 z m 0,-77.777778 c -28.472226,0 -51.388897,22.569448 -51.388897,50.000002 0,27.777776 22.916671,49.999996 51.388897,49.999996 11.80556,0 22.56945,-3.81945 31.25001,-10.41667 5.20833,8.68056 20.13888,10.41667 20.13888,10.41667 V 83.343754 c 0,-27.430554 -22.91667,-50.000002 -51.38889,-50.000002 z"
       id="path1064"
       style="stroke-width:5.08299" /><g
       id="g1009"
       transform="matrix(3.0229749,0,0,3.0229749,136.13204,56.136977)"><rect
         x="4.7399998"
         y="4.21"
         width="1.98"
         height="9.5"
         transform="rotate(30,5.7226022,8.9666334)"
         fill="#a67af4"
         id="rect979" /><rect
         x="11.21"
         y="4.3699999"
         width="1.98"
         height="9.5"
         transform="rotate(-30,12.199306,9.1087942)"
         fill="#a67af4"
         id="rect981" /><rect
         x="7.9000001"
         y="9.9700003"
         width="1.98"
         height="9.5"
         transform="rotate(90,8.895,14.715)"
         fill="#773adc"
         id="rect983" /><circle
         cx="9.0699997"
         cy="3.1400001"
         r="2.4100001"
         fill="url(#bb37dfaa-4390-42b5-a627-52fd73968e3c)"
         id="circle985"
         style="fill:url(#bb37dfaa-4390-42b5-a627-52fd73968e3c)" /><circle
         cx="15.59"
         cy="14.86"
         r="2.4100001"
         fill="url(#b0a858c9-0e98-4e4e-9ead-d7a0786c484b)"
         id="circle987"
         style="fill:url(#b0a858c9-0e98-4e4e-9ead-d7a0786c484b)" /><circle
         cx="2.4100001"
         cy="14.86"
         r="2.4100001"
         fill="url(#eee8ab19-1451-41df-b871-13f8a49d17d6)"
         id="circle989"
         style="fill:url(#eee8ab19-1451-41df-b871-13f8a49d17d6)" /></g></g><style
     id="style780"><![CDATA[.H{stroke-miterlimit:10}]]></style></svg>
