<?xml version="1.0" encoding="UTF-8" standalone="no"?>
<!-- Created with Inkscape (http://www.inkscape.org/) -->

<svg
   version="1.1"
   id="svg132"
   width="1200"
   height="630"
   viewBox="0 0 1200 630"
   sodipodi:docname="guacamole-with-sql-and-2fa.svg"
   inkscape:version="1.2.2 (732a01da63, 2022-12-09)"
   xml:space="preserve"
   inkscape:export-filename="..\Output\guacamole-with-sql-and-2fa.png"
   inkscape:export-xdpi="96"
   inkscape:export-ydpi="96"
   xmlns:inkscape="http://www.inkscape.org/namespaces/inkscape"
   xmlns:sodipodi="http://sodipodi.sourceforge.net/DTD/sodipodi-0.dtd"
   xmlns="http://www.w3.org/2000/svg"
   xmlns:svg="http://www.w3.org/2000/svg"><defs
     id="defs136"><style
       id="style368">.cls-1{fill:#1d1d1b;}.cls-2{fill:#e9500e;}.cls-3{fill:#fff;}</style></defs><sodipodi:namedview
     id="namedview134"
     pagecolor="#ffffff"
     bordercolor="#000000"
     borderopacity="0.25"
     inkscape:showpageshadow="2"
     inkscape:pageopacity="0.0"
     inkscape:pagecheckerboard="0"
     inkscape:deskcolor="#d1d1d1"
     showgrid="false"
     inkscape:zoom="2.6174175"
     inkscape:cx="286.15993"
     inkscape:cy="306.79095"
     inkscape:window-width="3440"
     inkscape:window-height="1369"
     inkscape:window-x="-8"
     inkscape:window-y="-8"
     inkscape:window-maximized="1"
     inkscape:current-layer="g138" /><g
     inkscape:groupmode="layer"
     inkscape:label="Image"
     id="g138"><g
       id="g705"
       transform="matrix(1.0490719,1.3339645e-8,-1.3339645e-8,1.0490719,636.07862,-18.048028)"><rect
         class="cls-2"
         width="233.93118"
         height="360.27347"
         id="rect384"
         x="95.978767"
         y="137.33247" /><circle
         class="cls-3"
         cx="146.99988"
         cy="375.12964"
         r="24.5497"
         id="circle386" /><circle
         class="cls-3"
         cx="249.24023"
         cy="321.29871"
         r="24.5497"
         id="circle388" /><path
         class="cls-3"
         d="m 202.368,438.31075 a 59.78848,59.78848 0 0 1 -40.772,-31.0957 35.34018,35.34018 0 0 1 -20.9902,2.58008 79.92109,79.92109 0 0 0 57.5395,48.22363 80.88379,80.88379 0 0 0 17.4326,1.79395 35.1274,35.1274 0 0 1 -7.1879,-20.52539 c -2.022,-0.22461 -4.0415,-0.55274 -6.022,-0.97657 z"
         id="path390" /><circle
         class="cls-3"
         cx="243.70935"
         cy="438.44617"
         r="24.5497"
         id="circle392" /><path
         class="cls-3"
         d="m 277.8714,429.42892 a 80.3186,80.3186 0 0 0 4.0249,-94.23828 35.38432,35.38432 0 0 1 -13.8051,16.168 60.18666,60.18666 0 0 1 -1.9673,59.78028 35.20475,35.20475 0 0 1 11.7475,18.29 z"
         id="path394" /><path
         class="cls-3"
         d="m 145.1058,339.92306 q 0.9346,-0.0513 1.8701,-0.0508 a 35.42979,35.42979 0 0 1 18.6177,5.30175 59.87445,59.87445 0 0 1 48.2109,-25.78418 35.5969,35.5969 0 0 1 7.4478,-19.90966 80.69546,80.69546 0 0 0 -76.1465,40.44287 z"
         id="path396" /></g><path
       id="path857"
       style="fill:#d3b542;fill-opacity:1;stroke-width:37.7953;stroke-linejoin:round;stroke-dasharray:37.7953, 37.7953"
       d="M 503.39258 191.91992 C 501.01137 191.7584 499.95473 192.74108 497.83398 195.83008 C 493.48171 202.16948 482.95898 226.45087 482.95898 230.1543 C 482.95898 230.6472 484.28537 231.77298 485.9082 232.65625 C 488.48388 234.05812 489.11257 234.79709 490.85352 238.46484 C 492.5395 242.01684 493.31534 242.95618 495.87109 244.54492 C 497.75634 245.71686 499.55608 247.48987 500.65039 249.25586 C 503.55141 253.93748 503.23247 253.84037 507.64648 251.39844 C 509.82069 250.19562 515.53973 246.80343 520.35547 243.85938 C 535.2135 234.77602 543.98985 227.54494 546.62891 222.21094 C 548.0056 219.42838 547.82644 218.41717 545.44922 215.5332 C 539.59876 208.4356 516.47289 194.78635 506.30273 192.42773 C 505.12626 192.15489 504.18631 191.97376 503.39258 191.91992 z " /><path
       id="path513"
       style="fill:#578b34;stroke-width:37.7953;stroke-linejoin:round;stroke-dasharray:37.7953, 37.7953;fill-opacity:1"
       d="M 410.92578 196.81836 C 408.46971 196.55596 406.16852 196.85934 401.83008 197.49609 C 394.99148 198.49977 393.75163 198.86637 390.85352 200.73438 C 383.15887 205.69404 377.0352 207.4755 367.63086 207.49219 C 364.45041 207.49919 359.82504 207.92072 357.35156 208.43164 C 349.32124 210.09034 346.97425 211.29166 341.14648 216.73242 C 333.76543 223.62331 328.92279 226.87246 320.12891 230.82812 C 310.86301 234.99613 309.82888 235.71287 308.47461 238.91406 C 305.35658 246.28441 303.87201 249.06322 300.27539 254.25781 C 294.50646 262.58988 293.15205 265.83441 293.61133 270.22852 C 294.74444 281.06961 306.46253 292.99253 324.2168 301.36719 C 349.95267 313.50675 387.39584 319.53675 423.31445 317.32812 C 450.73664 315.64194 475.17107 310.06073 493.70312 301.25 C 503.04067 296.81062 508.38445 293.15951 514.61328 286.96289 C 521.13147 280.47836 523.61942 275.91293 524.04883 269.64648 C 524.35192 265.2235 522.9131 259.88737 521.34375 259.61523 C 520.63234 259.49181 507.18113 266.83393 497.29688 272.74023 C 496.25129 273.36502 495.24896 273.72748 495.06836 273.54688 C 494.88775 273.36631 494.37902 270.98721 493.9375 268.25977 C 492.81978 261.3551 491.8121 259.26235 488.50977 256.97266 C 483.41081 253.4373 482.37336 252.3014 480.29883 247.98828 C 478.47514 244.19667 477.95563 243.59498 475.75977 242.73242 C 471.68201 241.13064 467.01367 238.04579 467.01367 236.95312 C 467.01367 235.82543 470.77158 225.11482 473.14453 219.47852 C 473.99505 217.45834 474.69141 215.70021 474.69141 215.57031 C 474.69141 214.99478 461.60549 205.63214 459.67188 204.82422 C 457.16036 203.77484 448.3119 202.81964 440.73438 202.78125 C 433.28569 202.74355 428.12966 201.89879 420.95117 199.53906 C 415.99249 197.90902 413.38186 197.08076 410.92578 196.81836 z " /><path
       inkscape:connector-curvature="0"
       id="path14580"
       d="m 396.14942,503.37192 c -11.0055,-0.86788 -24.84132,-3.11355 -35.13697,-5.70304 -53.6514,-13.49408 -98.52462,-49.69 -122.82329,-99.07255 -9.58016,-19.46993 -15.19218,-37.44915 -17.71273,-56.74628 -0.50908,-3.89754 -1.23074,-8.41517 -1.60368,-10.03914 -0.90329,-3.93348 -0.90329,-29.72715 0,-33.66063 0.37294,-1.62399 1.0946,-6.1416 1.60368,-10.03915 2.52055,-19.29712 8.13257,-37.27635 17.71273,-56.74627 18.27814,-37.14694 47.82727,-66.69607 84.9742,-84.9742 19.46992,-9.58017 37.44915,-15.19219 56.74629,-17.71273 3.89754,-0.50908 8.41515,-1.23074 10.03913,-1.60368 3.93348,-0.90329 29.72715,-0.90329 33.66063,0 1.62398,0.37294 6.14159,1.0946 10.03914,1.60368 19.29714,2.52054 37.27636,8.13256 56.74628,17.71273 37.14693,18.27813 66.69606,47.82726 84.9742,84.9742 9.58017,19.46992 15.19218,37.44915 17.71273,56.74627 0.50908,3.89755 1.23073,8.41516 1.60367,10.03915 0.4074,1.77402 0.67807,8.49235 0.67807,16.8303 0,8.33797 -0.27067,15.05628 -0.67807,16.83033 -0.37294,1.62397 -1.09459,6.1416 -1.60367,10.03914 -2.52055,19.29713 -8.13256,37.27635 -17.71273,56.74628 -18.27814,37.14692 -47.82727,66.69607 -84.9742,84.9742 -19.46992,9.58016 -37.44914,15.19218 -56.74628,17.71273 -3.89755,0.50908 -8.28229,1.17503 -9.74387,1.47989 -3.6725,0.76601 -20.95458,1.14506 -27.75526,0.60877 z m 24.38711,-68.5271 c 11.72137,-0.64995 19.28775,-1.65571 29.3518,-3.90161 34.20436,-7.63303 62.09037,-26.64119 80.51539,-54.88233 6.25591,-9.5888 6.36015,-11.19203 0.42498,-6.53645 -17.84972,14.00144 -47.36042,25.6467 -78.57822,31.00787 -17.00252,2.91991 -22.3648,3.31833 -44.58558,3.31289 -16.62951,-0.004 -23.01505,-0.22773 -29.32125,-1.02697 -15.68171,-1.98744 -33.26088,-5.75194 -46.26753,-9.90797 -19.68957,-6.29141 -39.8409,-16.60537 -50.28644,-25.73787 -3.33473,-2.91556 -4.92881,-3.81229 -4.92881,-2.77267 0,0.74309 4.22682,8.70176 6.68508,12.5873 22.55809,35.65557 61.43357,55.26028 114.67035,57.82772 5.19673,0.25063 9.98009,0.49103 10.62968,0.53426 0.64959,0.0433 5.91034,-0.18369 11.69055,-0.50417 z m 3.66342,-61.41864 c 28.30079,-2.06534 54.56904,-7.95803 79.42728,-17.81773 18.47091,-7.32622 37.32628,-18.33959 45.06125,-26.32014 2.62438,-2.70769 3.32116,-4.96741 5.42762,-17.60225 0.7874,-4.72292 2.1123,-10.55923 2.94424,-12.96956 1.19245,-3.45484 1.64115,-6.35341 2.11992,-13.69452 0.91523,-14.03345 0.10709,-19.81626 -3.72005,-26.61976 -2.18589,-3.88588 -7.37047,-9.55562 -10.0647,-11.00654 l -2.02117,-1.08848 -3.48614,2.52688 c -4.97117,3.60327 -5.12633,3.86597 -3.80882,6.44852 2.09168,4.10003 3.14205,8.9913 3.11531,14.50711 -0.0481,9.91803 -3.48774,17.14072 -12.5365,26.32449 -34.03562,34.54346 -125.05507,46.46758 -191.2791,25.05878 -30.38504,-9.82282 -50.59533,-25.01858 -55.94622,-42.06494 -1.32926,-4.23457 -1.4939,-5.62021 -1.26302,-10.62967 0.32603,-7.07409 1.38374,-9.63315 8.04645,-19.46805 2.59371,-3.8286 5.54669,-9.05461 6.56217,-11.61332 1.01549,-2.55873 2.23322,-5.40039 2.70607,-6.31477 1.35426,-2.61884 0.0883,-2.62717 -4.60398,-0.0304 -9.92577,5.49337 -20.34284,13.7899 -25.84051,20.58037 -7.37282,9.10654 -9.28767,15.87862 -8.59465,30.3958 0.42168,8.83313 1.36363,13.42834 3.5276,17.209 1.03765,1.81288 1.50541,3.77133 1.78558,7.47594 0.65511,8.66268 2.16657,17.31458 3.37019,19.29171 1.57548,2.58792 9.68135,9.32989 16.75167,13.93298 36.59421,23.82449 92.96968,37.08987 142.31951,33.48842 z m -0.88581,-56.09754 c 27.42221,-1.68619 51.85662,-7.26755 70.38869,-16.07829 9.33755,-4.43938 14.68131,-8.09061 20.91015,-14.28724 6.5182,-6.48454 9.00604,-11.05047 9.43545,-17.31692 0.30309,-4.42299 -1.13573,-9.75792 -2.70508,-10.03006 -0.71141,-0.12342 -14.16197,7.21773 -24.04623,13.12404 -1.04559,0.62479 -2.04885,0.98822 -2.22945,0.80761 -0.18061,-0.18057 -0.68962,-2.55994 -1.13114,-5.28739 -1.11772,-6.90467 -2.12386,-8.99755 -5.4262,-11.28725 -5.09896,-3.53536 -6.13762,-4.67176 -8.21215,-8.98488 -1.82369,-3.79162 -2.34326,-4.39322 -4.53913,-5.25578 -4.07776,-1.60178 -8.74514,-4.68585 -8.74514,-5.77852 0,-1.1277 3.75764,-11.8387 6.13059,-17.47501 0.85052,-2.02018 1.5464,-3.77932 1.5464,-3.90922 0,-0.57553 -13.08582,-9.9381 -15.01944,-10.74602 -2.51152,-1.04938 -11.35893,-2.00329 -18.93646,-2.04168 -7.44869,-0.0377 -12.60451,-0.88283 -19.78301,-3.24256 -9.91738,-3.26008 -10.44455,-3.31641 -19.12144,-2.0429 -6.8386,1.00368 -8.07859,1.36941 -10.97671,3.23742 -7.69465,4.95967 -13.81839,6.74186 -23.22274,6.75855 -3.18045,0.007 -7.8064,0.42827 -10.27988,0.93919 -8.03033,1.6587 -10.37648,2.86062 -16.20425,8.30139 -7.38106,6.8909 -12.22494,10.13911 -21.01883,14.09478 -9.26591,4.16801 -10.29916,4.88496 -11.65343,8.08616 -3.11803,7.37035 -4.60307,10.14925 -8.19969,15.34385 -5.76894,8.33208 -7.12278,11.57698 -6.6635,15.97109 1.13311,10.84111 12.85131,22.76303 30.60559,31.1377 25.7359,12.13957 63.17838,18.17057 99.09703,15.96194 z m 97.04123,-73.4698 c 14.85805,-9.08336 23.63389,-16.31452 26.27295,-21.64853 1.3767,-2.78256 1.19825,-3.79323 -1.17897,-6.6772 -5.85046,-7.09761 -28.97585,-20.74747 -39.14602,-23.10609 -4.7059,-1.09138 -5.6423,-0.71507 -8.46996,3.4036 -4.35228,6.33941 -14.87495,30.62031 -14.87495,34.32374 0,0.4929 1.32777,1.61886 2.9506,2.50213 2.57568,1.40187 3.204,2.1398 4.94495,5.80756 1.68599,3.552 2.46183,4.49228 5.01759,6.08102 1.88525,1.17194 3.68379,2.94533 4.7781,4.71132 2.90102,4.68163 2.5827,4.58416 6.99672,2.14223 2.17421,-1.20282 7.89325,-4.59572 12.70899,-7.53978 z"
       style="fill:#030403;stroke-width:0.590537" /><path
       inkscape:connector-curvature="0"
       id="path14586"
       d="m 392.60421,372.24551 c -1.96855,-0.13174 -7.51624,-0.63966 -12.32817,-1.12873 -40.86353,-4.15321 -85.79721,-20.83465 -108.41679,-40.2493 -6.20565,-5.32637 -6.89855,-6.91465 -8.32847,-19.09062 -0.91501,-7.79155 -1.54186,-10.81256 -3.00788,-14.49613 -3.40884,-8.56519 -3.99147,-24.86793 -1.18442,-33.14181 2.86988,-8.45908 11.96848,-18.65306 23.84545,-26.71619 6.30587,-4.28097 10.03147,-6.44275 10.42509,-6.04912 0.42387,0.42387 -3.73779,9.28409 -6.40637,13.63924 -1.4917,2.43448 -3.82697,6.24284 -5.18949,8.46302 -4.1822,6.81481 -5.05092,9.5332 -5.09626,15.94715 -0.0739,10.458 3.49551,18.12852 12.7854,27.47511 14.9442,15.03541 40.84292,26.38542 73.97007,32.41707 11.003,2.00338 17.85352,2.70714 32.36956,3.32537 21.41162,0.9119 43.46529,-0.5127 60.68957,-3.92035 45.41202,-8.98432 76.74486,-28.30235 82.63137,-50.94573 1.55985,-6.00018 1.03516,-15.86798 -1.0902,-20.50334 -0.88317,-1.92618 -1.60577,-3.7059 -1.60577,-3.95493 0,-0.24902 1.48518,-1.57409 3.3004,-2.94459 2.22757,-1.68184 3.66408,-2.3764 4.41925,-2.13672 2.21349,0.70254 7.74786,7.04552 10.09751,11.57282 2.84982,5.49107 3.65802,9.52123 3.65802,18.2411 0,7.97311 -0.83731,15.26751 -2.39936,20.90257 -0.63664,2.29665 -2.09941,8.94871 -3.25061,14.78234 -1.15119,5.83363 -2.48726,11.36885 -2.96902,12.30048 -1.24832,2.41398 -6.20164,6.69694 -12.81724,11.08261 -26.25309,17.40395 -62.65472,29.5464 -102.04607,34.03941 -7.76017,0.88512 -34.68512,1.58251 -42.05557,1.08927 z"
       style="fill:#ffffff;fill-opacity:0.585882;stroke:#ffffff;stroke-width:2.23195;stroke-linecap:round;stroke-linejoin:round;stroke-miterlimit:4;stroke-dasharray:none;stroke-opacity:1" /><path
       inkscape:connector-curvature="0"
       id="path14588"
       d="m 390.81461,433.10822 c -0.98427,-0.13814 -5.27931,-0.66996 -9.54452,-1.18182 -45.76262,-5.49185 -80.4389,-26.46764 -99.3151,-60.07601 -1.06797,-1.90147 -1.83004,-3.56894 -1.69349,-3.70548 0.13654,-0.13655 2.34866,1.32463 4.91582,3.24706 4.98088,3.72995 17.03874,10.68043 23.9123,13.78368 21.22519,9.58269 43.9238,15.71483 69.79434,18.85529 12.73312,1.54568 45.76756,1.55452 58.16196,0.0156 35.77447,-4.44197 68.86676,-15.53064 89.67962,-30.05013 2.57054,-1.79327 4.8124,-3.12177 4.98193,-2.95224 0.42409,0.42409 -6.4109,10.50735 -10.57292,15.5976 -4.59429,5.61892 -15.35618,15.9632 -20.85615,20.04683 -17.92284,13.30739 -37.4083,21.10674 -63.47044,25.40505 -5.20519,0.85847 -41.41451,1.65724 -45.99335,1.0146 z"
       style="fill:#ffffff;fill-opacity:0.585882;stroke:#ffffff;stroke-width:2.23195;stroke-linecap:round;stroke-linejoin:round;stroke-miterlimit:4;stroke-dasharray:none;stroke-opacity:1" /><path
       id="path1063"
       style="fill:#ffffff;fill-opacity:0.58431375;stroke-width:37.7953;stroke-linejoin:round;stroke-dasharray:37.7953, 37.7953"
       d="M 277.16211 363.98438 C 276.96056 364.00095 276.86133 364.14049 276.86133 364.40039 C 276.86133 365.14348 281.08862 373.10079 283.54688 376.98633 C 306.10494 412.64186 344.98007 432.24702 398.2168 434.81445 C 403.41352 435.06508 408.19611 435.30638 408.8457 435.34961 C 409.49529 435.39291 414.75691 435.16618 420.53711 434.8457 C 432.25847 434.19575 439.82463 433.18926 449.88867 430.94336 C 484.093 423.31034 511.9793 404.30166 530.4043 376.06055 C 536.6602 366.47176 536.76329 364.86982 530.82812 369.52539 C 512.97842 383.52682 483.46777 395.17204 452.25 400.5332 C 435.2475 403.45311 429.88482 403.85114 407.66406 403.8457 C 391.03457 403.8417 384.64994 403.6176 378.34375 402.81836 C 362.66206 400.83092 345.08281 397.06618 332.07617 392.91016 C 312.38662 386.61875 292.23459 376.30437 281.78906 367.17188 C 279.28802 364.98521 277.76676 363.93466 277.16211 363.98438 z " /><path
       id="path1754"
       style="fill:#ffffff;fill-opacity:0.82745099;stroke-width:37.7953;stroke-linejoin:round;stroke-dasharray:37.7953, 37.7953"
       d="M 295.44922 229.11133 C 294.71548 229.10649 293.227 229.75435 290.88086 231.05273 C 280.9551 236.5461 270.53868 244.84235 265.04102 251.63281 C 257.6682 260.73934 255.75229 267.51018 256.44531 282.02734 C 256.86699 290.86046 257.80869 295.45567 259.97266 299.23633 C 261.01031 301.04921 261.47764 303.00828 261.75781 306.71289 C 262.41292 315.37556 263.92529 324.02678 265.12891 326.00391 C 266.70438 328.59182 274.81055 335.33441 281.88086 339.9375 C 318.47503 363.76197 374.84944 377.02723 424.19922 373.42578 C 452.49998 371.36044 478.76874 365.46907 503.62695 355.60938 C 522.09784 348.28316 540.95449 337.2696 548.68945 329.28906 C 551.31383 326.58138 552.00878 324.32037 554.11523 311.68555 C 554.90263 306.96263 556.22861 301.12712 557.06055 298.7168 C 558.253 295.26196 558.70092 292.36259 559.17969 285.02148 C 560.09492 270.98805 559.28807 265.20584 555.46094 258.40234 C 553.27505 254.51647 548.09071 248.8474 545.39648 247.39648 L 543.375 246.30664 L 539.88867 248.83398 C 534.91751 252.43725 534.76257 252.70066 536.08008 255.2832 C 538.17176 259.38323 539.22205 264.27326 539.19531 269.78906 C 539.14721 279.70708 535.70695 286.92952 526.6582 296.11328 C 492.62262 330.65671 401.60287 342.58261 335.37891 321.17383 C 304.9939 311.35102 284.78448 296.15376 279.43359 279.10742 C 278.10434 274.87286 277.93904 273.48797 278.16992 268.47852 C 278.49595 261.40443 279.55409 258.84466 286.2168 249.00977 C 288.8105 245.18117 291.76382 239.95519 292.7793 237.39648 C 293.79479 234.83776 295.01153 231.99641 295.48438 231.08203 C 296.1615 229.77261 296.18296 229.11617 295.44922 229.11133 z " /></g></svg>
