<?xml version="1.0" encoding="UTF-8" standalone="no"?>
<!-- Created with Inkscape (http://www.inkscape.org/) -->

<svg
   version="1.1"
   id="svg132"
   width="1200"
   height="630"
   viewBox="0 0 1200 630"
   sodipodi:docname="install-xibo-on-ubuntu.svg"
   inkscape:version="1.2.2 (732a01da63, 2022-12-09)"
   xml:space="preserve"
   inkscape:export-filename="..\Output\guacamole-with-sql-and-2fa.png"
   inkscape:export-xdpi="96"
   inkscape:export-ydpi="96"
   xmlns:inkscape="http://www.inkscape.org/namespaces/inkscape"
   xmlns:sodipodi="http://sodipodi.sourceforge.net/DTD/sodipodi-0.dtd"
   xmlns="http://www.w3.org/2000/svg"
   xmlns:svg="http://www.w3.org/2000/svg"><defs
     id="defs136"><style
       id="style368">.cls-1{fill:#1d1d1b;}.cls-2{fill:#e9500e;}.cls-3{fill:#fff;}</style><clipPath
       clipPathUnits="userSpaceOnUse"
       id="clipPath416"><g
         id="g420"><rect
           id="rect418"
           data-name="Rectangle 1"
           width="762.21094"
           height="377.97238"
           fill="none"
           x="219.96695"
           y="126.02362"
           style="stroke-width:4.89931" /></g></clipPath><clipPath
       clipPathUnits="userSpaceOnUse"
       id="clipPath422"><g
         id="g426"><rect
           id="rect424"
           data-name="Rectangle 1"
           width="762.21094"
           height="377.97238"
           fill="none"
           x="219.96695"
           y="126.02362"
           style="stroke-width:4.89931" /></g></clipPath><clipPath
       clipPathUnits="userSpaceOnUse"
       id="clipPath428"><g
         id="g432"><rect
           id="rect430"
           data-name="Rectangle 1"
           width="762.21094"
           height="377.97238"
           fill="none"
           x="219.96695"
           y="126.02362"
           style="stroke-width:4.89931" /></g></clipPath><clipPath
       clipPathUnits="userSpaceOnUse"
       id="clipPath434"><g
         id="g438"><rect
           id="rect436"
           data-name="Rectangle 1"
           width="762.21094"
           height="377.97238"
           fill="none"
           x="219.96695"
           y="126.02362"
           style="stroke-width:4.89931" /></g></clipPath><clipPath
       clipPathUnits="userSpaceOnUse"
       id="clipPath440"><g
         id="g444"><rect
           id="rect442"
           data-name="Rectangle 1"
           width="762.21094"
           height="377.97238"
           fill="none"
           x="219.96695"
           y="126.02362"
           style="stroke-width:4.89931" /></g></clipPath><clipPath
       clipPathUnits="userSpaceOnUse"
       id="clipPath446"><g
         id="g450"><rect
           id="rect448"
           data-name="Rectangle 1"
           width="762.21094"
           height="377.97238"
           fill="none"
           x="219.96695"
           y="126.02362"
           style="stroke-width:4.89931" /></g></clipPath><clipPath
       clipPathUnits="userSpaceOnUse"
       id="clipPath452"><g
         id="g456"><rect
           id="rect454"
           data-name="Rectangle 1"
           width="762.21094"
           height="377.97238"
           fill="none"
           x="219.96695"
           y="126.02362"
           style="stroke-width:4.89931" /></g></clipPath><clipPath
       clipPathUnits="userSpaceOnUse"
       id="clipPath458"><g
         id="g462"><rect
           id="rect460"
           data-name="Rectangle 1"
           width="762.21094"
           height="377.97238"
           fill="none"
           x="219.96695"
           y="126.02362"
           style="stroke-width:4.89931" /></g></clipPath><clipPath
       clipPathUnits="userSpaceOnUse"
       id="clipPath464"><g
         id="g468"><rect
           id="rect466"
           data-name="Rectangle 1"
           width="762.21094"
           height="377.97238"
           fill="none"
           x="219.96695"
           y="126.02362"
           style="stroke-width:4.89931" /></g></clipPath><clipPath
       clipPathUnits="userSpaceOnUse"
       id="clipPath470"><g
         id="g474"><rect
           id="rect472"
           data-name="Rectangle 1"
           width="762.21094"
           height="377.97238"
           fill="none"
           x="219.96695"
           y="126.02362"
           style="stroke-width:4.89931" /></g></clipPath><clipPath
       clipPathUnits="userSpaceOnUse"
       id="clipPath476"><g
         id="g480"><rect
           id="rect478"
           data-name="Rectangle 1"
           width="762.21094"
           height="377.97238"
           fill="none"
           x="219.96695"
           y="126.02362"
           style="stroke-width:4.89931" /></g></clipPath><clipPath
       clipPathUnits="userSpaceOnUse"
       id="clipPath482"><g
         id="g486"><rect
           id="rect484"
           data-name="Rectangle 1"
           width="762.21094"
           height="377.97238"
           fill="none"
           x="219.96695"
           y="126.02362"
           style="stroke-width:4.89931" /></g></clipPath><clipPath
       clipPathUnits="userSpaceOnUse"
       id="clipPath488"><g
         id="g492"><rect
           id="rect490"
           data-name="Rectangle 1"
           width="762.21094"
           height="377.97238"
           fill="none"
           x="219.96695"
           y="126.02362"
           style="stroke-width:4.89931" /></g></clipPath></defs><sodipodi:namedview
     id="namedview134"
     pagecolor="#ffffff"
     bordercolor="#000000"
     borderopacity="0.25"
     inkscape:showpageshadow="2"
     inkscape:pageopacity="0.0"
     inkscape:pagecheckerboard="0"
     inkscape:deskcolor="#d1d1d1"
     showgrid="false"
     inkscape:zoom="0.65435438"
     inkscape:cx="369.06607"
     inkscape:cy="363.71729"
     inkscape:window-width="3440"
     inkscape:window-height="1369"
     inkscape:window-x="-8"
     inkscape:window-y="-8"
     inkscape:window-maximized="1"
     inkscape:current-layer="g138" /><g
     inkscape:groupmode="layer"
     inkscape:label="Image"
     id="g138"><path
       id="Path_1"
       data-name="Path 1"
       d="m 237.71717,497.12714 v 0 A 17.715923,17.715923 0 0 1 223.13191,469.34802 L 297.96894,360.87229 228.55055,258.97143 a 17.564044,17.564044 0 0 1 14.51667,-27.43616 h 2.19489 a 17.559145,17.559145 0 0 1 14.65875,7.89769 l 61.79996,93.7092 61.27574,-93.67 a 17.560105,17.560105 0 1 1 29.20971,19.49927 l -69.3792,101.90576 73.60241,108.59331 a 17.715923,17.715923 0 0 1 -14.66365,27.65664 h -1.46979 a 17.711024,17.711024 0 0 1 -14.86942,-8.08387 L 319.91298,387.9214 252.46411,489.22944 a 17.725722,17.725722 0 0 1 -14.74694,7.8977"
       fill="#eb7857"
       style="stroke-width:4.89931"
       clip-path="url(#clipPath488)" /><path
       id="Path_2"
       data-name="Path 2"
       d="m 475.13307,238.92834 v 0 a 15.859083,15.859083 0 0 1 16.54499,15.07519 v 3.45892 a 16.618476,16.618476 0 0 1 -33.08997,0 v -3.45892 a 15.859083,15.859083 0 0 1 16.54498,-15.07519"
       fill="#0e70f6"
       style="stroke-width:4.89931"
       clip-path="url(#clipPath482)" /><path
       id="Path_3"
       data-name="Path 3"
       d="m 475.13307,304.38808 v 0 a 16.544987,16.544987 0 0 1 16.54499,16.54499 v 159.65887 a 16.544987,16.544987 0 0 1 -33.08997,0 V 320.93307 a 16.544987,16.544987 0 0 1 16.54498,-16.54499"
       fill="#0e70f6"
       style="stroke-width:4.89931"
       clip-path="url(#clipPath476)" /><path
       id="Path_4"
       data-name="Path 4"
       d="m 558.96035,230.624 v 0 a 15.819888,15.819888 0 0 1 15.81499,15.81988 v 80.54964 a 71.285033,71.285033 0 0 1 57.90501,-28.5679 75.890389,75.890389 0 0 1 58.89956,24.85422 q 22.59564,24.86402 22.60054,73.31825 0,45.92618 -22.33108,76.30193 a 72.509862,72.509862 0 0 1 -61.88814,30.37575 63.593109,63.593109 0 0 1 -37.39157,-10.6658 90.010215,90.010215 0 0 1 -19.42089,-20.24887 v 9.76433 a 15.006602,15.006602 0 1 1 -30.0083,0 V 246.46838 a 15.819888,15.819888 0 0 1 15.81988,-15.81989 m 108.61292,222.91883 q 13.15466,-20.97396 13.14976,-55.32306 a 90.563838,90.563838 0 0 0 -13.14976,-50.62462 43.358938,43.358938 0 0 0 -38.73399,-20.08719 54.117833,54.117833 0 0 0 -39.09163,16.45679 q -16.78015,16.4519 -16.78015,54.24032 a 119.50409,119.50409 0 0 0 6.89333,44.29961 q 12.8803,32.00232 48.07698,32.00232 a 43.667595,43.667595 0 0 0 39.63546,-20.97396"
       fill="#0e70f6"
       style="stroke-width:4.89931"
       clip-path="url(#clipPath470)" /><path
       id="Path_5"
       data-name="Path 5"
       d="m 900.79046,322.78991 q 25.67241,24.93261 25.67241,73.34274 0,46.78846 -22.62503,77.31609 -22.62504,30.52764 -70.19249,30.52764 -39.68445,0 -63.01989,-27.00503 -23.33544,-27.00502 -23.34034,-72.50986 0,-48.77268 24.59457,-77.67374 24.59456,-28.90106 66.06726,-28.90596 a 86.791365,86.791365 0 0 1 62.84351,24.90812 m -20.20967,128.6952 a 122.92871,122.92871 0 0 0 11.89064,-54.44608 97.809925,97.809925 0 0 0 -8.57871,-44.05954 q -13.59069,-26.72577 -46.84235,-26.73067 -29.50367,0 -42.9033,22.75732 a 106.31514,106.31514 0 0 0 -13.40942,54.87233 92.41088,92.41088 0 0 0 13.40942,51.44281 q 13.40453,20.57712 42.55055,20.57712 31.99743,0 43.88807,-24.47208"
       fill="#0e70f6"
       style="stroke-width:4.89931"
       clip-path="url(#clipPath464)" /><path
       id="Path_7"
       data-name="Path 7"
       d="m 980.02218,164.21378 a 36.04916,36.04916 0 1 1 -36.03446,-36.04916 36.04916,36.04916 0 0 1 36.03446,36.04916"
       fill="#f7f7f7"
       style="stroke-width:4.89931"
       clip-path="url(#clipPath446)" /><circle
       id="Ellipse_2"
       data-name="Ellipse 2"
       cx="943.98285"
       cy="164.21378"
       r="36.04916"
       fill="none"
       stroke="#0e70f6"
       stroke-miterlimit="10"
       stroke-width="4.89931"
       clip-path="url(#clipPath440)" /><path
       id="Path_8"
       data-name="Path 8"
       d="M 817.31593,258.31982 A 27.700727,27.700727 0 1 1 789.6201,230.624 a 27.695828,27.695828 0 0 1 27.69583,27.69582"
       fill="#f7f7f7"
       style="stroke-width:4.89931"
       clip-path="url(#clipPath434)" /><path
       id="Path_9"
       data-name="Path 9"
       d="M 817.31593,258.31982 A 27.700727,27.700727 0 1 1 789.6201,230.624 a 27.695828,27.695828 0 0 1 27.69583,27.69582 z"
       fill="none"
       stroke="#0e70f6"
       stroke-miterlimit="10"
       stroke-width="4.89931"
       clip-path="url(#clipPath428)" /><path
       id="Path_10"
       data-name="Path 10"
       d="M 917.24726,258.31982 A 27.700727,27.700727 0 1 1 889.55143,230.624 27.695828,27.695828 0 0 1 917.24726,258.31982"
       fill="#f7f7f7"
       style="stroke-width:4.89931"
       clip-path="url(#clipPath422)" /><path
       id="Path_11"
       data-name="Path 11"
       d="M 917.24726,258.31982 A 27.700727,27.700727 0 1 1 889.55143,230.624 27.695828,27.695828 0 0 1 917.24726,258.31982 Z"
       fill="none"
       stroke="#0e70f6"
       stroke-miterlimit="10"
       stroke-width="4.89931"
       clip-path="url(#clipPath416)" /><g
       id="g705"
       transform="matrix(1.0490719,1.3339645e-8,-1.3339645e-8,1.0490719,636.07862,-18.048028)"><rect
         class="cls-2"
         width="233.93118"
         height="360.27347"
         id="rect384"
         x="95.978767"
         y="137.33247" /><circle
         class="cls-3"
         cx="146.99988"
         cy="375.12964"
         r="24.5497"
         id="circle386" /><circle
         class="cls-3"
         cx="249.24023"
         cy="321.29871"
         r="24.5497"
         id="circle388" /><path
         class="cls-3"
         d="m 202.368,438.31075 a 59.78848,59.78848 0 0 1 -40.772,-31.0957 35.34018,35.34018 0 0 1 -20.9902,2.58008 79.92109,79.92109 0 0 0 57.5395,48.22363 80.88379,80.88379 0 0 0 17.4326,1.79395 35.1274,35.1274 0 0 1 -7.1879,-20.52539 c -2.022,-0.22461 -4.0415,-0.55274 -6.022,-0.97657 z"
         id="path390" /><circle
         class="cls-3"
         cx="243.70935"
         cy="438.44617"
         r="24.5497"
         id="circle392" /><path
         class="cls-3"
         d="m 277.8714,429.42892 a 80.3186,80.3186 0 0 0 4.0249,-94.23828 35.38432,35.38432 0 0 1 -13.8051,16.168 60.18666,60.18666 0 0 1 -1.9673,59.78028 35.20475,35.20475 0 0 1 11.7475,18.29 z"
         id="path394" /><path
         class="cls-3"
         d="m 145.1058,339.92306 q 0.9346,-0.0513 1.8701,-0.0508 a 35.42979,35.42979 0 0 1 18.6177,5.30175 59.87445,59.87445 0 0 1 48.2109,-25.78418 35.5969,35.5969 0 0 1 7.4478,-19.90966 80.69546,80.69546 0 0 0 -76.1465,40.44287 z"
         id="path396" /></g></g></svg>
