<?xml version="1.0" encoding="UTF-8" standalone="no"?>
<!-- Created with Inkscape (http://www.inkscape.org/) -->

<svg
   version="1.1"
   id="svg132"
   width="1200"
   height="630"
   viewBox="0 0 1200 630"
   sodipodi:docname="acme-sh.svg"
   inkscape:version="1.4.2 (f4327f4, 2025-05-13)"
   xml:space="preserve"
   xmlns:inkscape="http://www.inkscape.org/namespaces/inkscape"
   xmlns:sodipodi="http://sodipodi.sourceforge.net/DTD/sodipodi-0.dtd"
   xmlns="http://www.w3.org/2000/svg"
   xmlns:svg="http://www.w3.org/2000/svg"><defs
     id="defs136"><style
       id="style368">.cls-1{fill:#1d1d1b;}.cls-2{fill:#e9500e;}.cls-3{fill:#fff;}</style><path
       id="a"
       d="m258.277 184.829-.07 28.477-82.285-47.519.069-28.477z" /><path
       id="c"
       d="m216.802 175.326-40.741 23.654-40.95-23.654 40.88-23.76z" /><path
       id="e"
       d="m216.837 161.14-40.706 23.654-40.985-23.654 40.88-23.83z" /><path
       id="g"
       d="m176.131 184.794-.07 14.186-40.95-23.654.035-14.186z" /><path
       id="i"
       d="m135.146 161.14 40.88-23.83-.035 14.256-40.88 23.76z" /><path
       id="k"
       d="m176.026 137.31 40.811 23.83-.035 14.186-40.811-23.76z" /></defs><sodipodi:namedview
     id="namedview134"
     pagecolor="#ffffff"
     bordercolor="#000000"
     borderopacity="0.25"
     inkscape:showpageshadow="2"
     inkscape:pageopacity="0.0"
     inkscape:pagecheckerboard="0"
     inkscape:deskcolor="#d1d1d1"
     showgrid="false"
     inkscape:zoom="1.3087087"
     inkscape:cx="508.89857"
     inkscape:cy="416.82307"
     inkscape:window-width="2560"
     inkscape:window-height="1417"
     inkscape:window-x="3432"
     inkscape:window-y="-8"
     inkscape:window-maximized="1"
     inkscape:current-layer="g138" /><g
     inkscape:groupmode="layer"
     inkscape:label="Image"
     id="g138"><g
       id="g7"
       transform="matrix(0.68143014,0.68143014,-0.68143014,0.68143014,561.92924,-378.76405)"
       style="stroke-width:1.03768"><path
         style="baseline-shift:baseline;display:inline;overflow:visible;vector-effect:none;fill:#b7c2c6;stroke-width:0.0549105;stroke-linecap:round;stroke-linejoin:round;enable-background:accumulate;stop-color:#000000"
         d="m 704.96517,84.58006 c -65.0245,0 -118.11023,53.08573 -118.11023,118.11024 v 94.48819 c 0,65.0245 53.08573,118.11023 118.11023,118.11023 65.02451,0 118.11024,-53.08573 118.11024,-118.11023 V 202.6903 c 0,-65.02451 -53.08573,-118.11024 -118.11024,-118.11024 z m 0,47.24409 c 39.66841,0 70.86615,31.19774 70.86615,70.86615 v 94.48819 c 0,39.66841 -31.19774,70.86614 -70.86615,70.86614 -39.66841,0 -70.86614,-31.19773 -70.86614,-70.86614 V 202.6903 c 0,-39.66841 31.19773,-70.86615 70.86614,-70.86615 z"
         id="rect2" /><g
         id="g6"
         style="stroke-width:1.03768"><rect
           x="563.23291"
           y="226.31235"
           width="283.46457"
           height="236.22047"
           rx="23.622"
           ry="23.622047"
           style="fill:#5c509c;fill-opacity:1;stroke-width:1.03768;stroke-linecap:round;stroke-linejoin:round"
           id="rect4" /></g><circle
         style="fill:#0d0a19;stroke:none;stroke-width:0.760249;stroke-linecap:round;stroke-linejoin:round"
         id="path820"
         cx="704.96515"
         cy="303.67917"
         r="30.905018" /><path
         sodipodi:type="star"
         style="fill:#0d0a19;stroke:none;stroke-width:0.0549106;stroke-linecap:round;stroke-linejoin:round"
         id="path4542"
         sodipodi:sides="3"
         sodipodi:cx="10"
         sodipodi:cy="14.876472"
         sodipodi:r1="2.3339727"
         sodipodi:r2="1.1669863"
         sodipodi:arg1="0.52359878"
         sodipodi:arg2="1.5707963"
         inkscape:flatsided="true"
         inkscape:rounded="0"
         inkscape:randomized="0"
         d="m 12.02128,16.043459 -4.0425596,0 L 10,12.5425 Z"
         inkscape:transform-center-y="-1.0793397"
         transform="matrix(12.179634,0,0,33.512107,583.16876,-129.65887)" /></g><g
       id="g11"
       transform="matrix(0.84383046,0,0,0.84383046,-281.35954,41.471465)"
       style="stroke-width:1.18507"><rect
         x="879.07257"
         y="100.20041"
         width="283.46457"
         height="418.07916"
         rx="23.622"
         ry="23.622"
         style="fill:#f0f2ff;fill-opacity:1;stroke-width:1.18507;stroke-linecap:round;stroke-linejoin:round"
         id="rect4-4" /><rect
         x="926.59277"
         y="163.84995"
         width="188.97641"
         height="56.692951"
         rx="15"
         ry="15"
         style="fill:none;fill-opacity:1;stroke:#382d72;stroke-width:22.3951;stroke-linecap:round;stroke-linejoin:round;stroke-dasharray:none"
         id="rect4-8" /><path
         style="fill:none;stroke:#a080e1;stroke-width:22.395;stroke-linecap:round;stroke-dasharray:none"
         d="M 926.29613,280.02267 H 1115.3136"
         id="path3" /><path
         style="fill:none;stroke:#a080e1;stroke-width:22.395;stroke-linecap:round;stroke-dasharray:none"
         d="m 926.2961,341.01785 h 189.0175"
         id="path3-4" /><path
         style="fill:none;stroke:#a080e1;stroke-width:22.395;stroke-linecap:round;stroke-dasharray:none"
         d="M 926.29611,402.01303 H 1115.3136"
         id="path3-5" /><path
         style="fill:none;stroke:#a080e1;stroke-width:22.395;stroke-linecap:round;stroke-dasharray:none"
         d="m 926.2961,463.00821 h 189.0175"
         id="path3-7" /><g
         id="rect5"
         style="opacity:1;stroke-width:1.18507"><path
           style="baseline-shift:baseline;display:inline;overflow:visible;vector-effect:none;fill:#e5ccf4;stroke-width:1.18507;stroke-linecap:round;stroke-linejoin:round;enable-background:accumulate;stop-color:#000000;stop-opacity:1"
           d="m 1091.0139,409.20444 c -5.54,0 -10,10 -10,10 l 1.4961,119.44921 36.2979,-32.16177 36.2978,32.16177 c 0,0 1.498,-80.851 1.498,-119.44921 0,-5.54 -4.46,-10 -10,-10 z"
           id="path10" /><path
           style="baseline-shift:baseline;display:inline;overflow:visible;vector-effect:none;fill:#e5ccf4;stroke-width:1.18507;stroke-linecap:round;stroke-linejoin:round;enable-background:accumulate;stop-color:#000000;stop-opacity:1"
           d="m 1091.0137,399.75586 c -8.4552,0 -12.2555,5.4835 -14.7344,8.91211 -2.4789,3.4286 -3.8945,6.6875 -3.8945,6.6875 a 9.449745,9.449745 0 0 0 -0.8184,3.9668 l 1.4961,119.44921 a 9.449745,9.449745 0 0 0 15.7129,6.95508 l 30.0332,-26.61133 30.0312,26.61133 a 9.449745,9.449745 0 0 0 15.7129,-6.89844 c 0,0 1.5,-80.78036 1.5,-119.62304 0,-10.6112 -8.838,-19.44922 -19.4492,-19.44922 z m 1.7597,18.89648 h 53.8301 c 0.4688,0 0.5508,0.0839 0.5508,0.55274 0,29.65834 -0.7505,75.28888 -1.1563,98.7539 l -20.9238,-18.53906 a 9.449745,9.449745 0 0 0 -12.5332,0 l -20.8398,18.4668 -1.2071,-96.2793 c 0.3477,-0.65141 0.4593,-0.98147 1.0997,-1.86719 0.5455,-0.7545 1.0674,-1.00002 1.1796,-1.08789 z"
           id="path11" /></g><g
         id="path4"
         style="opacity:1;stroke-width:1.18507"><path
           style="baseline-shift:baseline;display:inline;overflow:visible;vector-effect:none;fill:#b7c2c6;stroke-width:1.18507;stroke-linecap:round;enable-background:accumulate;stop-color:#000000;stop-opacity:1"
           d="m 1175.5015,391.37396 a 56.692932,56.692932 0 0 1 -56.6929,56.69293 56.692932,56.692932 0 0 1 -56.6929,-56.69293 56.692932,56.692932 0 0 1 56.6929,-56.69293 56.692932,56.692932 0 0 1 56.6929,56.69293 z"
           id="path8" /><path
           style="baseline-shift:baseline;display:inline;overflow:visible;vector-effect:none;fill:#b7c2c6;stroke-width:1.18507;stroke-linecap:round;enable-background:accumulate;stop-color:#000000;stop-opacity:1"
           d="m 1118.8086,325.23242 c -36.4172,0 -66.1426,29.72347 -66.1426,66.14063 0,36.41715 29.7254,66.14257 66.1426,66.14257 36.4171,0 66.1426,-29.72542 66.1426,-66.14257 0,-36.41716 -29.7255,-66.14063 -66.1426,-66.14063 z m 0,18.89649 c 26.2041,0 47.2441,21.04001 47.2441,47.24414 0,26.20413 -21.04,47.24414 -47.2441,47.24414 -26.2041,0 -47.2441,-21.04001 -47.2441,-47.24414 0,-26.20413 21.04,-47.24414 47.2441,-47.24414 z"
           id="path9" /></g></g><path
       d="m 306.11483,130.5205 c -9.2652,-4.8563 -20.51558,-5.18308 -30.34921,-1.92211 -7.49991,2.53373 -13.34506,8.12068 -18.69967,13.71557 -7.59894,-13.4233 -25.5207,-19.73112 -39.94435,-14.40139 -3.80497,1.406 -3.69837,1.53571 -6.75076,3.68695 -4.23668,2.98593 -5.33385,4.24575 -7.52059,6.9507 -2.69503,3.06625 -4.03462,5.92276 -4.03462,5.92276 -5.1166,10.01608 -4.68901,22.71647 1.26026,32.28817 2.86856,4.73733 7.07322,8.49024 11.55116,11.67807 -7.63732,5.04924 -13.04614,13.21447 -15.11974,22.09917 -3.84433,14.21132 1.91434,30.22205 13.35983,39.31291 8.34968,7.05256 19.87016,9.71711 30.56825,7.80989 13.42489,-2.08326 24.9203,-12.1704 29.76732,-24.7156 1.70169,-4.24371 2.08612,-8.83901 2.38289,-13.35346 2.53662,4.72771 3.21865,10.16331 5.30618,15.07633 3.62074,0.2611 7.22503,0.82194 10.86994,0.89463 -0.67454,1.63825 -1.95507,2.95008 -2.56759,4.60734 -0.86838,3.47641 0.004,7.55942 2.88146,9.87884 3.97702,3.83412 11.21742,3.60498 14.55671,-0.97681 6.5152,7.24579 13.56897,13.98272 20.38616,20.94147 47.54471,47.93001 95.16854,95.78934 142.75717,143.67899 -1.75884,2.08243 -3.5803,4.13661 -5.84863,5.67126 -6.41111,-6.623 -12.92729,-13.14542 -19.50399,-19.5983 -3.36804,3.23059 -6.78586,6.41788 -9.83914,9.94847 0.93855,2.35183 2.12193,4.6026 3.34061,6.82291 -0.92395,1.67431 -2.3637,2.97853 -3.88766,4.07874 -2.2279,-1.30073 -4.66575,-2.19949 -6.80911,-3.62744 -7.61675,7.55371 -15.62285,14.74246 -22.87433,22.64868 5.71505,5.80827 11.76741,11.29909 17.16824,17.41853 5.70227,-5.09179 10.98652,-10.62569 16.29691,-16.11945 2.93726,2.24053 5.15415,5.25928 8.01935,7.60295 -5.06718,5.63545 -10.841,10.63888 -16.18762,16.01377 4.2747,5.02666 9.04908,9.58918 13.88391,14.08209 5.65549,-5.0278 10.55607,-10.84306 16.3165,-15.77078 2.49604,2.33661 4.81433,4.86763 7.31599,7.21794 -4.49702,6.18366 -10.87497,10.68791 -15.75308,16.55753 5.4913,5.94517 11.45499,11.43742 17.00383,17.33656 7.93874,-7.15147 15.26865,-14.93716 22.8296,-22.48706 -1.2268,-2.27101 -2.15191,-4.6985 -3.58892,-6.83825 1.03177,-1.66777 2.58877,-2.89628 4.16586,-4.03742 2.11508,1.28989 4.38789,2.29818 6.61278,3.42178 1.76084,-0.78061 2.69002,-2.58124 4.09646,-3.82721 1.89671,-2.18075 4.08965,-4.06017 6.30373,-5.90368 -0.67337,-0.89107 -1.44933,-1.71425 -2.25235,-2.4563 -6.05014,-5.59356 -11.61247,-11.68776 -17.63671,-17.31114 1.63532,-1.98052 3.58917,-3.67518 5.33804,-5.56567 6.76638,5.89367 12.70224,12.66179 19.10743,18.93058 0.94458,-0.97579 1.83902,-2.00399 2.85193,-2.93788 1.02965,-0.29109 1.33539,0.88224 1.33534,1.68483 -0.0532,2.51902 -0.2273,5.177 0.95694,7.50705 2.55665,5.61762 9.68162,8.21981 15.40079,6.24873 5.85212,-2.00363 9.3738,-8.99196 7.61821,-14.89885 -1.51656,-3.88414 -4.49143,-7.53606 -8.68429,-8.57384 -2.48272,-0.80699 -5.52373,1.0242 -7.5474,-1.16347 1.06802,-1.14773 2.54717,-1.88543 3.43375,-3.22577 -68.83057,-69.59282 -138.83424,-138.00724 -207.58145,-207.67587 5.98657,-4.69623 3.43498,-15.26532 -3.60689,-17.41127 -3.49598,-1.01641 -7.04128,0.54189 -9.99821,2.3065 -0.47461,-3.59746 -0.80069,-7.20522 -0.98736,-10.82273 -5.044,-1.73455 -10.35519,-2.75041 -15.12996,-5.17563 3.72618,-0.30162 7.50156,-0.49931 11.10013,-1.6273 10.70938,-2.88339 19.29435,-11.20921 24.25015,-20.92004 3.64415,-7.23965 4.4338,-15.73161 2.764,-23.62301 -2.27082,-11.49391 -10.07436,-21.69245 -20.45418,-27.07296 z m 6.26485,28.63085 c 1.79481,7.47663 0.10199,15.86355 -4.96824,21.7232 -5.5684,6.8136 -15.12542,10.02739 -23.68772,8.09473 -3.19639,-0.66857 -6.20122,-2.06917 -8.89812,-3.87389 -0.66805,-0.34536 -1.49758,-1.26757 -2.21545,-0.45224 -1.36024,1.17266 -2.27,2.85069 -3.94233,3.62984 -1.40552,-1.35332 -0.61323,-3.3778 -0.63759,-5.06541 0.32488,-3.44309 -2.3035,-6.54054 -5.45094,-7.57651 -3.96746,-1.48752 -8.39552,-0.008 -11.63721,2.42537 -4.15707,3.02417 -7.45369,8.01825 -6.93432,13.32987 0.29793,4.14177 3.99284,7.87882 8.21073,7.80434 1.59952,-0.0834 3.64242,-0.9678 4.90029,0.47514 -0.82706,1.99423 -2.80388,3.0233 -4.2618,4.46873 3.03011,4.31076 5.46715,9.28337 5.44124,14.67032 0.80636,11.84334 -8.50105,23.32739 -20.28771,24.88118 -6.97348,1.04585 -14.47007,-0.72774 -19.85292,-5.3832 -4.72822,-3.83311 -7.68352,-9.61433 -8.44652,-15.60885 -0.97589,-8.24762 2.40683,-16.96231 8.9567,-22.14576 4.50993,-3.72075 10.44498,-5.13753 16.1861,-5.31819 -0.39086,-5.81059 -0.703,-11.63115 -1.08455,-17.44233 -5.67984,0.59171 -11.93136,0.14525 -16.54899,-3.57417 -7.91622,-6.45753 -9.01239,-19.71332 -2.05402,-27.27256 4.7853,-5.26119 12.78331,-7.0737 19.43705,-4.67202 5.67917,1.87689 10.42569,6.64205 11.88805,12.49453 0.92044,3.16505 0.72922,6.51494 0.17398,9.73145 5.79963,0.92592 11.70886,0.81293 17.53931,1.51259 0.29681,-5.98912 2.09202,-12.03594 5.88869,-16.75232 7.4188,-9.52308 22.42055,-11.2123 32.21714,-4.48907 5.0034,3.2959 8.66953,8.56099 10.06915,14.38523 z"
       id="path1"
       style="fill:#382d72;stroke-width:1" /></g></svg>
