<?xml version="1.0" encoding="UTF-8" standalone="no"?>
<!-- Created with Inkscape (http://www.inkscape.org/) -->

<svg
   version="1.1"
   id="svg132"
   width="1200"
   height="630"
   viewBox="0 0 1200 630"
   sodipodi:docname="configure-vrrp-networkd.svg"
   inkscape:version="1.3.2 (091e20e, 2023-11-25, custom)"
   xml:space="preserve"
   xmlns:inkscape="http://www.inkscape.org/namespaces/inkscape"
   xmlns:sodipodi="http://sodipodi.sourceforge.net/DTD/sodipodi-0.dtd"
   xmlns="http://www.w3.org/2000/svg"
   xmlns:svg="http://www.w3.org/2000/svg"><defs
     id="defs136"><style
       id="style368">.cls-1{fill:#1d1d1b;}.cls-2{fill:#e9500e;}.cls-3{fill:#fff;}</style></defs><sodipodi:namedview
     id="namedview134"
     pagecolor="#ffffff"
     bordercolor="#000000"
     borderopacity="0.25"
     inkscape:showpageshadow="2"
     inkscape:pageopacity="0.0"
     inkscape:pagecheckerboard="0"
     inkscape:deskcolor="#d1d1d1"
     showgrid="false"
     inkscape:zoom="0.65435437"
     inkscape:cx="359.89673"
     inkscape:cy="130.66315"
     inkscape:window-width="2560"
     inkscape:window-height="1009"
     inkscape:window-x="-8"
     inkscape:window-y="-8"
     inkscape:window-maximized="1"
     inkscape:current-layer="g138" /><g
     inkscape:groupmode="layer"
     inkscape:label="Image"
     id="g138"><path
       d="m 99.93941,163.81889 v 302.36222 h 116.29317 v -46.51727 h -69.7759 V 210.33615 h 69.7759 v -46.51726 z m 883.82803,0 v 46.51726 h 69.77586 v 209.32769 h -69.77586 v 46.51727 H 1100.0606 V 163.81889 Z"
       style="line-height:normal;font-variant-ligatures:normal;font-variant-position:normal;font-variant-caps:normal;font-variant-numeric:normal;font-variant-alternates:normal;font-feature-settings:normal;text-indent:0;text-align:start;text-decoration-line:none;text-decoration-style:solid;text-decoration-color:#000000;text-transform:none;text-orientation:mixed;white-space:normal;shape-padding:0;isolation:auto;mix-blend-mode:normal;solid-color:#000000;solid-opacity:1;stroke-width:7.75288"
       color="#000000"
       font-weight="400"
       font-family="sans-serif"
       overflow="visible"
       fill="#201a26"
       id="path2" /><path
       d="M 623.25864,314.99999 832.58634,198.70684 V 431.29316 Z"
       fill="#30d475"
       id="path3"
       style="stroke-width:7.75288" /><g
       transform="matrix(0.17871543,0,0,-0.17871543,266.42761,503.98434)"
       id="g12"><path
         id="path14"
         style="fill:#f36f16;fill-opacity:1;fill-rule:nonzero;stroke:none"
         d="m 260.984,905.711 c 0,-431.5 345.223,-786.52 788.866,-832.2696 V 363.898 c -274.799,44.071 -483.912,269.543 -484.475,541.813 0.563,272.249 209.676,497.819 484.475,541.849 v 290.5 C 606.207,1692.18 261.063,1337.24 260.984,905.711" /><path
         id="path16"
         style="fill:#f36f16;fill-opacity:1;fill-rule:nonzero;stroke:none"
         d="m 709.863,908.891 c 0,-197.121 146.297,-362.243 343.647,-408.469 V 1317.36 C 856.16,1271.14 709.863,1106.06 709.863,908.891" /><path
         id="path18"
         style="fill:#f36f16;fill-opacity:1;fill-rule:nonzero;stroke:none"
         d="m 748.035,2114.83 1.395,-202.42 C 349.336,1773.27 53.4609,1430.82 2.73828,1017.01 L 0,994.961 h 133.66 l 2.309,17.319 c 60.746,449.24 447.246,801.35 928.931,838.53 l 19.35,1.55 -336.215,262.47" /><path
         id="path20"
         style="fill:#393536;fill-opacity:1;fill-rule:nonzero;stroke:none"
         d="m 1395.52,1123.39 c 0,-51.43 -41.66,-93.14 -93.14,-93.14 -51.42,0 -93.17,41.71 -93.17,93.14 0,51.46 41.75,93.19 93.17,93.19 51.48,0 93.14,-41.73 93.14,-93.19" /><path
         id="path22"
         style="fill:#f36f16;fill-opacity:1;fill-rule:nonzero;stroke:none"
         d="m 1529.56,476.52 49.41,-72.372 c 118.33,73.59 206.07,171.122 264.08,280.274 l -90.08,18.258 C 1701.77,615.23 1627.9,537.191 1529.56,476.52 Z m 338.86,848.67 h -95.9 c 44.87,-92.73 68.09,-194.02 68.42,-295.5 0,-11.12 -0.48,-22.22 -1.06,-33.311 l 80.2,-75.578 c 5.3,36.097 8.22,72.5 8.14,108.889 0.34,100.55 -20.33,201.15 -59.8,295.5" /><path
         id="path24"
         style="fill:#f36f16;fill-opacity:1;fill-rule:nonzero;stroke:none"
         d="m 1663.19,790.07 378.12,-76.73 -321,302.64 c 0.23,6.25 0.73,12.42 0.73,18.71 0,284.04 -218.31,520.69 -508.02,574.72 v -127.07 c 215.24,-51.78 373.82,-232.3 374.38,-447.49 -0.56,-215.42 -159.14,-395.901 -374.38,-447.709 V 460.012 C 1214.79,460.289 1537.38,0 1537.38,0 h 164.55 l -353.76,500.422 c 139.05,58.219 251.25,161.488 315.02,289.648" /></g></g></svg>
