<?xml version="1.0" encoding="UTF-8" standalone="no"?>
<!-- Created with Inkscape (http://www.inkscape.org/) -->

<svg
   version="1.1"
   id="svg132"
   width="1200"
   height="630"
   viewBox="0 0 1200 630"
   sodipodi:docname="configure-lxd-on-ubuntu.svg"
   inkscape:version="1.2.2 (732a01da63, 2022-12-09)"
   xml:space="preserve"
   xmlns:inkscape="http://www.inkscape.org/namespaces/inkscape"
   xmlns:sodipodi="http://sodipodi.sourceforge.net/DTD/sodipodi-0.dtd"
   xmlns="http://www.w3.org/2000/svg"
   xmlns:svg="http://www.w3.org/2000/svg"><defs
     id="defs136"><style
       id="style368">.cls-1{fill:#1d1d1b;}.cls-2{fill:#e9500e;}.cls-3{fill:#fff;}</style></defs><sodipodi:namedview
     id="namedview134"
     pagecolor="#ffffff"
     bordercolor="#000000"
     borderopacity="0.25"
     inkscape:showpageshadow="2"
     inkscape:pageopacity="0.0"
     inkscape:pagecheckerboard="0"
     inkscape:deskcolor="#d1d1d1"
     showgrid="false"
     inkscape:zoom="0.65435437"
     inkscape:cx="358.36851"
     inkscape:cy="129.89903"
     inkscape:window-width="3440"
     inkscape:window-height="1369"
     inkscape:window-x="-8"
     inkscape:window-y="-8"
     inkscape:window-maximized="1"
     inkscape:current-layer="g138" /><g
     inkscape:groupmode="layer"
     inkscape:label="Image"
     id="g138"><g
       id="g705"
       transform="matrix(1.0490719,1.3339645e-8,-1.3339645e-8,1.0490719,118.34613,-18.048028)"><rect
         class="cls-2"
         width="233.93118"
         height="360.27347"
         id="rect384"
         x="95.978767"
         y="137.33247" /><circle
         class="cls-3"
         cx="146.99988"
         cy="375.12964"
         r="24.5497"
         id="circle386" /><circle
         class="cls-3"
         cx="249.24023"
         cy="321.29871"
         r="24.5497"
         id="circle388" /><path
         class="cls-3"
         d="m 202.368,438.31075 a 59.78848,59.78848 0 0 1 -40.772,-31.0957 35.34018,35.34018 0 0 1 -20.9902,2.58008 79.92109,79.92109 0 0 0 57.5395,48.22363 80.88379,80.88379 0 0 0 17.4326,1.79395 35.1274,35.1274 0 0 1 -7.1879,-20.52539 c -2.022,-0.22461 -4.0415,-0.55274 -6.022,-0.97657 z"
         id="path390" /><circle
         class="cls-3"
         cx="243.70935"
         cy="438.44617"
         r="24.5497"
         id="circle392" /><path
         class="cls-3"
         d="m 277.8714,429.42892 a 80.3186,80.3186 0 0 0 4.0249,-94.23828 35.38432,35.38432 0 0 1 -13.8051,16.168 60.18666,60.18666 0 0 1 -1.9673,59.78028 35.20475,35.20475 0 0 1 11.7475,18.29 z"
         id="path394" /><path
         class="cls-3"
         d="m 145.1058,339.92306 q 0.9346,-0.0513 1.8701,-0.0508 a 35.42979,35.42979 0 0 1 18.6177,5.30175 59.87445,59.87445 0 0 1 48.2109,-25.78418 35.5969,35.5969 0 0 1 7.4478,-19.90966 80.69546,80.69546 0 0 0 -76.1465,40.44287 z"
         id="path396" /></g><g
       stroke="#ffffff"
       stroke-width="1.5"
       id="g505"
       transform="matrix(1.2989428,0,0,1.2989428,561.98966,107.87664)"><g
         transform="matrix(0.8660254,0.5,0,1.1547005,0,0)"
         id="g497"><rect
           x="110"
           y="-72"
           width="175"
           height="75"
           fill="#333333"
           transform="skewX(-50)"
           id="rect475" /><rect
           x="110"
           y="3"
           width="87.5"
           height="75"
           fill="#cdcdcd"
           transform="skewX(-50)"
           id="rect477" /><rect
           x="16.5"
           y="78.900002"
           width="87.5"
           height="25"
           fill="#cdcdcd"
           id="rect479" /><rect
           x="16.5"
           y="104.5"
           width="175"
           height="25"
           fill="#888888"
           id="rect481" /><rect
           x="16.5"
           y="130"
           width="175"
           height="50"
           fill="#dd4814"
           id="rect483" /><rect
           x="104"
           y="166"
           width="89.5"
           height="25"
           fill="#cdcdcd"
           transform="skewY(-40)"
           id="rect485" /><rect
           x="228.3"
           y="29.5"
           width="87.5"
           height="75"
           fill="#888888"
           transform="skewX(-50)"
           id="rect487" /><rect
           x="191.8"
           y="266"
           width="89.5"
           height="25"
           fill="#888888"
           transform="skewY(-40)"
           id="rect489" /><rect
           x="192"
           y="291"
           width="179.5"
           height="50"
           fill="#dd4814"
           transform="skewY(-40)"
           id="rect491" /><rect
           x="282.29999"
           y="240"
           width="89.099998"
           height="50"
           fill="#333333"
           transform="skewY(-40)"
           id="rect493" /><rect
           x="194"
           y="3.7"
           width="87.5"
           height="25"
           fill="#333333"
           id="rect495" /></g><line
         x1="93"
         y1="57"
         x2="93"
         y2="88"
         id="line499" /><line
         x1="169"
         y1="131"
         x2="92"
         y2="88"
         id="line501" /><line
         x1="92"
         y1="88"
         x2="14"
         y2="128"
         id="line503" /></g></g></svg>
