<?xml version="1.0" encoding="UTF-8" standalone="no"?>
<!-- Created with Inkscape (http://www.inkscape.org/) -->

<svg
   width="1200"
   height="630"
   viewBox="0 0 317.5 166.6875"
   version="1.1"
   id="svg5"
   xml:space="preserve"
   inkscape:version="1.2.2 (732a01da63, 2022-12-09)"
   sodipodi:docname="crowdsec-haproxy.svg"
   inkscape:export-filename="..\Output\crowdsec-haproxy.png"
   inkscape:export-xdpi="96"
   inkscape:export-ydpi="96"
   xmlns:inkscape="http://www.inkscape.org/namespaces/inkscape"
   xmlns:sodipodi="http://sodipodi.sourceforge.net/DTD/sodipodi-0.dtd"
   xmlns:xlink="http://www.w3.org/1999/xlink"
   xmlns="http://www.w3.org/2000/svg"
   xmlns:svg="http://www.w3.org/2000/svg"><sodipodi:namedview
     id="namedview7"
     pagecolor="#ffffff"
     bordercolor="#000000"
     borderopacity="0.25"
     inkscape:showpageshadow="2"
     inkscape:pageopacity="0.0"
     inkscape:pagecheckerboard="0"
     inkscape:deskcolor="#d1d1d1"
     inkscape:document-units="mm"
     showgrid="false"
     inkscape:zoom="0.457453"
     inkscape:cx="-366.15783"
     inkscape:cy="437.20338"
     inkscape:window-width="3440"
     inkscape:window-height="1369"
     inkscape:window-x="-8"
     inkscape:window-y="-8"
     inkscape:window-maximized="1"
     inkscape:current-layer="layer1" /><defs
     id="defs2"><path
       id="B"
       d="m 11.2,9.013 0.013,-1.88 1.916,0.013 -0.013,1.88 z" /></defs><g
     inkscape:label="Layer 1"
     inkscape:groupmode="layer"
     id="layer1"><g
       style="fill:none"
       id="g619"
       transform="matrix(0.95238197,0,0,0.95238197,45.260787,33.343643)"><path
         d="m 38.65,97.993 c 12.848,0 23.377,-20.732 25.97,-46.15 1.456,-0.02 2.848,-0.638 3.881,-1.72 a 6.093,6.093 0 0 0 1.659,-4.084 h 0.196 c 0.778,0.05 1.55,-0.172 2.195,-0.632 a 3.717,3.717 0 0 0 1.376,-1.913 3.928,3.928 0 0 0 -0.013,-2.401 3.71,3.71 0 0 0 -1.397,-1.896 5.743,5.743 0 0 0 2.62,-2.53 6.208,6.208 0 0 0 0.658,-3.684 6.06,6.06 0 0 0 -1.567,-3.364 5.52,5.52 0 0 0 -3.164,-1.7 3.845,3.845 0 0 0 0.745,-1.904 3.914,3.914 0 0 0 -0.325,-2.031 3.672,3.672 0 0 0 -1.297,-1.54 3.402,3.402 0 0 0 -1.874,-0.579 c 0.983,-0.456 1.808,-1.244 2.358,-2.073 1.296,-2.198 1.492,-12.024 -3.183,-18.41 -1.964,-2.612 -3.85,-1.036 -3.929,0.747 -0.392,5.473 -0.432,9.536 -1.768,14.222 a 3.82,3.82 0 0 0 -0.878,-1.927 3.507,3.507 0 0 0 -1.736,-1.101 3.36,3.36 0 0 0 -2.024,0.084 3.547,3.547 0 0 0 -1.648,1.244 6.04,6.04 0 0 0 -1.848,-3.734 5.453,5.453 0 0 0 -3.73,-1.496 5.453,5.453 0 0 0 -3.731,1.496 6.041,6.041 0 0 0 -1.849,3.734 3.547,3.547 0 0 0 -1.647,-1.244 3.36,3.36 0 0 0 -2.025,-0.085 3.508,3.508 0 0 0 -1.735,1.102 3.821,3.821 0 0 0 -0.879,1.927 C 36.725,11.707 36.686,7.601 36.333,2.129 36.215,0.346 34.29,-1.189 32.403,1.382 c -4.714,6.344 -4.517,16.171 -3.181,18.369 0.51,0.912 1.335,1.658 2.278,2.114 a 3.401,3.401 0 0 0 -1.873,0.579 c -0.561,0.375 -1.01,0.908 -1.297,1.54 a 3.914,3.914 0 0 0 -0.326,2.031 c 0.075,0.696 0.333,1.356 0.746,1.904 A 5.523,5.523 0 0 0 25.597,29.633 6.064,6.064 0 0 0 24.045,33 c -0.159,1.27 0.075,2.559 0.669,3.676 a 5.742,5.742 0 0 0 2.622,2.521 3.71,3.71 0 0 0 -1.397,1.896 3.927,3.927 0 0 0 -0.013,2.4 c 0.246,0.781 0.73,1.453 1.375,1.914 a 3.4,3.4 0 0 0 2.196,0.632 h 0.196 a 6.171,6.171 0 0 0 1.708,4.089 c 1.046,1.08 2.446,1.695 3.91,1.716 -1.571,7.131 -3.929,27.49 -5.893,46.107 0.118,-1.036 0.393,-2.073 0.471,-3.151 2.75,2.073 5.658,3.193 8.762,3.193"
         fill="#4e4a99"
         id="path562" /><path
         d="m 50.005,103.176 c 7.19,0 14.144,0.124 20.783,0.331 L 70.238,98.283 68.117,77.012 C 66.86,65.9 65.603,56.28 64.62,51.843 c -2.593,25.418 -13.122,46.15 -25.93,46.15 -3.143,0 -6.011,-1.12 -8.8,-3.193 l -0.472,3.151 -0.51,5.598 c 6.757,-0.249 13.829,-0.373 21.097,-0.373"
         fill="#3e3a78"
         id="path564" /><path
         d="m 28.278,47.614 a 5.05,5.05 0 0 1 -2.75,-1.658 c -0.707,0.165 -1.414,0.414 -2.121,0.663 a 6.129,6.129 0 0 1 -4.597,0 16.294,16.294 0 0 0 -5.579,-1.078 c -2.593,0 -5.186,0.207 -7.74,1.037 v 2.612 c 0,0.207 0.197,0.415 0.315,0.58 0.235,0.456 0.589,0.912 0.746,1.41 0.393,1.12 0.629,2.322 1.021,3.442 0.393,1.243 1.297,2.073 2.554,2.239 1.443,0.23 2.902,0.341 4.361,0.331 0.943,-0.041 1.768,-0.248 2.475,-0.663 0.393,-1.866 0.943,-3.649 1.768,-5.39 1.14,-2.405 2.947,-2.488 4.204,0 0.786,1.617 1.257,3.275 1.69,4.975 0.392,0.332 0.942,0.622 1.493,0.747 2.217,0.563 4.536,0.491 6.718,-0.208 l 0.59,-3.4 a 7.127,7.127 0 0 1 -3.294,-2.074 7.726,7.726 0 0 1 -1.814,-3.565"
         fill="#4e4a99"
         id="path566" /><path
         d="m 21.52,60.55 c 0.04,1.12 0,2.281 -0.078,3.4 -0.118,1.37 -0.157,2.696 -0.393,3.981 -0.118,0.913 -0.353,0.954 -0.471,0 -0.236,-1.243 -0.275,-2.612 -0.393,-3.98 -0.079,-1.12 -0.118,-2.28 -0.079,-3.4 -1.414,-0.415 -2.514,-1.907 -2.868,-3.815 a 6.841,6.841 0 0 0 3.576,0.995 c 1.335,0 2.593,-0.414 3.575,-0.995 -0.314,1.908 -1.454,3.4 -2.829,3.815 h -0.04 z m 5.108,6.179 a 31.187,31.187 0 0 0 -0.785,-4.976 c -0.472,-1.907 -0.786,-3.814 -1.218,-5.68 -0.393,-1.659 -0.904,-3.317 -1.69,-4.934 -1.257,-2.488 -3.064,-2.405 -4.204,0 a 26.16,26.16 0 0 0 -1.768,5.39 l -1.178,5.224 c -0.393,1.659 -0.629,3.317 -0.786,4.976 -0.157,2.612 1.454,4.81 3.457,4.81 h 4.715 c 2.043,0 3.654,-2.198 3.457,-4.81 z"
         fill="#ffffff"
         id="path568" /><path
         d="m 17.239,56.736 c 0.353,1.908 1.453,3.4 2.868,3.815 0,1.12 0,2.28 0.078,3.4 0.118,1.368 0.158,2.736 0.393,3.98 0.118,0.954 0.393,0.913 0.511,0 0.197,-1.243 0.236,-2.612 0.393,-3.98 l 0.079,-3.4 c 1.375,-0.415 2.514,-1.907 2.828,-3.815 a 6.712,6.712 0 0 1 -3.536,0.995 c -1.375,0 -2.593,-0.414 -3.614,-0.995 z"
         fill="#f3921a"
         id="path570" /><path
         d="m 71.574,47.614 a 7.765,7.765 0 0 1 -1.811,3.528 7.17,7.17 0 0 1 -3.257,2.07 l 0.51,3.068 c 0.393,0.29 0.904,0.54 1.454,0.58 1.456,0.234 2.928,0.345 4.4,0.332 0.944,-0.041 1.768,-0.248 2.436,-0.663 0.433,-1.825 0.943,-3.649 1.768,-5.39 1.18,-2.405 2.986,-2.488 4.204,0 0.786,1.617 1.297,3.275 1.69,4.975 0.432,0.332 0.943,0.622 1.571,0.747 1.886,0.539 3.811,0.539 5.776,0.083 1.414,-0.332 2.357,-1.12 2.789,-2.53 l 0.904,-3.151 c 0.157,-0.622 0.196,-1.244 0.864,-1.534 0.118,-0.042 0.197,-0.373 0.197,-0.54 v -2.736 c -1.572,-0.29 -3.144,-0.622 -4.676,-0.788 -2.907,-0.29 -5.814,-0.165 -8.643,0.954 a 6.128,6.128 0 0 1 -4.558,0 21.506,21.506 0 0 0 -2.79,-0.788 5.065,5.065 0 0 1 -2.828,1.783"
         fill="#4e4a99"
         id="path572" /><path
         d="m 79.903,60.55 c 0,1.12 0,2.281 -0.078,3.4 -0.118,1.37 -0.157,2.696 -0.393,3.981 -0.118,0.913 -0.354,0.954 -0.51,0 -0.197,-1.243 -0.237,-2.612 -0.355,-3.98 a 49.188,49.188 0 0 1 -0.117,-3.4 c -1.375,-0.415 -2.515,-1.907 -2.83,-3.815 0.983,0.622 2.24,0.995 3.537,0.995 1.375,0 2.593,-0.414 3.614,-0.995 -0.314,1.908 -1.453,3.4 -2.868,3.815 z m 5.108,6.179 c -0.157,-1.659 -0.393,-3.317 -0.786,-4.976 -0.471,-1.907 -0.786,-3.814 -1.257,-5.68 -0.393,-1.659 -0.904,-3.317 -1.69,-4.934 -1.218,-2.488 -3.064,-2.405 -4.203,0 a 26.16,26.16 0 0 0 -1.768,5.39 c -0.393,1.7 -0.708,3.483 -1.14,5.224 -0.393,1.659 -0.628,3.317 -0.785,4.976 -0.197,2.612 1.414,4.81 3.457,4.81 h 4.714 c 2.043,0 3.615,-2.198 3.419,-4.81"
         fill="#ffffff"
         id="path574" /><path
         d="m 75.621,56.736 c 0.314,1.908 1.454,3.4 2.829,3.815 0,1.12 0,2.28 0.118,3.4 0.118,1.368 0.157,2.736 0.393,3.98 0.118,0.954 0.353,0.913 0.51,0 0.197,-1.243 0.236,-2.612 0.354,-3.98 0.078,-1.12 0.118,-2.28 0.078,-3.4 1.415,-0.415 2.554,-1.907 2.869,-3.815 a 6.711,6.711 0 0 1 -3.576,0.995 c -1.335,0 -2.593,-0.414 -3.575,-0.995 z"
         fill="#f3921a"
         id="path576" /><path
         d="m 30.832,30.738 a 28.759,28.759 0 0 1 9.626,-1.243 c 2.397,0 4.715,0.414 6.994,1.326 1.846,0.705 3.81,0.747 5.657,0 3.536,-1.41 7.15,-1.575 10.804,-1.244 1.965,0.208 3.85,0.664 5.815,0.996 v 3.4 c 0,0.248 -0.118,0.622 -0.275,0.705 -0.786,0.373 -0.864,1.12 -1.06,1.865 -0.355,1.327 -0.708,2.654 -1.14,3.94 a 4.595,4.595 0 0 1 -1.294,2.12 4.228,4.228 0 0 1 -2.164,1.072 15.137,15.137 0 0 1 -7.229,-0.083 c -1.335,-0.373 -2.357,-1.12 -2.986,-2.488 -0.746,-1.575 -1.453,-3.234 -2.278,-4.81 -0.197,-0.414 -0.708,-0.829 -1.061,-0.87 -0.314,0 -0.786,0.456 -0.982,0.83 -0.59,1.16 -1.179,2.321 -1.572,3.565 a 6.037,6.037 0 0 1 -2.157,3.056 5.524,5.524 0 0 1 -3.461,1.09 c -1.847,0.042 -3.693,-0.124 -5.5,-0.414 C 34.997,43.385 33.936,42.307 33.425,40.773 32.915,39.363 32.64,37.87 32.129,36.46 31.933,35.839 31.5,35.3 31.186,34.719 31.029,34.47 30.872,34.221 30.832,33.973 v -3.235"
         fill="#f8ab14"
         id="path578" /><path
         d="m 56.173,49.646 c -1.06,-4.52 -1.572,-9.04 -3.614,-13.227 -1.572,-3.11 -3.811,-2.985 -5.265,0 -1.965,4.23 -2.554,8.707 -3.615,13.268 a 36.737,36.737 0 0 0 -0.982,6.178 c -0.236,3.235 1.768,6.013 4.282,6.013 h 5.894 c 2.514,0 4.518,-2.778 4.282,-6.013 a 37.914,37.914 0 0 0 -0.982,-6.22 z"
         fill="#ffffff"
         id="path580" /><path
         d="m 54.366,43.385 c -1.218,0.788 -2.75,1.244 -4.44,1.244 -1.689,0 -3.221,-0.456 -4.44,-1.244 0.394,2.405 1.769,4.27 3.537,4.768 0,1.41 0,2.82 0.118,4.23 0.157,1.658 0.196,3.4 0.471,4.975 0.197,1.203 0.471,1.12 0.629,0 0.275,-1.575 0.314,-3.317 0.471,-4.975 0.118,-1.41 0.118,-2.82 0.118,-4.23 1.768,-0.497 3.143,-2.363 3.536,-4.768 z"
         fill="#4e4a99"
         id="path582" /><path
         d="m 11.777,100.522 c 7.858,0 14.655,-9.703 18.348,-23.344 0.864,-7.464 1.847,-15.051 2.75,-20.525 l -0.943,0.29 c -1.964,0.415 -3.85,0.415 -5.775,-0.082 -0.59,-0.125 -1.1,-0.415 -1.572,-0.788 0.472,1.866 0.786,3.773 1.258,5.68 0.392,1.659 0.668,3.317 0.785,4.976 0.197,2.612 -1.414,4.81 -3.418,4.81 h -4.754 c -2.003,0 -3.614,-2.198 -3.418,-4.81 0.118,-1.659 0.393,-3.317 0.786,-4.976 0.393,-1.741 0.707,-3.524 1.14,-5.224 -0.708,0.414 -1.533,0.622 -2.476,0.663 -1.46,0.01 -2.918,-0.1 -4.36,-0.331 A 2.947,2.947 0 0 1 8.533,56.144 3.209,3.209 0 0 1 7.573,54.621 C 7.181,53.502 6.945,52.3 6.553,51.181 6.395,50.683 6.041,50.226 5.766,49.771 5.688,49.563 5.531,49.356 5.531,49.19 v -2.612 c 2.514,-0.83 5.107,-1.079 7.7,-1.037 1.925,0.042 3.772,0.415 5.579,1.078 1.532,0.58 3.104,0.622 4.597,0 0.707,-0.29 1.414,-0.498 2.16,-0.663 a 5.531,5.531 0 0 1 -1.327,-3.103 5.634,5.634 0 0 1 0.699,-3.324 7.686,7.686 0 0 1 -2.374,-4.287 7.963,7.963 0 0 1 0.645,-4.918 4.314,4.314 0 0 0 -4.274,-0.261 4.577,4.577 0 0 0 -1.713,1.469 4.913,4.913 0 0 0 -0.849,2.15 2.843,2.843 0 0 0 -1.333,-1.028 2.688,2.688 0 0 0 -1.65,-0.067 2.81,2.81 0 0 0 -1.405,0.917 c -0.371,0.446 -0.608,1 -0.68,1.588 -1.06,-3.732 -1.1,-7.049 -1.375,-11.402 -0.118,-1.452 -1.65,-2.696 -3.182,-0.622 -3.772,5.1 -3.615,13.02 -2.554,14.76 0.432,0.706 1.1,1.286 1.846,1.66 a 2.721,2.721 0 0 0 -1.503,0.461 c -0.45,0.3 -0.81,0.728 -1.04,1.235 a 3.132,3.132 0 0 0 -0.259,1.63 c 0.06,0.557 0.27,1.086 0.602,1.525 a 4.44,4.44 0 0 0 -2.547,1.374 4.876,4.876 0 0 0 -1.255,2.714 4.992,4.992 0 0 0 0.542,2.965 c 0.48,0.9 1.224,1.612 2.12,2.027 -0.524,0.363 -0.92,0.9 -1.123,1.527 a 3.142,3.142 0 0 0 -0.003,1.933 2.97,2.97 0 0 0 1.121,1.53 2.716,2.716 0 0 0 1.774,0.483 h 0.118 c 0,0.25 0,0.456 0.078,0.705 0.354,2.24 2.2,3.94 4.44,3.94 -1.257,5.721 -3.143,22.058 -4.715,37.026 0.079,-0.829 0.275,-1.7 0.393,-2.57 2.2,1.658 4.518,2.57 6.993,2.57"
         fill="#f8ab14"
         id="path584" /><path
         d="m 27.886,97.785 c 0.471,-4.81 1.296,-12.646 2.239,-20.607 -3.693,13.683 -10.45,23.344 -18.348,23.344 -2.475,0 -4.793,-0.912 -7.032,-2.57 -0.079,0.828 -0.275,1.7 -0.393,2.57 L 3.959,105 c 7.111,-0.622 14.969,-1.078 23.377,-1.41 0.157,-1.907 0.314,-3.856 0.55,-5.805"
         fill="#f3921a"
         id="path586" /><path
         d="m 90.983,63.495 a 4.404,4.404 0 0 0 3.103,-1.381 4.898,4.898 0 0 0 1.336,-3.263 h 0.157 a 2.72,2.72 0 0 0 1.756,-0.506 2.973,2.973 0 0 0 1.1,-1.53 c 0.198,-0.624 0.194,-1.3 -0.01,-1.92 a 2.968,2.968 0 0 0 -1.117,-1.517 4.616,4.616 0 0 0 2.118,-2.037 4.994,4.994 0 0 0 0.532,-2.972 4.873,4.873 0 0 0 -1.27,-2.712 4.436,4.436 0 0 0 -2.559,-1.36 c 0.32,-0.436 0.518,-0.957 0.574,-1.505 a 3.133,3.133 0 0 0 -0.256,-1.6 2.943,2.943 0 0 0 -1.011,-1.221 2.726,2.726 0 0 0 -1.468,-0.484 4.718,4.718 0 0 0 1.847,-1.7 c 1.06,-1.741 1.218,-9.66 -2.554,-14.76 -1.571,-2.074 -3.064,-0.83 -3.143,0.621 -0.314,4.354 -0.353,7.671 -1.414,11.403 a 3.056,3.056 0 0 0 -0.7,-1.544 2.807,2.807 0 0 0 -1.389,-0.885 2.688,2.688 0 0 0 -1.62,0.066 2.838,2.838 0 0 0 -1.32,0.994 4.911,4.911 0 0 0 -0.87,-2.198 4.568,4.568 0 0 0 -1.77,-1.479 4.309,4.309 0 0 0 -4.353,0.402 8.01,8.01 0 0 1 0.587,4.878 7.727,7.727 0 0 1 -2.355,4.244 c 0.555,0.973 0.804,2.107 0.712,3.238 a 5.548,5.548 0 0 1 -1.223,3.064 c 0.943,0.208 1.886,0.415 2.79,0.83 1.532,0.539 3.064,0.58 4.557,0 2.829,-1.161 5.736,-1.244 8.643,-0.996 1.572,0.166 3.104,0.498 4.715,0.788 l -0.04,2.737 c 0,0.166 -0.078,0.497 -0.196,0.539 -0.668,0.29 -0.707,0.912 -0.864,1.492 a 54.879,54.879 0 0 1 -0.904,3.193 3.673,3.673 0 0 1 -1.033,1.679 3.38,3.38 0 0 1 -1.717,0.85 c -1.965,0.415 -3.929,0.415 -5.854,-0.082 -0.59,-0.125 -1.1,-0.415 -1.532,-0.788 0.471,1.866 0.785,3.773 1.257,5.68 0.393,1.659 0.629,3.317 0.786,4.976 0.157,2.612 -1.415,4.81 -3.458,4.81 H 76.84 c -2.043,0 -3.654,-2.198 -3.458,-4.81 0.157,-1.659 0.393,-3.317 0.786,-4.976 0.393,-1.741 0.747,-3.524 1.179,-5.224 -0.708,0.414 -1.572,0.622 -2.475,0.663 a 26.457,26.457 0 0 1 -4.4,-0.331 c -0.55,-0.042 -1.022,-0.29 -1.454,-0.58 1.218,7.628 2.79,21.229 4.91,41.836 l 0.236,2.198 c 9.39,-1.99 16.894,-17.747 18.859,-36.82"
         fill="#f8ab14"
         id="path588" /><path
         d="M 95.5,100.771 93.772,83.688 a 264.768,264.768 0 0 0 -2.75,-20.193 c -1.965,19.073 -9.469,34.83 -18.858,36.82 l 0.314,3.275 c 7.828,0.277 15.648,0.747 23.455,1.41 l -0.432,-4.229 z"
         fill="#f3921a"
         id="path590" /><path
         d="m 70.788,103.507 h 0.118 C 70.012,94.657 69.082,85.812 68.116,76.97 l 2.122,21.313 0.55,5.224"
         fill="#4e4a99"
         id="path592" /><path
         d="m 64.62,51.843 c 0.982,4.437 2.24,14.057 3.497,25.169 A 248.782,248.782 0 0 0 64.62,51.843 Z m -35.202,46.108 -0.55,5.598 z"
         fill="#3e3a78"
         id="path594" /></g><g
       id="g1016"
       transform="matrix(1.4977477,0,0,1.4977477,176.69087,35.415823)"><g
         fill="none"
         class="H"
         id="g858"><g
           stroke="#284a6a"
           id="g818"><path
             d="m 31.973,23.69 -6.65,-7.518"
             stroke-width="0.26"
             id="path782" /><path
             d="m 11,17.908 5.205,7.6"
             stroke-width="0.13"
             id="path784" /><g
             stroke-width="0.26"
             id="g794"><path
               d="m 31.973,23.7 6.578,-7.6 m 1.374,15.987 7.807,-6.578 m -7.807,6.568 7.807,6.867 m -9.108,8.676 -6.65,-7.373 m -6.65,7.373 6.65,-7.373 m -15.76,-1.592 7.518,-6.578 m -7.517,-6.58 7.518,6.578 m 8.24,-8.386 -15.76,1.807 m 15.76,-1.806 15.76,1.807"
               id="path786" /><path
               d="M 39.925,32.077 38.55,16.1 m 1.375,15.977 -1.3,15.542"
               id="path788" /><path
               d="m 47.732,38.944 -15.76,1.3 m -15.758,-1.59 15.76,1.6"
               id="path790" /><path
               d="m 25.323,47.62 -1.6,-15.542 m 1.6,-15.905 -1.6,15.903"
               id="path792" /></g><g
             stroke-width="0.13"
             id="g816"><path
               d="m 8.985,27.522 7.23,-2.024 m 1.517,-14.746 7.6,5.422 m 1.726,-8.82 -1.735,8.82 M 27.058,7.354 38.55,16.1"
               id="path796" /><path
               d="M 36.816,7.354 38.55,16.1 m 7.592,-5.348 -7.6,5.35 M 52.937,17.908 38.55,16.1 m 9.182,9.398 5.205,-7.6 m -5.205,7.6 7.373,2.024"
               id="path798" /><path
               d="m 47.732,25.498 7.23,10.988 M 36.816,7.354 25.322,16.174"
               id="path800" /><path
               d="m 47.732,25.498 -1.6,-14.747 m 1.6,28.193 7.23,-2.458"
               id="path802" /><path
               d="m 47.732,38.944 7.373,-11.422 m -7.373,11.422 5.205,7.012 m -5.205,-7.012 -1.6,14.168 m -7.508,-5.492 7.518,5.494"
               id="path804" /><path
               d="M 38.624,47.62 52.937,45.957 M 38.624,47.62 36.9,56.5 m 1.724,-8.88 -11.566,8.88 m -1.735,-8.88 1.735,8.9"
               id="path806" /><path
               d="M 25.323,47.62 36.9,56.5 m -11.567,-8.88 -7.6,5.494 M 25.333,47.62 11,46.028 M 16.214,38.655 11,46.028"
               id="path808" /><path
               d="m 16.214,38.655 1.518,14.458 m -1.518,-14.458 -7.3,-2.24 m 7.3,-10.917 -7.3,10.916"
               id="path810" /><path
               d="M 16.214,38.655 8.984,27.523 M 17.732,10.753 16.214,25.5"
               id="path812" /><path
               d="M 11,17.908 25.313,16.173"
               id="path814" /></g></g><g
           stroke="#24405d"
           stroke-width="0.101"
           id="g856"><path
             d="M 17.732,10.752 12.166,8.15 M 17.732,10.752 17.3,4.68 M 27.058,7.354 17.3,4.68"
             id="path820" /><path
             d="M 27.058,7.354 22.865,2.222 M 27.058,7.354 28.792,1.2 m -11.06,9.552 5.132,-8.53 M 36.816,7.354 28.792,1.2"
             id="path822" /><path
             d="M 36.816,7.354 35,0.993 M 27.048,7.353 35,0.993 m 1.816,6.36 4.193,-5.132 m 5.133,8.53 L 41,2.222"
             id="path824" /><path
             d="M 46.142,10.752 46.648,4.68 m -9.832,2.674 9.83,-2.675 m -0.504,6.073 5.7,-2.892 m -5.7,2.892 9.903,1.518"
             id="path826" /><path
             d="M 52.937,17.908 56.045,12.27 M 52.937,17.908 51.852,7.86 m 1.085,10.048 6.506,-0.506 m -6.506,0.506 8.9,5.06"
             id="path828" /><path
             d="m 55.105,27.522 4.337,-10.12 m -4.337,10.12 6.723,-4.554 m -6.723,4.554 7.518,1.518 m -7.663,7.446 7.663,-7.446"
             id="path830" /><path
             d="m 54.96,36.486 7.88,-1.446 m -7.735,-7.518 7.735,7.518 m -7.88,1.446 6.723,4.482 m -8.746,4.988 8.747,-4.988"
             id="path832" /><path
             d="m 52.937,45.956 6.434,0.65 m -4.4,-10.12 4.4,10.12 m -6.424,-0.65 3.036,5.7 m -3.036,-5.7 -1.157,9.976"
             id="path834" /><path
             d="m 51.78,55.932 -5.638,-2.82 m 0,0 0.434,6.3 m -0.434,-6.3 9.83,-1.446 M 46.142,53.112 41,61.787"
             id="path836" /><path
             d="M 36.9,56.5 41,61.777 M 36.9,56.5 46.587,59.392 M 36.9,56.5 35,63.006 m 1.9,-6.506 -8.096,6.506"
             id="path838" /><path
             d="m 27.058,56.5 1.735,6.506 M 27.058,56.5 35,63.006 m -7.942,-6.506 -4.12,5.277 m -5.206,-8.665 5.205,8.675"
             id="path840" /><path
             d="m 27.058,56.5 -9.83,3.036 m 0.504,-6.424 -0.506,6.434 m 0.506,-6.434 -5.638,3.108 M 11,46.028 12.084,56.221"
             id="path842" /><path
             d="M 17.732,53.112 7.83,51.74 m 3.17,-5.712 -3.18,5.7 m 3.18,-5.7 -6.506,0.65 M 11,46.028 2.046,41.04 M 8.913,36.414 2.046,41.04 M 8.913,36.414 1.106,35.04"
             id="path844" /><path
             d="m 8.913,36.414 -4.4,10.265 M 8.985,27.522 1.105,35.04"
             id="path846" /><path
             d="M 8.913,36.414 1.106,29.04 M 8.986,27.522 2.263,23.04"
             id="path848" /><path
             d="M 8.985,27.522 1.105,29.04 M 8.985,27.522 4.503,17.402"
             id="path850" /><path
             d="M 11,17.908 4.494,17.402 M 11,17.908 2.263,23.04 M 11,17.908 7.9,12.56 m 3.1,5.348 1.157,-9.76"
             id="path852" /><path
             d="M 17.732,10.752 7.9,12.56"
             id="path854" /></g></g><path
         d="m 19.862,35.835 0.053,-7.6 7.605,0.053 -0.053,7.6 z m 8.228,-8.372 0.053,-7.6 7.605,0.053 -0.053,7.6 z m -0.002,16.67 0.053,-7.6 7.605,0.053 -0.053,7.6 z m 8.3,-8.37 0.053,-7.6 7.605,0.053 -0.053,7.6 z"
         fill="#256ea5"
         id="path860" /><path
         d="m 35.95,18.744 0.037,-5.277 5.3,0.037 -0.037,5.277 z m -13.25,-0.001 0.037,-5.277 5.3,0.037 L 28,18.78 Z m -9.172,9.4 0.037,-5.277 5.3,0.037 -0.037,5.277 z m -0.006,13.257 0.055,-5.277 5.298,0.055 -0.055,5.277 z m 31.598,-0.1 0.037,-5.277 5.3,0.037 -0.037,5.277 z m 0.107,-13.12 0.055,-5.277 5.298,0.055 -0.055,5.277 z"
         fill="#3378bc"
         id="path862" /><path
         d="m 9.233,19.63 0.024,-3.47 3.463,0.024 -0.024,3.47 z m 6.77,-7.062 0.024,-3.47 3.463,0.024 -0.024,3.47 z m 9.32,-3.493 0.024,-3.47 3.463,0.024 -0.024,3.47 z M 7.194,29.24 l 0.024,-3.47 3.44,0.024 -0.024,3.47 z m 43.993,-13.032 3.47,-0.024 0.024,3.463 -3.47,0.024 z m -6.773,-7.18 3.47,-0.024 0.024,3.463 -3.47,0.024 z m -9.35,-3.406 3.47,-0.024 0.024,3.463 -3.47,0.024 z m 18.14,20.186 3.47,-0.024 0.024,3.463 -3.47,0.024 z"
         fill="#169bd6"
         id="path864" /><path
         d="m 22.627,50.4 0.037,-5.277 5.3,0.037 -0.037,5.277 z m 13.25,0 0.037,-5.277 5.3,0.037 -0.037,5.277 z"
         fill="#3378bc"
         id="path866" /><path
         d="m 51.164,47.73 0.024,-3.47 3.463,0.024 -0.024,3.47 z m -6.698,7.134 0.024,-3.47 3.463,0.024 -0.024,3.47 z m -9.32,3.42 0.024,-3.47 3.463,0.024 -0.024,3.47 z m 18.056,-20.164 0.024,-3.47 3.463,0.024 -0.024,3.47 z m -43.962,6.14 3.47,-0.024 0.024,3.463 -3.47,0.024 z m 6.772,7.108 3.47,-0.024 0.024,3.463 -3.47,0.024 z m 9.276,3.405 3.47,-0.024 0.024,3.463 -3.47,0.024 z M 7.22,34.66 l 3.47,-0.024 0.024,3.463 -3.47,0.024 z"
         fill="#169bd6"
         id="path868" /><g
         fill="#00a8da"
         id="g930"><use
           xlink:href="#B"
           x="47.243999"
           y="9.3190002"
           id="use870" /><use
           xlink:href="#B"
           x="49.717999"
           y="14.997"
           id="use872" /><use
           xlink:href="#B"
           x="43.896"
           y="4.2950001"
           id="use874" /><use
           xlink:href="#B"
           id="use876" /><use
           xlink:href="#B"
           x="-10.993"
           y="20.964001"
           id="use878" /><use
           xlink:href="#B"
           x="39.674"
           y="0.001"
           id="use880" /><use
           xlink:href="#B"
           x="-9.8999996"
           y="14.995"
           id="use882" /><use
           xlink:href="#B"
           x="10.772"
           y="-5.823"
           id="use884" /><use
           xlink:href="#B"
           x="-7.572"
           y="9.3170004"
           id="use886" /><use
           xlink:href="#B"
           x="-4.1500001"
           y="4.223"
           id="use888" /><path
           d="m 16.33,3.73 1.88,-0.013 0.013,1.916 -1.88,0.013 z m 11.612,-3.696 1.88,-0.013 0.013,1.916 -1.88,0.013 z"
           id="path890" /><use
           xlink:href="#B"
           x="34.577"
           y="-3.348"
           id="use892" /><use
           xlink:href="#B"
           x="50.666"
           y="20.893"
           id="use894" /><path
           d="M 34.057,1.88 34.07,0 l 1.916,0.013 -0.013,1.88 z"
           id="path896" /><use
           xlink:href="#B"
           x="28.827"
           y="-5.8959999"
           id="use898" /><use
           xlink:href="#B"
           x="39.672001"
           y="47.900002"
           id="use900" /><use
           xlink:href="#B"
           x="50.666"
           y="26.934999"
           id="use902" /><use
           xlink:href="#B"
           x="-0.0020000001"
           y="47.898998"
           id="use904" /><use
           xlink:href="#B"
           x="49.717999"
           y="32.987"
           id="use906" /><use
           xlink:href="#B"
           x="28.825001"
           y="53.797001"
           id="use908" /><use
           xlink:href="#B"
           x="47.243"
           y="38.654999"
           id="use910" /><use
           xlink:href="#B"
           x="43.895"
           y="43.750999"
           id="use912" /><path
           d="m 45.7,58.534 1.88,-0.013 0.013,1.916 -1.88,0.013 z m -11.542,3.55 1.88,-0.013 0.013,1.916 -1.88,0.013 z"
           id="path914" /><use
           xlink:href="#B"
           x="5.1669998"
           y="51.466999"
           id="use916" /><use
           xlink:href="#B"
           x="-7.645"
           y="38.581001"
           id="use918" /><use
           xlink:href="#B"
           x="-9.9020004"
           y="32.977001"
           id="use920" /><use
           xlink:href="#B"
           x="-4.2249999"
           y="43.749001"
           id="use922" /><use
           xlink:href="#B"
           x="-10.993"
           y="26.934"
           id="use924" /><use
           xlink:href="#B"
           x="16.813999"
           y="54.960999"
           id="use926" /><use
           xlink:href="#B"
           x="10.7"
           y="53.723"
           id="use928" /></g></g></g><style
     id="style780"><![CDATA[.H{stroke-miterlimit:10}]]></style></svg>
