<?xml version="1.0" encoding="UTF-8" standalone="no"?>
<!-- Created with Inkscape (http://www.inkscape.org/) -->

<svg
   version="1.1"
   id="svg132"
   width="1200"
   height="630"
   viewBox="0 0 1200 630"
   sodipodi:docname="incus-oci.svg"
   inkscape:version="1.3.2 (091e20e, 2023-11-25, custom)"
   xml:space="preserve"
   xmlns:inkscape="http://www.inkscape.org/namespaces/inkscape"
   xmlns:sodipodi="http://sodipodi.sourceforge.net/DTD/sodipodi-0.dtd"
   xmlns="http://www.w3.org/2000/svg"
   xmlns:svg="http://www.w3.org/2000/svg"><defs
     id="defs136"><style
       id="style368">.cls-1{fill:#1d1d1b;}.cls-2{fill:#e9500e;}.cls-3{fill:#fff;}</style><clipPath
       id="clipPath8"><path
         d="m 76,2 0,46 -22,0 0,23 -18.419263,0 c -0.07818,0.665694 -0.141485,1.332869 -0.205737,2 -1.151162,12.530963 1.036422,24.087546 6.0625,33.96875 L 43.125,110 c 1.011403,1.81678 2.191241,3.52297 3.4375,5.1875 1.244725,1.66248 1.685716,2.58262 2.46875,3.6875 C 62.319911,133.81083 82.129473,141 105,141 155.64836,141 198.63299,118.56201 217.65625,68.15625 231.15302,69.54122 244.09968,66.080358 250,54.5625 240.60137,49.138835 228.52163,50.877226 221.5625,54.375 L 240,2 168,48 145,48 145,2 z"
         id="path10" /></clipPath><style
       id="style1">.cls-1{fill:#808285;}.cls-2{fill:#262262;}</style></defs><sodipodi:namedview
     id="namedview134"
     pagecolor="#ffffff"
     bordercolor="#000000"
     borderopacity="0.25"
     inkscape:showpageshadow="2"
     inkscape:pageopacity="0.0"
     inkscape:pagecheckerboard="0"
     inkscape:deskcolor="#d1d1d1"
     showgrid="false"
     inkscape:zoom="0.32717719"
     inkscape:cx="342.32215"
     inkscape:cy="126.84258"
     inkscape:window-width="2560"
     inkscape:window-height="1009"
     inkscape:window-x="-8"
     inkscape:window-y="-8"
     inkscape:window-maximized="1"
     inkscape:current-layer="g138" /><g
     inkscape:groupmode="layer"
     inkscape:label="Image"
     id="g138"><g
       stroke="#ffffff"
       stroke-width="1.5"
       id="g505"
       transform="matrix(1.2989428,0,0,1.2989428,140.3913,107.87664)"><g
         transform="matrix(0.8660254,0.5,0,1.1547005,0,0)"
         id="g497"><rect
           x="110"
           y="-72"
           width="175"
           height="75"
           fill="#333333"
           transform="skewX(-50)"
           id="rect475" /><rect
           x="110"
           y="3"
           width="87.5"
           height="75"
           fill="#cdcdcd"
           transform="skewX(-50)"
           id="rect477" /><rect
           x="16.5"
           y="78.900002"
           width="87.5"
           height="25"
           fill="#cdcdcd"
           id="rect479" /><rect
           x="16.5"
           y="104.5"
           width="175"
           height="25"
           fill="#888888"
           id="rect481" /><rect
           x="16.5"
           y="130"
           width="175"
           height="50"
           fill="#dd4814"
           id="rect483" /><rect
           x="104"
           y="166"
           width="89.5"
           height="25"
           fill="#cdcdcd"
           transform="skewY(-40)"
           id="rect485" /><rect
           x="228.3"
           y="29.5"
           width="87.5"
           height="75"
           fill="#888888"
           transform="skewX(-50)"
           id="rect487" /><rect
           x="191.8"
           y="266"
           width="89.5"
           height="25"
           fill="#888888"
           transform="skewY(-40)"
           id="rect489" /><rect
           x="192"
           y="291"
           width="179.5"
           height="50"
           fill="#dd4814"
           transform="skewY(-40)"
           id="rect491" /><rect
           x="282.29999"
           y="240"
           width="89.099998"
           height="50"
           fill="#333333"
           transform="skewY(-40)"
           id="rect493" /><rect
           x="194"
           y="3.7"
           width="87.5"
           height="25"
           fill="#333333"
           id="rect495" /></g><line
         x1="93"
         y1="57"
         x2="93"
         y2="88"
         id="line499" /><line
         x1="169"
         y1="131"
         x2="92"
         y2="88"
         id="line501" /><line
         x1="92"
         y1="88"
         x2="14"
         y2="128"
         id="line503" /></g><g
       id="g27"
       transform="matrix(2.2962575,0,0,2.2962575,-661.60174,1795.8805)"
       style="stroke-width:0.435491"><polygon
         class="cls-1"
         points="35.439,128.29 93.798,128.29 93.798,104.718 59.01,104.718 59.01,59.877 93.798,59.877 93.798,36.305 35.439,36.305 "
         id="polygon23"
         transform="translate(572.28257,-727.20802)"
         style="stroke-width:0.435491" /><rect
         class="cls-2"
         x="677.86725"
         y="-690.90314"
         width="23.57181"
         height="23.573641"
         id="rect23"
         style="stroke-width:0.435491" /><rect
         class="cls-2"
         x="677.86725"
         y="-655.54358"
         width="23.57181"
         height="56.625809"
         id="rect24"
         style="stroke-width:0.435491" /><path
         class="cls-2"
         d="m 572.28257,-727.20802 v 164.59511 h 164.59512 v -164.59511 z m 140.948,140.11033 H 595.92966 V -702.7233 H 713.2306 Z"
         id="path24"
         style="stroke-width:0.435491" /></g></g></svg>
