<?xml version="1.0" encoding="UTF-8" standalone="no"?>
<!-- Created with Inkscape (http://www.inkscape.org/) -->

<svg
   version="1.1"
   id="svg132"
   width="1200"
   height="630"
   viewBox="0 0 1200 630"
   sodipodi:docname="incus-ansible.svg"
   inkscape:version="1.4.4 (dcaf3e7, 2026-05-05)"
   xml:space="preserve"
   xmlns:inkscape="http://www.inkscape.org/namespaces/inkscape"
   xmlns:sodipodi="http://sodipodi.sourceforge.net/DTD/sodipodi-0.dtd"
   xmlns="http://www.w3.org/2000/svg"
   xmlns:svg="http://www.w3.org/2000/svg"><defs
     id="defs136"><style
       id="style368">.cls-1{fill:#1d1d1b;}.cls-2{fill:#e9500e;}.cls-3{fill:#fff;}</style><path
       id="a"
       d="m258.277 184.829-.07 28.477-82.285-47.519.069-28.477z" /><path
       id="c"
       d="m216.802 175.326-40.741 23.654-40.95-23.654 40.88-23.76z" /><path
       id="e"
       d="m216.837 161.14-40.706 23.654-40.985-23.654 40.88-23.83z" /><path
       id="g"
       d="m176.131 184.794-.07 14.186-40.95-23.654.035-14.186z" /><path
       id="i"
       d="m135.146 161.14 40.88-23.83-.035 14.256-40.88 23.76z" /><path
       id="k"
       d="m176.026 137.31 40.811 23.83-.035 14.186-40.811-23.76z" /><path
       id="a-5"
       d="m258.277 184.829-.07 28.477-82.285-47.519.069-28.477z" /><path
       id="c-1"
       d="m216.802 175.326-40.741 23.654-40.95-23.654 40.88-23.76z" /><path
       id="e-7"
       d="m216.837 161.14-40.706 23.654-40.985-23.654 40.88-23.83z" /><path
       id="g-1"
       d="m176.131 184.794-.07 14.186-40.95-23.654.035-14.186z" /><path
       id="i-1"
       d="m135.146 161.14 40.88-23.83-.035 14.256-40.88 23.76z" /><path
       id="k-5"
       d="m176.026 137.31 40.811 23.83-.035 14.186-40.811-23.76z" /></defs><sodipodi:namedview
     id="namedview134"
     pagecolor="#ffffff"
     bordercolor="#000000"
     borderopacity="0.25"
     inkscape:showpageshadow="2"
     inkscape:pageopacity="0.0"
     inkscape:pagecheckerboard="0"
     inkscape:deskcolor="#d1d1d1"
     showgrid="false"
     inkscape:zoom="1.3087087"
     inkscape:cx="508.89858"
     inkscape:cy="416.82309"
     inkscape:window-width="3440"
     inkscape:window-height="1417"
     inkscape:window-x="-8"
     inkscape:window-y="1"
     inkscape:window-maximized="1"
     inkscape:current-layer="g138" /><g
     inkscape:groupmode="layer"
     inkscape:label="Image"
     id="g138"><g
       id="g1"
       transform="matrix(1.4814066,0,0,1.4814066,844.08436,-57.567457)"
       style="stroke-width:0.675034"><path
         d="m 117.33915,247.14777 c 0,70.4551 -57.1101,127.565 -127.566,127.565 -70.4501,0 -127.566,-57.1096 -127.566,-127.565 0,-70.4501 57.1161,-127.566 127.566,-127.566 70.4561,0 127.566,57.1161 127.566,127.566"
         fill="#1a1918"
         id="path8-2"
         style="stroke-width:0.675034" /><path
         d="m -8.07985,197.50867 33.0116,81.4763 -49.8635,-39.2778 16.8519,-42.1984 z m 58.6445,100.245 -50.7786,-122.202 c -1.44952,-3.52436 -4.34807,-5.38926 -7.86591,-5.38926 -3.52436,0 -6.63386,1.86489 -8.08339,5.38926 l -55.7329,134.04 h 19.0653 l 22.0623,-55.2653 65.8389,53.1899 c 2.64792,2.14114 4.55852,3.1095 7.0422,3.1095 4.97389,0 9.32146,-3.72878 9.32146,-9.11101 0,-0.87594 -0.30939,-2.2662 -0.86941,-3.76143 z"
         fill="#ffffff"
         id="path9-4"
         style="stroke-width:0.675034" /></g><g
       id="g2"
       transform="matrix(2.4825525,0,0,2.4800832,-171.91773,-155.08984)"
       style="stroke-width:0.403012"><path
         fill="#dd4814"
         stroke="#ffffff"
         stroke-linecap="round"
         stroke-linejoin="round"
         stroke-miterlimit="10"
         d="m 299.088,189.546 -0.07,28.477 -81.762,47.519 0.07,-28.476 z m -81.762,47.52 -0.07,28.476 -82.285,-47.519 0.07,-28.477 z"
         id="path1-5"
         style="stroke-width:0.403012" /><path
         fill="#333333"
         stroke="#ffffff"
         stroke-linecap="round"
         stroke-linejoin="round"
         stroke-miterlimit="10"
         d="m 299.157,161.07 -40.88,23.759 -82.286,-47.519 40.881,-23.76 z m 0.21,0.105 -0.105,28.476 -40.88,23.76 0.104,-28.477 z"
         id="path2"
         style="stroke-width:0.403012" /><path
         fill="#333333"
         d="m 258.277,184.829 -0.07,28.477 -82.285,-47.519 0.069,-28.477 z"
         id="path3"
         style="stroke-width:0.403012" /><path
         fill="#333333"
         stroke="#ffffff"
         stroke-miterlimit="10"
         d="m 258.277,184.829 -0.07,28.477 -82.285,-47.519 0.069,-28.477 z"
         clip-path="url(#b)"
         id="path4"
         style="stroke-width:0.403012" /><path
         fill="none"
         stroke="#ffffff"
         stroke-miterlimit="10"
         d="m 258.277,184.829 -0.07,28.477 -82.285,-47.519 0.069,-28.477 z"
         id="path5"
         style="stroke-width:0.403012" /><path
         fill="#888888"
         stroke="#ffffff"
         stroke-linecap="round"
         stroke-linejoin="round"
         stroke-miterlimit="10"
         d="m 258.242,199.05 -40.881,23.76 -82.285,-47.484 40.88,-23.76 z m -40.881,23.76 -0.035,14.256 -82.285,-47.52 0.035,-14.22 z"
         id="path6"
         style="stroke-width:0.403012" /><path
         fill="#888888"
         stroke="#ffffff"
         stroke-linecap="round"
         stroke-linejoin="round"
         stroke-miterlimit="10"
         d="m 258.242,199.05 -0.035,14.256 -40.881,23.76 0.035,-14.256 z"
         id="path7"
         style="stroke-width:0.403012" /><path
         fill="#2c001e"
         stroke="#ffffff"
         stroke-linecap="round"
         stroke-linejoin="round"
         stroke-miterlimit="10"
         d="m 216.802,161.14 -0.035,14.186 -40.706,23.654 0.035,-14.186 z"
         id="path8"
         style="stroke-width:0.403012" /><path
         fill="#cdcdcd"
         d="m 216.802,161.14 -40.706,23.654 -40.985,-23.654 40.88,-23.83 z m -40.706,23.654 -0.035,14.186 -40.985,-23.654 0.035,-14.186 z"
         id="path9"
         style="stroke-width:0.403012" /><path
         fill="#cdcdcd"
         d="m 216.802,161.14 -0.035,14.186 -40.706,23.654 0.035,-14.186 z"
         id="path10"
         style="stroke-width:0.403012" /><path
         fill="none"
         stroke="#ffffff"
         stroke-miterlimit="10"
         d="m 216.802,175.326 -40.706,23.654 -40.985,-23.654 40.88,-23.76 z"
         clip-path="url(#d)"
         id="path11"
         style="stroke-width:0.403012" /><path
         fill="none"
         stroke="#ffffff"
         stroke-miterlimit="10"
         d="m 216.802,175.326 -40.741,23.654 -40.95,-23.654 40.88,-23.76 z"
         id="path12"
         style="stroke-width:0.403012" /><path
         fill="none"
         stroke="#ffffff"
         stroke-miterlimit="10"
         d="m 216.837,161.14 -40.706,23.654 -40.985,-23.654 40.88,-23.83 z"
         clip-path="url(#f)"
         id="path13"
         style="stroke-width:0.403012" /><path
         fill="none"
         stroke="#ffffff"
         stroke-miterlimit="10"
         d="m 216.837,161.14 -40.706,23.654 -40.985,-23.654 40.88,-23.83 z"
         id="path14"
         style="stroke-width:0.403012" /><path
         fill="none"
         stroke="#ffffff"
         stroke-miterlimit="10"
         d="m 176.131,184.794 -0.035,14.186 -40.985,-23.654 0.035,-14.186 z"
         clip-path="url(#h)"
         id="path15"
         style="stroke-width:0.403012" /><path
         fill="none"
         stroke="#ffffff"
         stroke-miterlimit="10"
         d="m 176.131,184.794 -0.07,14.186 -40.95,-23.654 0.035,-14.186 z"
         id="path16"
         style="stroke-width:0.403012" /><path
         fill="none"
         stroke="#ffffff"
         stroke-miterlimit="10"
         d="m 135.146,161.14 40.88,-23.83 -0.035,14.256 -40.88,23.76 z"
         clip-path="url(#j)"
         id="path17"
         style="stroke-width:0.403012" /><path
         fill="none"
         stroke="#ffffff"
         stroke-miterlimit="10"
         d="m 135.146,161.14 40.88,-23.83 -0.035,14.256 -40.88,23.76 z"
         id="path18"
         style="stroke-width:0.403012" /><path
         fill="none"
         stroke="#ffffff"
         stroke-miterlimit="10"
         d="m 176.026,137.31 40.811,23.83 -0.035,14.186 -40.985,-23.655 z"
         clip-path="url(#l)"
         id="path19"
         style="stroke-width:0.403012" /><path
         fill="none"
         stroke="#ffffff"
         stroke-miterlimit="10"
         d="m 176.026,137.31 40.811,23.83 -0.035,14.186 -40.811,-23.76 z"
         id="path20"
         style="stroke-width:0.403012" /></g></g></svg>
