<?xml version="1.0" encoding="UTF-8" standalone="no"?>
<!-- Created with Inkscape (http://www.inkscape.org/) -->

<svg
   version="1.1"
   id="svg132"
   width="1200"
   height="630"
   viewBox="0 0 1200 630"
   sodipodi:docname="incus-oci-immich.svg"
   inkscape:version="1.4.4 (dcaf3e7, 2026-05-05)"
   xml:space="preserve"
   xmlns:inkscape="http://www.inkscape.org/namespaces/inkscape"
   xmlns:sodipodi="http://sodipodi.sourceforge.net/DTD/sodipodi-0.dtd"
   xmlns="http://www.w3.org/2000/svg"
   xmlns:svg="http://www.w3.org/2000/svg"><defs
     id="defs136"><style
       id="style368">.cls-1{fill:#1d1d1b;}.cls-2{fill:#e9500e;}.cls-3{fill:#fff;}</style><clipPath
       id="clipPath8"><path
         d="m 76,2 0,46 -22,0 0,23 -18.419263,0 c -0.07818,0.665694 -0.141485,1.332869 -0.205737,2 -1.151162,12.530963 1.036422,24.087546 6.0625,33.96875 L 43.125,110 c 1.011403,1.81678 2.191241,3.52297 3.4375,5.1875 1.244725,1.66248 1.685716,2.58262 2.46875,3.6875 C 62.319911,133.81083 82.129473,141 105,141 155.64836,141 198.63299,118.56201 217.65625,68.15625 231.15302,69.54122 244.09968,66.080358 250,54.5625 240.60137,49.138835 228.52163,50.877226 221.5625,54.375 L 240,2 168,48 145,48 145,2 z"
         id="path10" /></clipPath><style
       id="style1">.cls-1{fill:#808285;}.cls-2{fill:#262262;}</style></defs><sodipodi:namedview
     id="namedview134"
     pagecolor="#ffffff"
     bordercolor="#000000"
     borderopacity="0.25"
     inkscape:showpageshadow="2"
     inkscape:pageopacity="0.0"
     inkscape:pagecheckerboard="0"
     inkscape:deskcolor="#d1d1d1"
     showgrid="false"
     inkscape:zoom="0.32717719"
     inkscape:cx="342.32215"
     inkscape:cy="126.84258"
     inkscape:window-width="2560"
     inkscape:window-height="1009"
     inkscape:window-x="-8"
     inkscape:window-y="-8"
     inkscape:window-maximized="1"
     inkscape:current-layer="g138" /><g
     inkscape:groupmode="layer"
     inkscape:label="Image"
     id="g138"><g
       stroke="#ffffff"
       stroke-width="1.5"
       id="g505"
       transform="matrix(1.2989428,0,0,1.2989428,140.3913,107.87664)"><g
         transform="matrix(0.8660254,0.5,0,1.1547005,0,0)"
         id="g497"><rect
           x="110"
           y="-72"
           width="175"
           height="75"
           fill="#333333"
           transform="skewX(-50)"
           id="rect475" /><rect
           x="110"
           y="3"
           width="87.5"
           height="75"
           fill="#cdcdcd"
           transform="skewX(-50)"
           id="rect477" /><rect
           x="16.5"
           y="78.900002"
           width="87.5"
           height="25"
           fill="#cdcdcd"
           id="rect479" /><rect
           x="16.5"
           y="104.5"
           width="175"
           height="25"
           fill="#888888"
           id="rect481" /><rect
           x="16.5"
           y="130"
           width="175"
           height="50"
           fill="#dd4814"
           id="rect483" /><rect
           x="104"
           y="166"
           width="89.5"
           height="25"
           fill="#cdcdcd"
           transform="skewY(-40)"
           id="rect485" /><rect
           x="228.3"
           y="29.5"
           width="87.5"
           height="75"
           fill="#888888"
           transform="skewX(-50)"
           id="rect487" /><rect
           x="191.8"
           y="266"
           width="89.5"
           height="25"
           fill="#888888"
           transform="skewY(-40)"
           id="rect489" /><rect
           x="192"
           y="291"
           width="179.5"
           height="50"
           fill="#dd4814"
           transform="skewY(-40)"
           id="rect491" /><rect
           x="282.29999"
           y="240"
           width="89.099998"
           height="50"
           fill="#333333"
           transform="skewY(-40)"
           id="rect493" /><rect
           x="194"
           y="3.7"
           width="87.5"
           height="25"
           fill="#333333"
           id="rect495" /></g><line
         x1="93"
         y1="57"
         x2="93"
         y2="88"
         id="line499" /><line
         x1="169"
         y1="131"
         x2="92"
         y2="88"
         id="line501" /><line
         x1="92"
         y1="88"
         x2="14"
         y2="128"
         id="line503" /></g><g
       id="g27"
       transform="matrix(2.2962575,0,0,2.2962575,-661.60174,1795.8805)"
       style="stroke-width:0.435491"><polygon
         class="cls-1"
         points="35.439,128.29 93.798,128.29 93.798,104.718 59.01,104.718 59.01,59.877 93.798,59.877 93.798,36.305 35.439,36.305 "
         id="polygon23"
         transform="translate(572.28257,-727.20802)"
         style="stroke-width:0.435491" /><rect
         class="cls-2"
         x="677.86725"
         y="-690.90314"
         width="23.57181"
         height="23.573641"
         id="rect23"
         style="stroke-width:0.435491" /><rect
         class="cls-2"
         x="677.86725"
         y="-655.54358"
         width="23.57181"
         height="56.625809"
         id="rect24"
         style="stroke-width:0.435491" /><path
         class="cls-2"
         d="m 572.28257,-727.20802 v 164.59511 h 164.59512 v -164.59511 z m 140.948,140.11033 H 595.92966 V -702.7233 H 713.2306 Z"
         id="path24"
         style="stroke-width:0.435491" /></g><g
       id="Flower_00000077325900055813483940000000694823054982625702_"
       transform="matrix(0.65514344,0,0,0.65514344,340.98904,63.739136)"
       style="stroke-width:1.52638"><path
         class="st0"
         d="m 375.48,267.63 c 38.64,34.21 69.78,70.87 89.82,105.42 34.42,-61.56 57.42,-134.71 57.71,-181.3 0,-0.33 0,-0.63 0,-0.91 0,-68.94 -68.77,-95.77 -128.01,-95.77 -59.24,0 -128.01,26.83 -128.01,95.77 0,0.94 0,2.2 0,3.72 33.02,14.68 72.16,40.91 108.49,73.07 z"
         id="path1"
         style="stroke-width:1.52638" /><path
         class="st1"
         d="m 164.7,455.63 c 24.15,-26.87 61.2,-55.99 103.01,-80.61 44.48,-26.18 88.97,-44.47 128.02,-52.84 -47.91,-51.76 -110.37,-96.24 -154.6,-110.91 -0.31,-0.1 -0.6,-0.19 -0.86,-0.28 -65.57,-21.3 -112.34,35.81 -130.64,92.15 -18.3,56.34 -14.04,130.04 51.53,151.34 0.89,0.29 2.09,0.68 3.54,1.15 z"
         id="path2"
         style="stroke-width:1.52638" /><path
         class="st2"
         d="M 681.07,302.19 C 662.77,245.85 616,188.74 550.43,210.04 c -0.9,0.29 -2.1,0.68 -3.54,1.15 -3.75,35.93 -16.6,81.27 -35.96,125.76 -20.59,47.32 -45.84,88.27 -72.51,118 69.18,13.72 145.86,12.98 190.26,-1.14 0.31,-0.1 0.6,-0.2 0.86,-0.28 65.57,-21.31 69.83,-95.01 51.53,-151.34 z"
         id="path3"
         style="stroke-width:1.52638" /><path
         class="st3"
         d="m 336.54,510.71 c -11.15,-50.39 -14.8,-98.36 -10.7,-138.08 -64.03,29.57 -125.63,75.23 -153.26,112.76 -0.19,0.26 -0.37,0.51 -0.53,0.73 -40.52,55.78 -0.66,117.91 47.27,152.72 47.92,34.82 119.33,53.54 159.86,-2.24 0.56,-0.76 1.3,-1.78 2.19,-3.01 -18.09,-31.27 -34.35,-75.51 -44.83,-122.88 z"
         id="path4"
         style="stroke-width:1.52638" /><path
         class="st4"
         d="m 617.57,482.52 c -35.33,7.54 -82.42,9.33 -130.72,4.66 -51.37,-4.96 -98.11,-16.32 -134.63,-32.5 8.33,70.03 32.73,142.73 59.88,180.6 0.19,0.26 0.37,0.51 0.53,0.73 40.52,55.78 111.93,37.06 159.86,2.24 47.92,-34.82 87.79,-96.95 47.27,-152.72 -0.56,-0.76 -1.3,-1.78 -2.19,-3.01 z"
         id="path5"
         style="stroke-width:1.52638" /></g></g><style
     type="text/css"
     id="style1-0"> .st0{fill:#FA2921;} .st1{fill:#ED79B5;} .st2{fill:#FFB400;} .st3{fill:#1E83F7;} .st4{fill:#18C249;} </style></svg>
