<?xml version="1.0" encoding="UTF-8" standalone="no"?>
<!-- Created with Inkscape (http://www.inkscape.org/) -->

<svg
   version="1.1"
   id="svg132"
   width="1200"
   height="630"
   viewBox="0 0 1200 630"
   sodipodi:docname="install-tandoor-recipes-on-ubuntu.svg"
   inkscape:version="1.2.2 (732a01da63, 2022-12-09)"
   xml:space="preserve"
   xmlns:inkscape="http://www.inkscape.org/namespaces/inkscape"
   xmlns:sodipodi="http://sodipodi.sourceforge.net/DTD/sodipodi-0.dtd"
   xmlns="http://www.w3.org/2000/svg"
   xmlns:svg="http://www.w3.org/2000/svg"
   xmlns:serif="http://www.serif.com/"><defs
     id="defs136"><style
   id="style368">.cls-1{fill:#1d1d1b;}.cls-2{fill:#e9500e;}.cls-3{fill:#fff;}</style><linearGradient
   id="_Linear1"
   x1="0"
   y1="0"
   x2="1"
   y2="0"
   gradientUnits="userSpaceOnUse"
   gradientTransform="matrix(1.8474209e-6,0,0,1.9155253e-6,2669.8533,-368.07506)"><stop
     offset="0"
     style="stop-color:rgb(39,39,39);stop-opacity:1"
     id="stop740" /><stop
     offset="1"
     style="stop-color:rgb(108,108,108);stop-opacity:1"
     id="stop742" /></linearGradient>
        
        
        
        
    
            
            <clipPath
   id="_clip2">
                <ellipse
   cx="273.12299"
   cy="324.01501"
   rx="259.82199"
   ry="250.584"
   id="ellipse703" />
            </clipPath>
            
        </defs><sodipodi:namedview
     id="namedview134"
     pagecolor="#ffffff"
     bordercolor="#000000"
     borderopacity="0.25"
     inkscape:showpageshadow="2"
     inkscape:pageopacity="0.0"
     inkscape:pagecheckerboard="0"
     inkscape:deskcolor="#d1d1d1"
     showgrid="false"
     inkscape:zoom="0.65435437"
     inkscape:cx="638.03349"
     inkscape:cy="128.37081"
     inkscape:window-width="3440"
     inkscape:window-height="1369"
     inkscape:window-x="-8"
     inkscape:window-y="-8"
     inkscape:window-maximized="1"
     inkscape:current-layer="g138" /><g
     inkscape:groupmode="layer"
     inkscape:label="Image"
     id="g138"><rect
       class="cls-2"
       width="660.82678"
       height="1017.7282"
       id="rect384"
       x="269.58661"
       y="-193.86411"
       style="stroke-width:2.82488" /><g
       id="g1146"
       transform="translate(16)"><g
         id="g1117"
         transform="matrix(0.96575236,0,0,0.96575236,29.120713,27.768506)"><circle
           class="cls-3"
           cx="399.84048"
           cy="284.0195"
           r="69.349876"
           id="circle386"
           style="stroke-width:2.82488" /><circle
           class="cls-3"
           cx="688.65692"
           cy="131.95375"
           r="69.349876"
           id="circle388"
           style="stroke-width:2.82488" /><path
           class="cls-3"
           d="m 556.24861,462.49838 a 168.8951,168.8951 0 0 1 -115.17588,-87.84153 99.831658,99.831658 0 0 1 -59.29473,7.28841 225.76724,225.76724 0 0 0 162.54201,136.22582 228.48675,228.48675 0 0 0 49.24495,5.06769 99.230581,99.230581 0 0 1 -20.30494,-57.9817 c -5.7119,-0.6345 -11.41674,-1.56142 -17.01141,-2.75869 z"
           id="path390"
           style="stroke-width:2.82488" /><circle
           class="cls-3"
           cx="673.03284"
           cy="462.88092"
           r="69.349876"
           id="circle392"
           style="stroke-width:2.82488" /><path
           class="cls-3"
           d="m 769.53643,437.40831 a 226.89016,226.89016 0 0 0 11.36985,-266.21154 99.956348,99.956348 0 0 1 -38.99771,45.67261 170.01991,170.01991 0 0 1 -5.55739,168.87193 99.449085,99.449085 0 0 1 33.18525,51.667 z"
           id="path394"
           style="stroke-width:2.82488" /><path
           class="cls-3"
           d="m 394.48995,184.56527 q 2.64013,-0.14492 5.2828,-0.14351 a 100.0848,100.0848 0 0 1 52.59272,14.97679 169.13795,169.13795 0 0 1 136.18985,-72.83713 100.55686,100.55686 0 0 1 21.03912,-56.242338 227.95474,227.95474 0 0 0 -215.10449,114.246128 z"
           id="path396"
           style="stroke-width:2.82488" /></g><g
         id="g1102"
         transform="matrix(0.6299213,0,0,0.6299213,944.63258,400.67681)"><ellipse
           cx="-547.10419"
           cy="-136.01193"
           rx="240.00029"
           ry="239.99998"
           style="clip-rule:evenodd;fill:#000000;fill-rule:evenodd;stroke-width:0.940582;stroke-linejoin:round;stroke-miterlimit:2"
           id="ellipse701" /><g
           clip-path="url(#_clip2)"
           id="g717"
           transform="matrix(0.92371046,0,0,0.95776263,-799.39077,-446.34141)"
           style="clip-rule:evenodd;fill-rule:evenodd;stroke-linejoin:round;stroke-miterlimit:2">
                <g
   id="Shadow"
   transform="matrix(1.10322,0,0,1.064,-5.58287,50.5786)">
                    <path
   d="M 156.285,427.208 389.554,660.477 668.803,495.551 374.012,200.761 Z"
   style="fill:#161616"
   id="path706" />
                    <g
   transform="translate(-4.22105,0.775864)"
   id="g710">
                        <path
   d="M 208.628,178.613 485.935,455.919 590.027,364.63 296.923,71.526 l -2.748,67.463 z"
   style="fill:#161616"
   id="path708" />
                    </g>
                    <g
   transform="translate(-85.3876,27.8512)"
   id="g714">
                        <path
   d="m 310.385,145.641 277.307,277.307 2.7,-61.591 -293.104,-293.104 -3.113,70.736 z"
   style="fill:#161616"
   id="path712" />
                    </g>
                </g>
            </g><g
           transform="matrix(0.93750213,0,0,0.93750213,-787.10382,-376.01282)"
           id="g722"
           style="clip-rule:evenodd;fill-rule:evenodd;stroke-linejoin:round;stroke-miterlimit:2">
            <path
   d="m 256.049,220 c 30.173,-0.006 56.607,-12.69 73.339,-25.866 16.962,-13.38 41.511,-10.728 55.223,5.966 22.518,27.276 35.987,61.844 35.987,99.43 0,61.55 -37.994,137.571 -90.834,164.176 -22.729,11.444 -46.298,16.88 -73.666,16.893 v 0 H 256.049 256 v 0 C 228.632,480.586 205.063,475.15 182.334,463.706 129.494,437.101 91.5,361.08 91.5,299.53 c 0,-37.586 13.469,-72.154 35.987,-99.43 13.712,-16.694 38.261,-19.346 55.223,-5.966 16.732,13.176 43.166,25.86 73.339,25.866 z"
   style="fill:#ffcb76"
   id="path720" />
        </g><g
           id="Flame-2"
           serif:id="Flame 2"
           transform="matrix(0.61547875,0,0,0.56833279,-941.36148,-830.61468)"
           style="clip-rule:evenodd;fill-rule:evenodd;stroke-linejoin:round;stroke-miterlimit:2">
            <path
   d="m 604.408,844.314 c -2.427,-3.469 -2.446,-8.258 -0.046,-11.749 2.401,-3.491 6.643,-4.844 10.407,-3.319 19.101,7.623 44.064,19.383 63.438,35.206 40.319,32.929 51.343,54.955 60.345,77.639 10.656,26.852 12.233,54.589 9.963,73.989 -6.497,55.53 -48.16,101.42 -107.481,101.42 -59.321,0 -106.541,-45.45 -107.481,-101.42 -0.567,-33.708 10.432,-60.637 22.435,-79.86 2.994,-4.783 8.606,-6.751 13.621,-4.776 5.014,1.975 8.148,7.387 7.606,13.136 -1.722,12.136 -2.853,24.792 -2.283,34.904 1.931,34.216 22.239,43.016 43.151,42.806 22.288,-0.21 44.842,-19.12 36.714,-67.395 -7.107,-42.214 -32.435,-84.701 -50.389,-110.581 z"
   style="fill:#ff6f00"
   id="path724" />
            <clipPath
   id="_clip3">
                <path
   d="m 604.408,844.314 c -2.427,-3.469 -2.446,-8.258 -0.046,-11.749 2.401,-3.491 6.643,-4.844 10.407,-3.319 19.101,7.623 44.064,19.383 63.438,35.206 40.319,32.929 51.343,54.955 60.345,77.639 10.656,26.852 12.233,54.589 9.963,73.989 -6.497,55.53 -48.16,101.42 -107.481,101.42 -59.321,0 -106.541,-45.45 -107.481,-101.42 -0.567,-33.708 10.432,-60.637 22.435,-79.86 2.994,-4.783 8.606,-6.751 13.621,-4.776 5.014,1.975 8.148,7.387 7.606,13.136 -1.722,12.136 -2.853,24.792 -2.283,34.904 1.931,34.216 22.239,43.016 43.151,42.806 22.288,-0.21 44.842,-19.12 36.714,-67.395 -7.107,-42.214 -32.435,-84.701 -50.389,-110.581 z"
   id="path726" />
            </clipPath>
            <g
   clip-path="url(#_clip3)"
   id="g733">
                <g
   transform="matrix(1.28784,-0.270602,0.285942,1.59598,247.349,825.209)"
   id="g731">
                    <path
   d="m 255.004,46.957 c 24.543,11.588 50.996,38.49 58.303,73.204 12.13,57.63 -21.736,73.628 -50.811,72.242 -46.607,-2.222 -62.302,-39.157 -31.17,-83.503 19.305,-27.499 1.337,-72.492 23.678,-61.943 z"
   style="fill:#ffd100"
   id="path729" />
                </g>
            </g>
        </g><g
           id="Hut"
           transform="matrix(0.96936828,0,0,0.96936828,-795.37054,-376.41433)"
           style="clip-rule:evenodd;fill-rule:evenodd;stroke-linejoin:round;stroke-miterlimit:2">
            <path
   d="m 228.197,408.524 c -5.499,0 -10.384,-1.836 -14.173,-4.905 -2.248,-1.825 -3.104,-4.867 -2.136,-7.595 0.968,-2.729 3.549,-4.552 6.444,-4.552 13.882,-0.072 37.78,-0.076 37.78,-0.076 0,0 23.897,0.004 37.779,0.076 2.895,0 5.476,1.823 6.444,4.552 0.968,2.728 0.112,5.77 -2.136,7.595 -3.789,3.069 -8.673,4.905 -14.172,4.905 z M 217.24,378.877 c -3.032,0 -5.94,-1.206 -8.082,-3.352 -2.143,-2.146 -3.344,-5.056 -3.338,-8.089 0.011,-6.317 0.022,-12.897 0.022,-12.897 0,-4.116 -2.745,-7.725 -6.711,-8.825 -13.818,-3.873 -23.931,-16.246 -23.931,-30.891 0,-17.753 14.859,-32.166 33.162,-32.166 0,0 0,0 0,0 7.039,0 13.313,-4.439 15.655,-11.076 3.226,-9.191 12.394,-19.566 31.983,-19.583 v 0 h 0.223 v 0 c 19.589,0.017 28.757,10.392 31.983,19.583 2.343,6.637 8.616,11.076 15.655,11.076 0,0 0,0 0,0 18.303,0 33.162,14.413 33.162,32.166 0,14.645 -10.112,27.018 -23.93,30.891 -3.966,1.1 -6.711,4.709 -6.712,8.825 0,0 0.005,6.588 0.01,12.908 0.003,3.031 -1.2,5.938 -3.342,8.082 -2.142,2.143 -5.048,3.348 -8.078,3.348 -19.356,0 -58.367,0 -77.731,0 z"
   style="fill:#161616"
   id="path736" />
        </g></g></g></g></svg>
