<?xml version="1.0" encoding="UTF-8" standalone="no"?>
<!-- Created with Inkscape (http://www.inkscape.org/) -->

<svg
   width="1200"
   height="630"
   viewBox="0 0 317.5 166.6875"
   version="1.1"
   id="svg5"
   xml:space="preserve"
   inkscape:version="1.2.2 (732a01da63, 2022-12-09)"
   sodipodi:docname="oauth-paperless-ngx.svg"
   inkscape:export-filename="..\Output\oauth-paperless-ngx.png"
   inkscape:export-xdpi="96"
   inkscape:export-ydpi="96"
   xmlns:inkscape="http://www.inkscape.org/namespaces/inkscape"
   xmlns:sodipodi="http://sodipodi.sourceforge.net/DTD/sodipodi-0.dtd"
   xmlns="http://www.w3.org/2000/svg"
   xmlns:svg="http://www.w3.org/2000/svg"><sodipodi:namedview
     id="namedview7"
     pagecolor="#ffffff"
     bordercolor="#000000"
     borderopacity="0.25"
     inkscape:showpageshadow="2"
     inkscape:pageopacity="0.0"
     inkscape:pagecheckerboard="0"
     inkscape:deskcolor="#d1d1d1"
     inkscape:document-units="mm"
     showgrid="false"
     inkscape:zoom="0.457453"
     inkscape:cx="615.36376"
     inkscape:cy="504.96991"
     inkscape:window-width="2560"
     inkscape:window-height="1369"
     inkscape:window-x="3432"
     inkscape:window-y="-8"
     inkscape:window-maximized="1"
     inkscape:current-layer="layer1" /><defs
     id="defs2"><style
       id="style458">.cls-1{fill:none;}.cls-2{fill:#4d4d4d;}.cls-3{clip-path:url(#clip-path);}.cls-4{fill:url(#linear-gradient);}.cls-5{fill:#e1e1e1;}.cls-6{fill:#585858;}.cls-7{fill:#696969;}.cls-8{fill:#5e5e5e;}.cls-9{fill:#6d6d6d;}.cls-10{fill:#636363;}.cls-11{fill:#737373;}.cls-12{fill:#757575;}.cls-13{fill:#646464;}.cls-14{fill:#6c6c6c;}.cls-15{fill:#606060;}.cls-16{fill:#707070;}.cls-17{fill:#767676;}.cls-18{fill:#797979;}.cls-19{fill:#7f7f7f;}.cls-20{fill:#868686;}.cls-21{fill:#8a8a8a;}.cls-22{fill:#7d7d7d;}.cls-23{fill:#919191;}.cls-24{fill:#858585;}.cls-25{fill:#929292;}.cls-26{fill:#898989;}.cls-27{fill:#8f8f8f;}.cls-28{fill:#999;}.cls-29{fill:#979797;}.cls-30{fill:#9f9f9f;}.cls-31{fill:#a6a6a6;}.cls-32{fill:#a0a0a0;}.cls-33{fill:#9b9b9b;}.cls-34{fill:#9d9d9d;}.cls-35{fill:#a3a3a3;}.cls-36{fill:#aaa;}.cls-37{fill:#a9a9a9;}.cls-38{fill:#989898;}.cls-39{fill:#b1b1b1;}.cls-40{fill:#9e9e9e;}.cls-41{fill:#a4a4a4;}.cls-42{fill:#aeaeae;}.cls-43{fill:#ababab;}.cls-44{fill:#b4b4b4;}.cls-45{fill:#a2a2a2;}.cls-46{fill:#bcbcbc;}.cls-47{fill:#b8b8b8;}.cls-48{fill:#b0b0b0;}.cls-49{fill:#b9b9b9;}.cls-50{fill:#bfbfbf;}.cls-51{fill:#b5b5b5;}.cls-52{fill:#bdbdbd;}.cls-53{fill:#b6b6b6;}.cls-54{fill:#c3c3c3;}.cls-55{fill:#c9c9c9;}.cls-56{fill:#bbb;}.cls-57{fill:#c1c1c1;}.cls-58{fill:#c6c6c6;}.cls-59{fill:#cdcdcd;}.cls-60{fill:#ccc;}.cls-61{fill:#c2c2c2;}.cls-62{fill:#c8c8c8;}.cls-63{fill:#c7c7c7;}.cls-64{fill:#cecece;}.cls-65{fill:#d3d3d3;}.cls-66{fill:#d5d5d5;}.cls-67{fill:#d0d0d0;}.cls-68{fill:#d9d9d9;}.cls-69{fill:#d4d4d4;}.cls-70{fill:#d8d8d8;}.cls-71{fill:#e2e2e2;}.cls-72{fill:#e4e4e4;}.cls-73{fill:#dedede;}.cls-74{fill:#c5c5c5;}.cls-75{fill:#d1d1d1;}.cls-76{fill:#cbcbcb;}.cls-77{fill:#d7d7d7;}.cls-78{fill:#ddd;}.cls-79{fill:#e3e3e3;}.cls-80{fill:#00b8e3;}.cls-81{fill:#33c6e9;}.cls-82{fill:#008aaa;}</style><clipPath
       id="clip-path"><path
         class="cls-1"
         d="M580.49,328.6H567a0.58,0.58,0,0,1-.46-0.23l-1.05-1.43-2.88-3.87-7.86-10.58-4.39-5.92a0.56,0.56,0,0,0-.86,0l-4.6,5.12-0.52.59a0.55,0.55,0,0,0-.14.37V328a0.57,0.57,0,0,1-.56.56H532a0.56,0.56,0,0,1-.56-0.56V272a0.56,0.56,0,0,1,.56-0.56h11.63a0.56,0.56,0,0,1,.56.56v21.47a0.56,0.56,0,0,0,1,.38l6.42-7,9.55-10.39,4.48-4.87a0.56,0.56,0,0,1,.41-0.18h14.28a0.56,0.56,0,0,1,.56.58,0.63,0.63,0,0,1-.14.35l-6.43,7.15-10.7,11.9-4.46,5a0.55,0.55,0,0,0,0,.69l5.56,7.77,5.06,7.13,0.62,0.87,3.83,5.36,4,5.62,2.79,3.9A0.57,0.57,0,0,1,580.49,328.6ZM527,327.81a0.57,0.57,0,0,1-.51.79H514.11a0.55,0.55,0,0,1-.51-0.34l-0.25-.55h0l-4.78-11.11a0.55,0.55,0,0,0-.51-0.34H484.84a0.57,0.57,0,0,0-.52.34l-0.71,1.65-4.31,10v0a0.56,0.56,0,0,1-.5.32H466.43a0.56,0.56,0,0,1-.51-0.79l0.86-2,5.83-13.49h0l0.21-.48,0.25-.56,0.11-.28,1.94-4.5v0l0,0h0l15-34.67a0.57,0.57,0,0,1,.51-0.34h11.61a0.55,0.55,0,0,1,.51.34l7.79,18,3.85,8.91,4.31,10,8.15,18.87Zm-23.71-23.55-0.82-1.91-2.74-6.4L497,289.63a0.57,0.57,0,0,0-1,0l-4.86,11.21-1.48,3.42a0.56,0.56,0,0,0,.51.78h12.61A0.56,0.56,0,0,0,503.26,304.26Zm-36.64,6.44a24.47,24.47,0,0,1-1.14,2.55,28.69,28.69,0,0,1-5.52,7.42l0,0a30.51,30.51,0,0,1-3.13,2.68,29,29,0,0,1-16.14,5.72c-0.68,0-1.38.07-2.08,0.07a29.86,29.86,0,0,1-16.72-4.73,30.35,30.35,0,0,1-4.62-3.74c-0.57-.56-1.12-1.13-1.63-1.72a28.24,28.24,0,0,1-7-19.33,32.44,32.44,0,0,1,.37-5h0l-0.26-.38,0.42-.63a27.71,27.71,0,0,1,8.14-15.07,30.43,30.43,0,0,1,4.31-3.52,28.1,28.1,0,0,1,10.22-4.28h0a32.86,32.86,0,0,1,6.8-.67,29.36,29.36,0,0,1,21.35,8.47,28,28,0,0,1,8.53,17.89v0c0.1,1,.14,2.08.14,3.16A30.07,30.07,0,0,1,466.63,310.7Zm-11-11a18.72,18.72,0,0,0-4.4-12.46,7.21,7.21,0,0,0-.5-0.59,15.67,15.67,0,0,0-12.06-5.39,17.27,17.27,0,0,0-3.69.39,15.75,15.75,0,0,0-8.37,5,18.58,18.58,0,0,0-4.9,12.6c0,0.15,0,.29,0,0.45a18.54,18.54,0,0,0,4.91,13,16.28,16.28,0,0,0,1.48,1.44,15.69,15.69,0,0,0,3.22,2.21,16.71,16.71,0,0,0,14.94-.12,16.26,16.26,0,0,0,4-3c0.17-.17.34-0.34,0.5-0.52a18.55,18.55,0,0,0,2.77-3.92A19.13,19.13,0,0,0,455.6,299.69Zm-47.7,17.53H384.65a0.55,0.55,0,0,1-.56-0.55V272a0.55,0.55,0,0,0-.32-0.5,0.49,0.49,0,0,0-.24-0.06H371.9a0.56,0.56,0,0,0-.56.56v56a0.56,0.56,0,0,0,.56.56h36a0.56,0.56,0,0,0,.56-0.56V317.78A0.56,0.56,0,0,0,407.9,317.22Zm-63.24-47c-0.92-.08-1.85-0.11-2.8-0.11a29.36,29.36,0,0,0-21.31,8.51,30.65,30.65,0,0,0-2.88,3.25h0a28.57,28.57,0,0,0-5.83,18,30.78,30.78,0,0,0,1.86,10.9,26.61,26.61,0,0,0,2.87,5.6h0a28.23,28.23,0,0,0,3.79,4.53,28.92,28.92,0,0,0,5.7,4.34h0c0.51,0.29,1,.58,1.57.85q0.57,0.29,1.17.54h0a32.63,32.63,0,0,0,13.27,2.59,29.57,29.57,0,0,0,4.24-.3h0c0.88-.12,1.76-0.29,2.62-0.5a29.64,29.64,0,0,0,13.31-7.35c0.81-.74,1.61-1.55,2.39-2.4a0.57,0.57,0,0,0,0-.78l-7.38-7.59a0.54,0.54,0,0,0-.49-0.16,0.61,0.61,0,0,0-.33.2,18.73,18.73,0,0,1-15,7,16.65,16.65,0,0,1-5.78-1,16.21,16.21,0,0,1-5.91-3.85,15.61,15.61,0,0,1-3.74-5.94,20.28,20.28,0,0,1-1.09-6.85q0-7.43,4.44-12c0.22-.22.44-0.44,0.67-0.66a17.52,17.52,0,0,1,12.31-4.7,18.45,18.45,0,0,1,14.64,7,0.55,0.55,0,0,0,.84,0l7.18-8.14a0.58,0.58,0,0,0,0-.76A30,30,0,0,0,344.66,270.24Zm-32.26,5.82,2.17-3.78a0.56,0.56,0,0,0-.48-0.84H301.55a0.57,0.57,0,0,0-.48.28l-11.36,19.55h0l-0.61.45-0.46.35a0.58,0.58,0,0,1-.24-0.22l-0.19-.32-0.29-.48L276.7,271.71a0.57,0.57,0,0,0-.48-0.28H263.68a0.56,0.56,0,0,0-.48.84l5.44,9.5L278.47,299l4,6.93a0.57,0.57,0,0,1,.08.28V328a0.56,0.56,0,0,0,.56.56H294.7a0.56,0.56,0,0,0,.56-0.56V306.17a0.57,0.57,0,0,1,.08-0.28l2.8-4.9,10.64-18.61,2.18-3.79,1.44-2.53h0Zm-53.69,41.26H230.48a0.56,0.56,0,0,1-.56-0.56V306a0.57,0.57,0,0,1,.56-0.56H255a0.56,0.56,0,0,0,.56-0.56v-9.75a0.56,0.56,0,0,0-.56-0.56H230.48a0.56,0.56,0,0,1-.56-0.56V283.36a0.56,0.56,0,0,1,.56-0.56h27.34a0.56,0.56,0,0,0,.56-0.56V272a0.56,0.56,0,0,0-.56-0.56h-40.1a0.56,0.56,0,0,0-.56.56v56a0.56,0.56,0,0,0,.56.56h41a0.56,0.56,0,0,0,.56-0.56V317.87A0.56,0.56,0,0,0,258.72,317.31ZM210.59,327q-2.18-3-5.3-7.43-2.44-3.41-5.43-7.62l-0.2-.29q-7.44-10.46-10.43-14.62a0.56,0.56,0,0,1,0-.69l5.09-5.65h0l4.19-4.66,4-4.48,8.28-9.2a0.56,0.56,0,0,0-.42-0.93H196.18a0.57,0.57,0,0,0-.42.18l-8.85,9.61-11.6,12.62a0.56,0.56,0,0,1-1-.38V272a0.55,0.55,0,0,0-.56-0.55H162.15a0.56,0.56,0,0,0-.56.56v56a0.56,0.56,0,0,0,.56.56h11.63a0.56,0.56,0,0,0,.56-0.56V312.61a0.55,0.55,0,0,1,.14-0.37l2.42-2.71,2.7-3a0.56,0.56,0,0,1,.86,0l8.07,10.85,5.8,7.8,2.33,3.14a0.55,0.55,0,0,0,.45.23h13.51a0.57,0.57,0,0,0,.46-0.89Zm-55.66-55.65h-119a1.08,1.08,0,0,0-.91.51s0,0,0,0l-0.59,1-7.28,12.62-8,13.94a1,1,0,0,0,0,1.05l1.75,3L35,328.11a1.06,1.06,0,0,0,.92.53h119a1.18,1.18,0,0,0,1.17-1.18v-54.9A1.19,1.19,0,0,0,154.93,271.37Z"
         id="path460" /></clipPath><linearGradient
       id="linear-gradient"
       x1="17.66"
       y1="300.84"
       x2="584.47"
       y2="300.84"
       gradientUnits="userSpaceOnUse"><stop
         offset="0"
         stop-color="#e6e6e6"
         id="stop463" /><stop
         offset="1"
         stop-color="#595959"
         id="stop465" /></linearGradient></defs><g
     inkscape:label="Layer 1"
     inkscape:groupmode="layer"
     id="layer1"><g
       transform="matrix(0.16671126,0,0,0.16671126,101.14074,12.413215)"
       id="g400"><g
         id="g1245"
         transform="translate(360.1979,125.54961)"><path
           fill="#ffffff"
           d="M 277.7249,0.87048682 C 410.2899,-8.3215132 498.1879,56.550487 548.4459,135.58949 c 25.2,39.63 49.925,99.82 50.039,161.663 0.122,67.194 -21.646,125.383 -50.039,168.078 -29.182,43.883 -66.926,80.128 -114.19,103.927 -79.006,39.783 -189.42,40.871 -261.741,2.566 -80.542003,-42.658 -142.468003,-103.545 -165.5120033,-209.136 -9.222,-42.256 -10.282,-96.855 2.566,-143.7 3.0150003,-10.989 8.4940003,-22.554 12.8310003,-33.359 20.842,-51.924 56.317,-97.076003 100.077003,-128.305003 17.584,-12.548 38.916,-25.028 57.737,-33.359 23.418,-10.365 62.846,-20.6910002 97.511,-23.09400018 z"
           id="path304" /><path
           fill="#000000"
           d="m 529.1839,304.72449 c 0,125.288 -101.566,226.847 -226.852,226.847 -125.286,0 -226.850003,-101.559 -226.850003,-226.847 0,-125.285 101.564003,-226.852003 226.850003,-226.852003 125.285,0 226.852,101.567003 226.852,226.852003 z"
           id="path306" /><path
           fill="#000000"
           d="M 277.7249,0.87048682 C 410.2899,-8.3215132 498.1879,56.550487 548.4459,135.58949 c 25.2,39.63 49.925,99.82 50.039,161.663 0.122,67.194 -21.646,125.383 -50.039,168.078 -29.182,43.883 -66.926,80.128 -114.19,103.927 -79.006,39.783 -189.42,40.871 -261.741,2.566 -80.542003,-42.658 -142.468003,-103.545 -165.5120033,-209.136 -9.222,-42.256 -10.282,-96.855 2.566,-143.7 3.0150003,-10.989 8.4940003,-22.554 12.8310003,-33.359 20.842,-51.924 56.317,-97.076003 100.077003,-128.305003 17.584,-12.548 38.916,-25.028 57.737,-33.359 23.418,-10.365 62.846,-20.6910002 97.511,-23.09400018 z M 232.8179,22.682487 c -49.239,12.766 -85.342,35.637 -116.756,60.303 -45.299003,35.568003 -74.177003,85.203003 -91.096003,144.983003 -18.8230003,66.508 -6.732,146.99 19.246,197.588 26.939,52.472 63.110003,93.203 114.190003,121.889 49.695,27.908 119.591,45.828 192.457,32.076 64.74,-12.218 113.909,-40.421 153.965,-82.115 53.592,-55.785 96.665,-158.534 68.002,-266.872 -7.662,-28.955 -17.679,-59.133 -33.36,-84.681 -8.472,-13.802 -20.904,-27.38 -33.359,-41.057 -47.006,-51.621003 -122.979,-96.1040032 -220.684,-89.813003 -18.594,1.197 -34.935,3.117 -52.605,7.699 z"
           id="path308" /><g
           style="fill:none;stroke:#ffffff;stroke-width:2"
           id="hashpattern"><g
             id="g338"><line
               y2="314.65799"
               x2="578.18799"
               y1="576.78998"
               x1="316.04999"
               id="line310" /><line
               y2="292.754"
               x2="556.41498"
               y1="556.03003"
               x1="293.134"
               id="line312" /><line
               y2="270.85101"
               x2="534.64301"
               y1="535.27301"
               x1="270.21701"
               id="line314" /><line
               y2="248.948"
               x2="512.87"
               y1="514.513"
               x1="247.3"
               id="line316" /><line
               y2="227.04401"
               x2="491.09799"
               y1="493.754"
               x1="224.384"
               id="line318" /><line
               y2="205.14101"
               x2="469.32401"
               y1="473"
               x1="201.467"
               id="line320" /><line
               y2="183.23801"
               x2="447.552"
               y1="452.23599"
               x1="178.55"
               id="line322" /><line
               y2="161.334"
               x2="425.77802"
               y1="431.47699"
               x1="155.633"
               id="line324" /><line
               y2="139.431"
               x2="404"
               y1="410.71799"
               x1="132.716"
               id="line326" /><line
               y2="117.528"
               x2="382.233"
               y1="389.95801"
               x1="109.8"
               id="line328" /><line
               y2="95.625"
               x2="360.45999"
               y1="369.20001"
               x1="86.883003"
               id="line330" /><line
               y2="73.721001"
               x2="338.68799"
               y1="348.44101"
               x1="63.966"
               id="line332" /><line
               y2="51.818001"
               x2="316.91501"
               y1="327.681"
               x1="41.049"
               id="line334" /><line
               y2="29.915001"
               x2="295.142"
               y1="306.922"
               x1="18.132"
               id="line336" /></g><g
             id="g368"><line
               y2="576.96002"
               x2="285.41901"
               y1="309.57199"
               x1="18.042999"
               id="line340" /><line
               y2="555.48798"
               x2="307.62201"
               y1="287.57901"
               x1="39.726002"
               id="line342" /><line
               y2="534.01398"
               x2="329.82501"
               y1="265.586"
               x1="61.409"
               id="line344" /><line
               y2="512.54199"
               x2="352.02899"
               y1="243.593"
               x1="83.092003"
               id="line346" /><line
               y2="491.06799"
               x2="374.23099"
               y1="221.60001"
               x1="104.774"
               id="line348" /><line
               y2="469.595"
               x2="396.436"
               y1="199.60699"
               x1="126.457"
               id="line350" /><line
               y2="448.12201"
               x2="418.63901"
               y1="177.614"
               x1="148.14"
               id="line352" /><line
               y2="426.64801"
               x2="440.84201"
               y1="155.621"
               x1="169.82201"
               id="line354" /><line
               y2="405.17499"
               x2="463.04599"
               y1="133.62801"
               x1="191.505"
               id="line356" /><line
               y2="383.70001"
               x2="485.24799"
               y1="111.635"
               x1="213.188"
               id="line358" /><line
               y2="362.229"
               x2="507.452"
               y1="89.641998"
               x1="234.871"
               id="line360" /><line
               y2="340.755"
               x2="529.65503"
               y1="67.649002"
               x1="256.55301"
               id="line362" /><line
               y2="319.28299"
               x2="551.85797"
               y1="45.657001"
               x1="278.23599"
               id="line364" /><line
               y2="297.80899"
               x2="574.06201"
               y1="23.664"
               x1="299.92001"
               id="line366" /></g></g><path
           d="m 490.7099,106.07949 c -23.593,-23.593003 -52.599,-44.853003 -87.247,-57.737003 -35.914,-13.355 -76.54,-24.612 -124.455,-20.529 -76.326,6.506 -129.916,40.751 -170.645,80.832003 -28.528003,28.073 -49.987003,62.474 -64.152003,102.643 -20.798,58.981 -19.536,128.598 3.849,188.607 19.947,51.187 52.595003,92.473 98.794003,124.455 43.431,30.067 105.765,53.386 175.776,47.473 85.272,-7.202 147.664,-50.95 188.607,-101.36 10.476,-12.896 20.892,-27.473 26.943,-44.906 5.929,-12.561 8.831,-21.1 11.548,-25.661 11.372,-25.482 17.397,-52.368 19.245,-82.114 5.685,-91.492 -29.517,-162.956 -78.263,-211.703 z m -25.131,278.748 c -0.163,0.348 -0.309,0.672 -0.479,1.031 -4.23,12.105 -11.517,22.227 -18.841,31.183 -28.634,35.004 -72.263,65.382 -131.895,70.384 -48.961,4.104 -92.552,-12.087 -122.923,-32.965 -26.392,-18.143 -46.454,-40.601 -60.522,-67.591 -0.858,-1.624 -9.028,-20.447 -9.052,-21.275 -11.145,-34.569 -12.112,-90.155 -0.673,-123.512 7.634,-22.263 20.357,-46.351 37.208,-65.435 23.266,-26.351 46.549,-43.236 83.398,-55.171 16.825,-5.45 31.887,-10.997 52.604,-11.547 50.52,-1.345 101.965,21.338 129.587,46.189 25.384,22.837 54.314,67.322 61.587,109.058 7.485,42.957 -0.503,84.898 -19.999,119.651 z"
           id="path371" /><path
           stroke="#000000"
           stroke-width="6"
           fill="#ffffff"
           d="m 377.768,426.033 c -12.44,0 -23.357,-7.878 -27.167,-19.604 L 336.745,364.211 H 267.43 l -12.874,41.833 C 250.67,417.998 239.67,426 227.166,426 c -3.002,0 -5.984,-0.475 -8.863,-1.409 -14.946,-4.487 -23.431,-20.574 -18.852,-35.84 l 58.506,-185.323 c 3.799,-11.789 14.983,-20.012 27.2,-20.012 h 31.11 c 12.286,0 23.469,8.083 27.194,19.657 l 61.529,185.254 c 4.92,15.146 -3.227,31.405 -18.151,36.263 -2.951,0.958 -6.002,1.443 -9.071,1.443 z"
           id="path373" /><g
           id="OAUTH"
           fill="#ffffff"><g
             id="g385"><path
               d="m 148.001,124.354 -0.073,-0.099 c -7.296,-9.999 -5.155,-23.987 5.59,-31.829 10.745,-7.841 24.548,-5.64 31.844,4.358 l 0.073,0.099 c 7.296,9.999 5.155,23.988 -5.59,31.829 -10.745,7.841 -24.548,5.641 -31.844,-4.358 z m 27.657,-20.183 -0.073,-0.099 c -3.666,-5.024 -10.492,-6.752 -15.814,-2.868 -5.273,3.848 -5.683,10.703 -2.017,15.728 l 0.073,0.099 c 3.667,5.024 10.492,6.752 15.765,2.904 5.323,-3.884 5.733,-10.739 2.066,-15.764 z"
               id="path375" /><path
               d="m 218.344,58.817 10.965,-3.518 30.739,35.734 -12.197,3.913 -5.342,-6.37 -15.833,5.08 -0.58,8.271 -11.962,3.838 z m 18.04,21.958 -8.318,-10.202 -0.889,13.156 z"
               id="path377" /><path
               d="m 279.795,69.567 0.096,-24.203 12.132,0.048 -0.095,23.957 c -0.025,6.22 3.104,9.188 7.908,9.208 4.804,0.019 7.956,-2.801 7.979,-8.836 l 0.097,-24.264 12.132,0.048 -0.095,23.895 c -0.055,13.918 -8.023,19.984 -20.279,19.935 -12.255,-0.05 -19.928,-6.301 -19.875,-19.788 z"
               id="path379" /><path
               d="m 363.859,65.338 -12.368,-3.775 3.056,-10.013 36.163,11.037 -3.056,10.013 -12.368,-3.774 -9.527,31.216 -11.426,-3.487 z"
               id="path381" /><path
               d="m 423.012,76.559 9.946,6.619 -8.938,13.432 12.766,8.496 8.939,-13.433 9.946,6.619 -23.883,35.889 -9.947,-6.619 9.076,-13.638 -12.767,-8.496 -9.075,13.638 -9.946,-6.619 z"
               id="path383" /></g><g
             id="g397"><path
               d="m 458.146,468.883 0.076,0.097 c 7.674,9.713 6.068,23.775 -4.37,32.021 -10.438,8.246 -24.316,6.574 -31.99,-3.139 l -0.076,-0.097 c -7.674,-9.714 -6.067,-23.775 4.37,-32.021 10.438,-8.245 24.316,-6.574 31.99,3.139 z m -26.869,21.227 0.076,0.097 c 3.856,4.881 10.743,6.347 15.914,2.262 5.122,-4.047 5.271,-10.913 1.414,-15.794 l -0.076,-0.097 c -3.855,-4.881 -10.743,-6.347 -15.865,-2.3 -5.171,4.085 -5.319,10.951 -1.463,15.832 z"
               id="path387" /><path
               d="m 390.707,537.182 -10.8,3.997 -32.282,-34.346 12.013,-4.447 5.618,6.13 15.594,-5.772 0.215,-8.288 11.782,-4.361 z m -18.989,-21.142 8.759,9.825 0.309,-13.182 z"
               id="path389" /><path
               d="m 328.888,528.985 1.067,24.179 -12.12,0.535 -1.057,-23.933 c -0.274,-6.214 -3.542,-9.028 -8.341,-8.816 -4.799,0.212 -7.812,3.181 -7.546,9.21 l 1.07,24.24 -12.12,0.535 -1.054,-23.871 c -0.614,-13.904 7.054,-20.346 19.297,-20.886 12.244,-0.541 20.209,5.333 20.804,18.807 z"
               id="path391" /><path
               d="m 244.671,536.891 12.487,3.371 -2.729,10.108 -36.511,-9.855 2.729,-10.109 12.487,3.371 8.507,-31.516 11.536,3.114 z"
               id="path393" /><path
               d="m 185.65,528.108 -10.249,-6.142 8.295,-13.841 -13.153,-7.884 -8.295,13.841 -10.248,-6.142 22.164,-36.979 10.248,6.143 -8.422,14.052 13.154,7.884 8.422,-14.052 10.248,6.143 z"
               id="path395" /></g></g></g></g><path
       class="st0"
       d="m 74.477903,129.20117 c -0.49162,-2.31752 -1.46074,-6.96662 -1.58717,-6.96662 -20.66107,-12.36015 -18.21717,-33.7516 -11.37694,-45.98533 1.46073,15.40804 28.73733,26.04056 12.83768,44.87572 -0.12656,0.23876 0.73039,3.17432 1.46073,5.87107 3.1743,-5.37947 7.94983,-11.85449 7.69701,-12.4725 -19.56553,-47.684842 41.575017,-51.350743 54.286307,-80.944854 5.74464,28.610906 -2.93554,72.882674 -52.081157,84.133204 -0.23864,0.12648 -8.91894,15.40804 -9.29819,15.53445 0,-0.23876 -3.66589,-0.12648 -3.1743,-1.34839 0.26676,-0.74441 0.74441,-1.71356 1.23603,-2.69675 z m -0.60395,-11.48931 c 6.23622,-7.21945 -1.09559,-19.56553 -5.50592,-23.59661 7.45824,12.82363 6.96665,20.28184 5.50592,23.59661 z"
       id="path1102"
       style="stroke-width:0.140456" /></g><style
     type="text/css"
     id="style1072">
	.st0{fill:#17541F;stroke:#000000;stroke-miterlimit:10;}
</style></svg>
