<?xml version="1.0" encoding="UTF-8" standalone="no"?>
<!-- Created with Inkscape (http://www.inkscape.org/) -->

<svg
   version="1.1"
   id="svg132"
   width="1200"
   height="630"
   viewBox="0 0 1200 630"
   sodipodi:docname="postgresql-pgadmin-incus.svg"
   inkscape:version="1.4.4 (dcaf3e7, 2026-05-05)"
   xml:space="preserve"
   xmlns:inkscape="http://www.inkscape.org/namespaces/inkscape"
   xmlns:sodipodi="http://sodipodi.sourceforge.net/DTD/sodipodi-0.dtd"
   xmlns="http://www.w3.org/2000/svg"
   xmlns:svg="http://www.w3.org/2000/svg"><defs
     id="defs136"><style
       id="style368">.cls-1{fill:#1d1d1b;}.cls-2{fill:#e9500e;}.cls-3{fill:#fff;}</style><clipPath
       id="clipPath8"><path
         d="m 76,2 0,46 -22,0 0,23 -18.419263,0 c -0.07818,0.665694 -0.141485,1.332869 -0.205737,2 -1.151162,12.530963 1.036422,24.087546 6.0625,33.96875 L 43.125,110 c 1.011403,1.81678 2.191241,3.52297 3.4375,5.1875 1.244725,1.66248 1.685716,2.58262 2.46875,3.6875 C 62.319911,133.81083 82.129473,141 105,141 155.64836,141 198.63299,118.56201 217.65625,68.15625 231.15302,69.54122 244.09968,66.080358 250,54.5625 240.60137,49.138835 228.52163,50.877226 221.5625,54.375 L 240,2 168,48 145,48 145,2 z"
         id="path10" /></clipPath><style
       id="style1">.cls-1{fill:#808285;}.cls-2{fill:#262262;}</style></defs><sodipodi:namedview
     id="namedview134"
     pagecolor="#ffffff"
     bordercolor="#000000"
     borderopacity="0.25"
     inkscape:showpageshadow="2"
     inkscape:pageopacity="0.0"
     inkscape:pagecheckerboard="0"
     inkscape:deskcolor="#d1d1d1"
     showgrid="false"
     inkscape:zoom="0.32717719"
     inkscape:cx="342.32215"
     inkscape:cy="128.37081"
     inkscape:window-width="1272"
     inkscape:window-height="990"
     inkscape:window-x="1274"
     inkscape:window-y="5"
     inkscape:window-maximized="0"
     inkscape:current-layer="g138" /><g
     inkscape:groupmode="layer"
     inkscape:label="Image"
     id="g138"><g
       stroke="#ffffff"
       stroke-width="1.5"
       id="g505"
       transform="matrix(1.2989428,0,0,1.2989428,140.3913,107.87664)"><g
         transform="matrix(0.8660254,0.5,0,1.1547005,0,0)"
         id="g497"><rect
           x="110"
           y="-72"
           width="175"
           height="75"
           fill="#333333"
           transform="skewX(-50)"
           id="rect475" /><rect
           x="110"
           y="3"
           width="87.5"
           height="75"
           fill="#cdcdcd"
           transform="skewX(-50)"
           id="rect477" /><rect
           x="16.5"
           y="78.900002"
           width="87.5"
           height="25"
           fill="#cdcdcd"
           id="rect479" /><rect
           x="16.5"
           y="104.5"
           width="175"
           height="25"
           fill="#888888"
           id="rect481" /><rect
           x="16.5"
           y="130"
           width="175"
           height="50"
           fill="#dd4814"
           id="rect483" /><rect
           x="104"
           y="166"
           width="89.5"
           height="25"
           fill="#cdcdcd"
           transform="skewY(-40)"
           id="rect485" /><rect
           x="228.3"
           y="29.5"
           width="87.5"
           height="75"
           fill="#888888"
           transform="skewX(-50)"
           id="rect487" /><rect
           x="191.8"
           y="266"
           width="89.5"
           height="25"
           fill="#888888"
           transform="skewY(-40)"
           id="rect489" /><rect
           x="192"
           y="291"
           width="179.5"
           height="50"
           fill="#dd4814"
           transform="skewY(-40)"
           id="rect491" /><rect
           x="282.29999"
           y="240"
           width="89.099998"
           height="50"
           fill="#333333"
           transform="skewY(-40)"
           id="rect493" /><rect
           x="194"
           y="3.7"
           width="87.5"
           height="25"
           fill="#333333"
           id="rect495" /></g><line
         x1="93"
         y1="57"
         x2="93"
         y2="88"
         id="line499" /><line
         x1="169"
         y1="131"
         x2="92"
         y2="88"
         id="line501" /><line
         x1="92"
         y1="88"
         x2="14"
         y2="128"
         id="line503" /></g><g
       id="g1"
       transform="matrix(0.72155217,-0.41678874,0.40633904,0.70413844,590.32484,285.495)"
       style="stroke-width:1.61997"><g
         id="orginal"
         style="clip-rule:nonzero;fill-rule:nonzero;stroke:#000000;stroke-width:1.61997;stroke-miterlimit:4">
	</g><g
         id="Layer_x0020_3"
         style="clip-rule:nonzero;fill:none;fill-rule:nonzero;stroke:#ffffff;stroke-width:20.193;stroke-linecap:round;stroke-linejoin:round;stroke-miterlimit:4">
<path
   style="fill:#000000;stroke:#000000;stroke-width:60.5792;stroke-linecap:butt;stroke-linejoin:miter"
   d="m 323.205,324.227 c 2.833,-23.601 1.984,-27.062 19.563,-23.239 l 4.463,0.392 c 13.517,0.615 31.199,-2.174 41.587,-7 22.362,-10.376 35.622,-27.7 13.572,-23.148 -50.297,10.376 -53.755,-6.655 -53.755,-6.655 C 401.746,185.774 423.948,85.741 404.784,61.255 352.514,-5.534 262.036,26.049 260.522,26.869 l -0.482,0.089 c -9.938,-2.062 -21.06,-3.294 -33.554,-3.496 -22.761,-0.374 -40.032,5.967 -53.133,15.904 0,0 -161.408,-66.498 -153.899,83.628 1.597,31.936 45.777,241.655 98.47,178.31 19.259,-23.163 37.871,-42.748 37.871,-42.748 9.242,6.14 20.307,9.272 31.912,8.147 l 0.897,-0.765 c -0.281,2.876 -0.157,5.689 0.359,9.019 -13.572,15.167 -9.584,17.83 -36.723,23.416 -27.457,5.659 -11.326,15.734 -0.797,18.367 12.768,3.193 42.305,7.716 62.268,-20.224 l -0.795,3.188 c 5.325,4.26 4.965,30.619 5.72,49.452 0.756,18.834 2.017,36.409 5.856,46.771 3.839,10.36 8.369,37.05 44.036,29.406 29.809,-6.388 52.6,-15.582 54.677,-101.107"
   id="path1" />
<path
   style="fill:#336791;stroke:none;stroke-width:20.193"
   d="m 402.395,271.23 c -50.302,10.376 -53.76,-6.655 -53.76,-6.655 53.111,-78.808 75.313,-178.843 56.153,-203.326 -52.27,-66.785 -142.752,-35.2 -144.262,-34.38 l -0.486,0.087 c -9.938,-2.063 -21.06,-3.292 -33.56,-3.496 -22.761,-0.373 -40.026,5.967 -53.127,15.902 0,0 -161.411,-66.495 -153.904,83.63 1.597,31.938 45.776,241.657 98.471,178.312 19.26,-23.163 37.869,-42.748 37.869,-42.748 9.243,6.14 20.308,9.272 31.908,8.147 l 0.901,-0.765 c -0.28,2.876 -0.152,5.689 0.361,9.019 -13.575,15.167 -9.586,17.83 -36.723,23.416 -27.459,5.659 -11.328,15.734 -0.796,18.367 12.768,3.193 42.307,7.716 62.266,-20.224 l -0.796,3.188 c 5.319,4.26 9.054,27.711 8.428,48.969 -0.626,21.259 -1.044,35.854 3.147,47.254 4.191,11.4 8.368,37.05 44.042,29.406 29.809,-6.388 45.256,-22.942 47.405,-50.555 1.525,-19.631 4.976,-16.729 5.194,-34.28 l 2.768,-8.309 c 3.192,-26.611 0.507,-35.196 18.872,-31.203 l 4.463,0.392 c 13.517,0.615 31.208,-2.174 41.591,-7 22.358,-10.376 35.618,-27.7 13.573,-23.148 z"
   id="path2" />
<path
   d="m 215.866,286.484 c -1.385,49.516 0.348,99.377 5.193,111.495 4.848,12.118 15.223,35.688 50.9,28.045 29.806,-6.39 40.651,-18.756 45.357,-46.051 3.466,-20.082 10.148,-75.854 11.005,-87.281"
   id="path3"
   style="stroke-width:20.193" />
<path
   d="m 173.104,38.256 c 0,0 -161.521,-66.016 -154.012,84.109 1.597,31.938 45.779,241.664 98.473,178.316 19.256,-23.166 36.671,-41.335 36.671,-41.335"
   id="path4"
   style="stroke-width:20.193" />
<path
   d="m 260.349,26.207 c -5.591,1.753 89.848,-34.889 144.087,34.417 19.159,24.484 -3.043,124.519 -56.153,203.329"
   id="path5"
   style="stroke-width:20.193" />
<path
   style="stroke-width:20.193;stroke-linejoin:bevel"
   d="m 348.282,263.953 c 0,0 3.461,17.036 53.764,6.653 22.04,-4.552 8.776,12.774 -13.577,23.155 -18.345,8.514 -59.474,10.696 -60.146,-1.069 -1.729,-30.355 21.647,-21.133 19.96,-28.739 -1.525,-6.85 -11.979,-13.573 -18.894,-30.338 -6.037,-14.633 -82.796,-126.849 21.287,-110.183 3.813,-0.789 -27.146,-99.002 -124.553,-100.599 -97.385,-1.597 -94.19,119.762 -94.19,119.762"
   id="path6" />
<path
   d="m 188.604,274.334 c -13.577,15.166 -9.584,17.829 -36.723,23.417 -27.459,5.66 -11.326,15.733 -0.797,18.365 12.768,3.195 42.307,7.718 62.266,-20.229 6.078,-8.509 -0.036,-22.086 -8.385,-25.547 -4.034,-1.671 -9.428,-3.765 -16.361,3.994 z"
   id="path7"
   style="stroke-width:20.193" />
<path
   d="m 187.715,274.069 c -1.368,-8.917 2.93,-19.528 7.536,-31.942 6.922,-18.626 22.893,-37.255 10.117,-96.339 -9.523,-44.029 -73.396,-9.163 -73.436,-3.193 -0.039,5.968 2.889,30.26 -1.067,58.548 -5.162,36.913 23.488,68.132 56.479,64.938"
   id="path8"
   style="stroke-width:20.193" />
<path
   style="fill:#ffffff;stroke-width:6.73097;stroke-linecap:butt;stroke-linejoin:miter"
   d="m 172.517,141.7 c -0.288,2.039 3.733,7.48 8.976,8.207 5.234,0.73 9.714,-3.522 9.998,-5.559 0.284,-2.039 -3.732,-4.285 -8.977,-5.015 -5.237,-0.731 -9.719,0.333 -9.996,2.367 z"
   id="path9" />
<path
   style="fill:#ffffff;stroke-width:3.36548;stroke-linecap:butt;stroke-linejoin:miter"
   d="m 331.941,137.543 c 0.284,2.039 -3.732,7.48 -8.976,8.207 -5.238,0.73 -9.718,-3.522 -10.005,-5.559 -0.277,-2.039 3.74,-4.285 8.979,-5.015 5.239,-0.73 9.718,0.333 10.002,2.368 z"
   id="path10-0" />
<path
   d="m 350.676,123.432 c 0.863,15.994 -3.445,26.888 -3.988,43.914 -0.804,24.748 11.799,53.074 -7.191,81.435"
   id="path11"
   style="stroke-width:20.193" />
<path
   style="stroke-width:4.8599"
   d="M 0,60.232"
   id="path12" />
</g></g><g
       id="g19495"
       transform="matrix(18.790384,0,0,18.790384,-1912.5448,-2577.0338)"
       style="stroke-width:0.411117"><g
         id="g2"
         transform="matrix(0.08660254,0.05,-0.05,0.08660254,140.979,131.70317)"
         style="fill:#ffffff;stroke-width:4.11117"><path
           id="path19493"
           style="fill:#ffffff;fill-opacity:1;stroke-width:1.14446"
           d="m 137.99623,138.15901 c -3.64033,-7e-5 -6.59142,2.9406 -6.59133,6.56807 1.9e-4,3.62727 2.9512,6.56763 6.59133,6.56756 1.61292,-0.002 2.94784,-0.41865 4.15263,-1.48723 v 0.36534 c 0,0 0.0107,0.1363 0,0.36535 -0.0448,0.95646 -0.18066,1.56069 -0.75712,2.10192 -0.65237,0.61248 -1.51197,0.78169 -2.40312,0.86269 -0.9703,0.0882 -2.0126,-0.048 -2.94731,-0.32291 -0.69826,-0.20538 -1.98128,-0.91881 -1.98128,-0.91881 l -1.60765,3.1688 c 0,0 1.86165,0.87215 2.87218,1.14277 0.96316,0.25796 1.97673,0.36688 2.97346,0.39388 1.3588,0.0368 2.64195,-0.0435 3.94983,-0.41384 0.80232,-0.22716 1.67439,-0.66671 2.32059,-1.19373 0.57153,-0.46612 0.96386,-0.90782 1.33207,-1.54683 0.44528,-0.77275 0.67432,-1.51884 0.94134,-2.4187 0.0971,-0.42463 0.0933,-0.43615 0.0933,-0.43615 v -12.46642 h -4.5651 v 1.32499 c -1.20555,-1.06671 -2.76165,-1.65613 -4.37389,-1.65675 z m 1.26504,3.76153 c 1.67428,1.7e-4 3.03142,1.2775 3.03134,2.85305 9e-5,1.57556 -1.35706,2.85289 -3.03134,2.85306 -1.67448,10e-5 -3.03195,-1.27731 -3.03186,-2.85306 -8e-5,-1.57574 1.35738,-2.85315 3.03186,-2.85305 z"
           sodipodi:nodetypes="ccccccsssccssssscccccccccccc" /><path
           id="rect19493"
           style="fill:#ffffff;fill-opacity:1;stroke-width:1.08775"
           d="m 126.31322,136.86038 a 6.5912013,7.03372 0 0 0 -4.08502,1.53272 v -1.21233 h -4.56458 v 18.30638 h 4.56458 v -6.09213 a 6.5912013,7.03372 0 0 0 4.08502,1.53272 6.5912013,7.03372 0 0 0 4.45192,-1.86242 8.4544756,8.4246009 0 0 1 -1.22369,-4.33824 8.4544756,8.4246009 0 0 1 1.87533,-5.26479 6.5912013,7.03372 0 0 0 -5.10356,-2.60191 z m -1.10381,3.76721 a 2.9811795,3.2839553 0 0 1 2.98121,3.28404 2.9811795,3.2839553 0 0 1 -2.98121,3.28404 2.9811795,3.2839553 0 0 1 -2.98121,-3.28404 2.9811795,3.2839553 0 0 1 2.98121,-3.28404 z" /></g></g></g><style
     type="text/css"
     id="style1-0"> .st0{fill:#FA2921;} .st1{fill:#ED79B5;} .st2{fill:#FFB400;} .st3{fill:#1E83F7;} .st4{fill:#18C249;} </style></svg>
