<?xml version="1.0" encoding="UTF-8" standalone="no"?>
<!-- Created with Inkscape (http://www.inkscape.org/) -->

<svg
   version="1.1"
   id="svg132"
   width="1200"
   height="630"
   viewBox="0 0 1200 630"
   sodipodi:docname="public-ipv6-lxd.svg"
   inkscape:version="1.2.2 (732a01da63, 2022-12-09)"
   xml:space="preserve"
   xmlns:inkscape="http://www.inkscape.org/namespaces/inkscape"
   xmlns:sodipodi="http://sodipodi.sourceforge.net/DTD/sodipodi-0.dtd"
   xmlns="http://www.w3.org/2000/svg"
   xmlns:svg="http://www.w3.org/2000/svg"><defs
     id="defs136"><style
       id="style368">.cls-1{fill:#1d1d1b;}.cls-2{fill:#e9500e;}.cls-3{fill:#fff;}</style></defs><sodipodi:namedview
     id="namedview134"
     pagecolor="#ffffff"
     bordercolor="#000000"
     borderopacity="0.25"
     inkscape:showpageshadow="2"
     inkscape:pageopacity="0.0"
     inkscape:pagecheckerboard="0"
     inkscape:deskcolor="#d1d1d1"
     showgrid="false"
     inkscape:zoom="0.65435437"
     inkscape:cx="384.34832"
     inkscape:cy="129.89903"
     inkscape:window-width="3440"
     inkscape:window-height="1369"
     inkscape:window-x="-8"
     inkscape:window-y="-8"
     inkscape:window-maximized="1"
     inkscape:current-layer="g138" /><g
     inkscape:groupmode="layer"
     inkscape:label="Image"
     id="g138"><g
       id="g705"
       transform="matrix(1.0133256,0.27151979,-0.27151979,1.0133256,175.51258,-76.994297)"><rect
         class="cls-2"
         width="233.93118"
         height="360.27347"
         id="rect384"
         x="95.978767"
         y="137.33247" /><circle
         class="cls-3"
         cx="146.99988"
         cy="375.12964"
         r="24.5497"
         id="circle386" /><circle
         class="cls-3"
         cx="249.24023"
         cy="321.29871"
         r="24.5497"
         id="circle388" /><path
         class="cls-3"
         d="m 202.368,438.31075 a 59.78848,59.78848 0 0 1 -40.772,-31.0957 35.34018,35.34018 0 0 1 -20.9902,2.58008 79.92109,79.92109 0 0 0 57.5395,48.22363 80.88379,80.88379 0 0 0 17.4326,1.79395 35.1274,35.1274 0 0 1 -7.1879,-20.52539 c -2.022,-0.22461 -4.0415,-0.55274 -6.022,-0.97657 z"
         id="path390" /><circle
         class="cls-3"
         cx="243.70935"
         cy="438.44617"
         r="24.5497"
         id="circle392" /><path
         class="cls-3"
         d="m 277.8714,429.42892 a 80.3186,80.3186 0 0 0 4.0249,-94.23828 35.38432,35.38432 0 0 1 -13.8051,16.168 60.18666,60.18666 0 0 1 -1.9673,59.78028 35.20475,35.20475 0 0 1 11.7475,18.29 z"
         id="path394" /><path
         class="cls-3"
         d="m 145.1058,339.92306 q 0.9346,-0.0513 1.8701,-0.0508 a 35.42979,35.42979 0 0 1 18.6177,5.30175 59.87445,59.87445 0 0 1 48.2109,-25.78418 35.5969,35.5969 0 0 1 7.4478,-19.90966 80.69546,80.69546 0 0 0 -76.1465,40.44287 z"
         id="path396" /></g><path
       fill="#293239"
       d="m 799.57417,205.18136 c -0.5556,-1.26273 -1.13645,-2.47493 -1.79306,-3.56087 -0.65662,-1.08594 -1.4395,-2.17188 -2.32341,-3.23256 -4.57104,-5.60647 -12.02108,-11.11193 -21.54198,-16.3396 L 697.31921,140.07559 620.72269,98.052308 c -9.52089,-5.22766 -18.25891,-8.5865 -25.65845,-9.54616 -1.41423,-0.176779 -2.80323,-0.2778 -4.11645,-0.2778 -8.18242,0 -18.4357,3.61138 -29.80017,9.82396 l -76.59651,41.998022 -76.59652,41.97276 c -9.52089,5.22766 -16.97094,10.70786 -21.54198,16.33959 -0.8839,1.08593 -1.66678,2.17187 -2.3234,3.23255 -0.65662,1.08594 -1.23746,2.29815 -1.79306,3.56087 -2.82849,6.59138 -4.14172,15.43042 -4.14172,25.86048 v 167.94158 c 0,12.45041 1.84357,22.67843 5.93478,29.42136 4.09121,6.74291 12.50092,13.35956 23.86538,19.57213 l 76.59652,41.99803 76.59651,41.97275 c 9.5209,5.20242 18.25892,8.5865 25.65845,9.54617 1.41424,0.17678 2.80324,0.30305 4.11646,0.30305 1.31323,0 2.70222,-0.10104 4.11647,-0.30305 7.39952,-0.95967 16.13754,-4.31851 25.65844,-9.54617 l 153.19303,-83.97078 c 11.33921,-6.21257 19.77418,-12.82922 23.86539,-19.57213 0.6566,-1.08594 1.23746,-2.29816 1.79305,-3.56088 2.8285,-6.56614 4.14173,-15.43043 4.14173,-25.86048 V 231.01658 c 0.0252,-10.43006 -1.28799,-19.2691 -4.11647,-25.83522 z M 500.84018,402.21598 c 0,3.8134 -4.09122,6.26308 -7.45004,4.41951 l -27.401,-15.02635 c -6.43986,-3.53561 -10.4553,-10.30379 -10.4553,-17.6528 v -81.16756 c 0,-3.81342 4.09121,-6.23784 7.45003,-4.41951 l 32.65391,17.88009 c 3.23256,1.76781 5.22765,5.15189 5.22765,8.83904 v 87.12758 z m 225.4963,-28.25964 c 0,7.34901 -4.01544,14.14244 -10.4553,17.67806 l -27.40101,15.00109 c -3.35882,1.84357 -7.45003,-0.58085 -7.45003,-4.41951 V 294.68285 c 0,-3.81341 -4.09122,-6.26307 -7.45004,-4.41951 l -49.49857,27.1232 c -6.43987,3.53561 -10.45531,10.30379 -10.45531,17.6528 v 106.67448 c 0,3.68715 -1.9951,7.07123 -5.22766,8.83903 l -7.77835,4.24274 c -6.0358,3.30832 -13.33431,3.30832 -19.3701,0 l -7.72785,-4.24274 c -3.23256,-1.7678 -5.22765,-5.15188 -5.22765,-8.83903 V 335.06459 c 0,-7.34902 -4.01544,-14.11719 -10.45531,-17.6528 L 455.53384,261.34708 v -5.30341 c 0,-7.34904 4.01544,-14.11721 10.4553,-17.65282 l 11.28871,-6.21257 c 6.03579,-3.30833 13.3343,-3.30833 19.34485,0 l 84.62741,46.36703 c 6.03579,3.30833 13.3343,3.30833 19.34485,0 l 39.09377,-21.44096 c 3.4851,-1.91933 3.4851,-6.91969 0,-8.83903 l -87.83471,-48.13484 c -3.48511,-1.91934 -3.48511,-6.9197 0,-8.83903 l 29.39609,-16.11229 c 6.03579,-3.30833 13.3343,-3.30833 19.3701,0 l 115.26097,63.16118 c 6.46512,3.53562 10.48056,10.30379 10.48056,17.67807 v 117.93793 z"
       id="path452"
       sodipodi:nodetypes="cscccccsccccccsssccccscccccscccccssccscccccssccssccccssccscccccccccsccscc"
       style="stroke-width:2.52544" /><g
       id="g324"
       transform="matrix(0.67487917,-0.38964167,0.38964167,0.67487917,624.92482,240.65033)">
	<path
   fill="#00bf38"
   d="m 256.281,498.5 c -99.684,0.155 -180.9,-80.795 -181.052,-180.481 -0.011,-12.94 1.369,-25.977 4.141,-38.74 0.162,-0.744 0.525,-2.327 0.525,-2.327 0.146,-0.726 0.79,-3.644 0.952,-4.325 0.141,-0.609 24.71,-111.25 24.863,-111.953 0.145,-0.671 9.343,-42.157 9.521,-42.917 13.207,-60.35 72.068,-104.153 140.291,-104.257 68.28,-0.11 127.296,43.554 140.639,103.936 0.169,0.688 5.159,22.867 5.328,23.623 0.162,0.669 29.035,128.858 29.035,128.858 0.167,0.758 0.346,1.517 0.498,2.273 l 0.947,4.135 c 0.188,0.815 0.373,1.617 0.545,2.441 2.81,12.735 4.233,25.744 4.256,38.684 0.158,99.672 -80.815,180.914 -180.489,181.05 z"
   id="path318" />
	<path
   fill="#ffffff"
   d="m 255.902,244.089 c -40.603,0 -73.646,33.052 -73.646,73.662 0,40.6 33.044,73.63 73.646,73.63 40.608,0 73.642,-33.03 73.642,-73.63 0,-40.61 -33.033,-73.662 -73.642,-73.662 z m -23.935,15.178 c -3.593,5.248 -6.675,11.689 -9.101,19.035 H 206.57 c 6.673,-8.329 15.399,-14.946 25.397,-19.035 z m -32.202,29.499 h 20.26 c -1.617,7.345 -2.63,15.323 -2.933,23.745 h -24.158 c 0.704,-8.512 3.107,-16.515 6.831,-23.745 z m 0,57.927 c -3.724,-7.199 -6.127,-15.237 -6.831,-23.715 h 24.158 c 0.303,8.413 1.315,16.401 2.933,23.715 z m 6.798,10.485 h 16.303 c 2.426,7.354 5.508,13.788 9.101,19.022 -9.998,-4.111 -18.724,-10.721 -25.404,-19.022 z m 44.111,22.468 c -6.209,-2.943 -12.272,-10.889 -16.657,-22.468 h 16.657 z m 0,-32.953 h -19.892 c -1.744,-7.091 -2.882,-15.056 -3.206,-23.715 h 23.098 z m 0,-34.182 h -23.098 c 0.324,-8.666 1.473,-16.649 3.206,-23.745 h 19.892 z m 0,-34.209 h -16.65 c 4.378,-11.59 10.447,-19.538 16.65,-22.48 z m 61.355,10.464 c 3.74,7.23 6.139,15.233 6.831,23.745 h -24.174 c -0.282,-8.422 -1.29,-16.4 -2.923,-23.745 z m -6.816,-10.464 h -16.296 c -2.415,-7.346 -5.491,-13.787 -9.105,-19.035 10.008,4.089 18.739,10.706 25.401,19.035 z m -44.07,-22.481 c 6.176,2.942 12.266,10.891 16.634,22.48 h -16.634 z m 0,32.945 h 19.854 c 1.743,7.096 2.896,15.079 3.225,23.745 h -23.079 z m 0,34.213 h 23.079 c -0.329,8.659 -1.481,16.624 -3.225,23.715 h -19.854 z m 0,56.667 v -22.468 h 16.65 c -4.385,11.579 -10.475,19.524 -16.65,22.468 z m 18.669,-3.446 c 3.614,-5.234 6.69,-11.668 9.105,-19.022 h 16.307 c -6.673,8.301 -15.404,14.911 -25.412,19.022 z m 32.217,-29.507 h -20.266 c 1.633,-7.313 2.641,-15.302 2.923,-23.715 h 24.174 c -0.692,8.478 -3.09,16.516 -6.831,23.715 z"
   id="path320" />
	<path
   fill="#ffffff"
   d="m 255.902,173.122 c -38.859,0 -74.178,15.457 -100.187,40.473 9.087,-40.607 18.35,-82.033 18.554,-82.898 7.048,-33 41.371,-56.926 81.633,-56.926 40.289,0 74.634,24.036 81.709,57.269 l 5.731,25.62 c 1.462,6.488 7.897,10.601 14.403,9.115 6.491,-1.446 10.582,-7.877 9.127,-14.385 l -5.706,-25.487 C 351.764,81.728 307.487,49.654 255.901,49.654 c -51.569,0 -95.804,31.976 -105.189,75.881 -35.378,158.137 -36.002,160.92 -36.002,160.92 -0.032,0.17 -0.054,0.312 -0.075,0.473 -0.493,2.195 -0.92,4.434 -1.288,6.687 -0.042,0.277 -0.104,0.543 -0.157,0.812 -0.362,2.354 -0.693,4.717 -0.964,7.09 -0.026,0.22 -0.06,0.436 -0.075,0.645 -0.255,2.316 -0.449,4.66 -0.596,7.01 -0.01,0.267 -0.043,0.533 -0.043,0.801 -0.146,2.574 -0.217,5.149 -0.217,7.768 0,79.736 64.863,144.609 144.606,144.609 79.732,0 144.612,-64.873 144.612,-144.609 0.002,-79.75 -64.878,-144.619 -144.611,-144.619 z m 0,265.117 c -66.443,0 -120.496,-54.058 -120.496,-120.502 0,-2.162 0.055,-4.322 0.167,-6.465 0.011,-0.209 0.05,-0.4 0.05,-0.588 0.119,-1.984 0.271,-3.979 0.498,-5.963 0.01,-0.119 0.036,-0.232 0.036,-0.344 0.222,-2.049 0.515,-4.094 0.85,-6.141 0.012,-0.146 0.044,-0.314 0.082,-0.456 0.32,-1.929 0.683,-3.88 1.114,-5.796 11.833,-54.119 60.095,-94.748 117.699,-94.748 66.451,0 120.498,54.059 120.498,120.5 0,66.446 -54.046,120.503 -120.498,120.503 z"
   id="path322" />
</g></g></svg>
