<?xml version="1.0" encoding="UTF-8" standalone="no"?>
<!-- Created with Inkscape (http://www.inkscape.org/) -->

<svg
   version="1.1"
   id="svg132"
   width="1200"
   height="630"
   viewBox="0 0 1200 630"
   sodipodi:docname="smtp-outbound-server.svg"
   inkscape:version="1.3.2 (091e20e, 2023-11-25, custom)"
   xml:space="preserve"
   xmlns:inkscape="http://www.inkscape.org/namespaces/inkscape"
   xmlns:sodipodi="http://sodipodi.sourceforge.net/DTD/sodipodi-0.dtd"
   xmlns="http://www.w3.org/2000/svg"
   xmlns:svg="http://www.w3.org/2000/svg"><defs
     id="defs136"><style
       id="style368">.cls-1{fill:#1d1d1b;}.cls-2{fill:#e9500e;}.cls-3{fill:#fff;}</style></defs><sodipodi:namedview
     id="namedview134"
     pagecolor="#ffffff"
     bordercolor="#000000"
     borderopacity="0.25"
     inkscape:showpageshadow="2"
     inkscape:pageopacity="0.0"
     inkscape:pagecheckerboard="0"
     inkscape:deskcolor="#d1d1d1"
     showgrid="false"
     inkscape:zoom="0.32717719"
     inkscape:cx="82.524092"
     inkscape:cy="265.91096"
     inkscape:window-width="1350"
     inkscape:window-height="1032"
     inkscape:window-x="479"
     inkscape:window-y="152"
     inkscape:window-maximized="0"
     inkscape:current-layer="g138" /><g
     inkscape:groupmode="layer"
     inkscape:label="Image"
     id="g138"><g
       stroke="#ffffff"
       stroke-width="1.5"
       id="g505"
       transform="matrix(1.2989428,0,0,1.2989428,656.54577,107.87664)"><g
         transform="matrix(0.8660254,0.5,0,1.1547005,0,0)"
         id="g497"><rect
           x="110"
           y="-72"
           width="175"
           height="75"
           fill="#333333"
           transform="skewX(-50)"
           id="rect475" /><rect
           x="110"
           y="3"
           width="87.5"
           height="75"
           fill="#cdcdcd"
           transform="skewX(-50)"
           id="rect477" /><rect
           x="16.5"
           y="78.900002"
           width="87.5"
           height="25"
           fill="#cdcdcd"
           id="rect479" /><rect
           x="16.5"
           y="104.5"
           width="175"
           height="25"
           fill="#888888"
           id="rect481" /><rect
           x="16.5"
           y="130"
           width="175"
           height="50"
           fill="#dd4814"
           id="rect483" /><rect
           x="104"
           y="166"
           width="89.5"
           height="25"
           fill="#cdcdcd"
           transform="skewY(-40)"
           id="rect485" /><rect
           x="228.3"
           y="29.5"
           width="87.5"
           height="75"
           fill="#888888"
           transform="skewX(-50)"
           id="rect487" /><rect
           x="191.8"
           y="266"
           width="89.5"
           height="25"
           fill="#888888"
           transform="skewY(-40)"
           id="rect489" /><rect
           x="192"
           y="291"
           width="179.5"
           height="50"
           fill="#dd4814"
           transform="skewY(-40)"
           id="rect491" /><rect
           x="282.29999"
           y="240"
           width="89.099998"
           height="50"
           fill="#333333"
           transform="skewY(-40)"
           id="rect493" /><rect
           x="194"
           y="3.7"
           width="87.5"
           height="25"
           fill="#333333"
           id="rect495" /></g><line
         x1="93"
         y1="57"
         x2="93"
         y2="88"
         id="line499" /><line
         x1="169"
         y1="131"
         x2="92"
         y2="88"
         id="line501" /><line
         x1="92"
         y1="88"
         x2="14"
         y2="128"
         id="line503" /></g><g
       fill="#d70751"
       id="g4"
       transform="matrix(1.5182057,0,0,1.5182057,207.97996,231.50248)"><path
         d="m 64.525,62.053 c -4.125,0.058 0.78,2.125 6.165,2.954 1.488,-1.161 2.838,-2.336 4.04,-3.479 -3.354,0.821 -6.765,0.838 -10.205,0.525 m 22.14,-5.52 c 2.457,-3.389 4.246,-7.102 4.878,-10.939 -0.551,2.736 -2.035,5.099 -3.435,7.592 -7.711,4.854 -0.726,-2.883 -0.004,-5.824 -8.29,10.436 -1.138,6.257 -1.439,9.171 m 8.174,-21.265 c 0.497,-7.428 -1.462,-5.08 -2.121,-2.245 0.766,0.4 1.377,5.237 2.121,2.245 M 48.883,-66.264 c 2.201,0.395 4.757,0.698 4.398,1.224 2.407,-0.528 2.954,-1.015 -4.398,-1.224"
         id="path1" /><path
         d="m 53.281,-65.04 -1.556,0.32 1.448,-0.127 0.108,-0.193"
         id="path2" /><path
         d="m 121.93,38.085 c 0.247,6.671 -1.95,9.907 -3.932,15.637 l -3.564,1.781 c -2.919,5.666 0.282,3.598 -1.807,8.105 -4.556,4.049 -13.823,12.67 -16.789,13.457 -2.163,-0.047 1.469,-2.554 1.943,-3.537 -6.097,4.188 -4.894,6.285 -14.217,8.83 L 83.291,81.751 C 60.29,92.569 28.344,71.129 28.765,41.875 28.519,43.732 28.067,43.268 27.557,44.019 26.371,28.967 34.509,13.849 48.232,7.676 61.659,1.03 77.395,3.758 87.012,12.72 81.73,5.8 71.217,-1.534 58.757,-0.848 46.549,-0.655 35.132,7.102 31.321,15.521 c -6.253,3.938 -6.979,15.177 -9.704,17.233 -3.665,26.943 6.896,38.583 24.762,52.275 2.812,1.896 0.792,2.184 1.173,3.627 C 41.616,85.877 36.18,81.68 31.711,76.542 c 2.372,3.473 4.931,6.847 8.239,9.499 -5.596,-1.897 -13.074,-13.563 -15.256,-14.038 9.647,17.274 39.142,30.295 54.587,23.836 -7.146,0.263 -16.226,0.146 -24.256,-2.822 -3.371,-1.734 -7.958,-5.331 -7.14,-6.003 21.079,7.875 42.854,5.965 61.09,-8.655 4.641,-3.614 9.709,-9.761 11.173,-9.846 -2.206,3.317 0.377,1.596 -1.318,4.523 4.625,-7.456 -2.008,-3.035 4.779,-12.877 l 2.507,3.453 c -0.931,-6.188 7.687,-13.704 6.813,-23.492 1.975,-2.994 2.206,3.22 0.107,10.107 2.912,-7.64 0.767,-8.867 1.516,-15.171 0.81,2.118 1.867,4.37 2.412,6.606 -1.895,-7.382 1.948,-12.433 2.898,-16.724 -0.937,-0.415 -2.928,3.264 -3.383,-5.457 0.065,-3.788 1.054,-1.985 1.435,-2.917 -0.744,-0.427 -2.694,-3.33 -3.88,-8.9 0.86,-1.308 2.3,3.393 3.47,3.586 -0.753,-4.429 -2.049,-7.805 -2.103,-11.202 -3.421,-7.149 -1.211,0.953 -3.985,-3.069 -3.641,-11.357 3.021,-2.637 3.47,-7.796 5.52,7.995 8.667,20.387 10.11,25.519 -1.103,-6.258 -2.883,-12.32 -5.058,-18.185 1.677,0.705 -2.699,-12.875 2.18,-3.882 -5.21,-19.172 -22.302,-37.087 -38.025,-45.493 1.924,1.76 4.354,3.971 3.481,4.317 -7.819,-4.656 -6.444,-5.018 -7.565,-6.985 -6.369,-2.591 -6.788,0.208 -11.007,0.004 -12.005,-6.368 -14.318,-5.69 -25.368,-9.681 l 0.502,2.349 c -7.953,-2.649 -9.265,1.005 -17.862,0.009 -0.523,-0.409 2.753,-1.479 5.452,-1.871 -7.69,1.015 -7.329,-1.515 -14.854,0.279 1.855,-1.301 3.815,-2.162 5.793,-3.269 -6.271,0.381 -14.971,3.649 -12.286,0.677 -10.235,4.569 -28.403,10.976 -38.597,20.535 l -0.321,-2.142 c -4.672,5.608 -20.371,16.748 -21.622,24.011 l -1.249,0.291 c -2.431,4.116 -4.004,8.781 -5.932,13.016 -3.18,5.417 -4.661,2.085 -4.208,2.934 -6.253,12.679 -9.359,23.332 -12.043,32.069 1.912,2.858 0.046,17.206 0.769,28.688 -3.141,56.709 39.8,111.77 86.737,124.48 6.88,2.459 17.11,2.364 25.813,2.618 -10.268,-2.937 -11.595,-1.556 -21.595,-5.044 -7.215,-3.398 -8.797,-7.277 -13.907,-11.711 l 2.022,3.573 c -10.021,-3.547 -5.829,-4.39 -13.982,-6.972 l 2.16,-2.82 C 11.175,156.251 5.82,151.022 4.355,148.126 l -3.553,0.14 c -4.27,-5.269 -6.545,-9.063 -6.379,-12.005 l -1.148,2.047 c -1.301,-2.235 -15.709,-19.759 -8.234,-15.679 -1.389,-1.271 -3.235,-2.067 -5.237,-5.703 l 1.522,-1.739 c -3.597,-4.627 -6.621,-10.562 -6.391,-12.536 1.919,2.592 3.25,3.075 4.568,3.52 -9.083,-22.539 -9.593,-1.242 -16.474,-22.942 l 1.456,-0.116 c -1.116,-1.682 -1.793,-3.506 -2.69,-5.298 l 0.633,-6.313 C -44.113,63.94 -39.401,39.351 -38.459,25.865 -37.804,20.38 -33,14.543 -29.345,5.388 l -2.227,-0.384 c 4.256,-7.423 24.301,-29.814 33.583,-28.662 4.499,-5.649 -0.892,-0.02 -1.772,-1.443 9.878,-10.223 12.984,-7.222 19.65,-9.061 7.19,-4.268 -6.17,1.664 -2.761,-1.628 12.427,-3.174 8.808,-7.216 25.021,-8.828 1.71,0.973 -3.969,1.503 -5.395,2.766 10.354,-5.066 32.769,-3.914 47.326,2.811 16.895,7.896 35.873,31.232 36.622,53.189 l 0.852,0.229 c -0.431,8.729 1.336,18.822 -1.727,28.094 l 2.1,-4.385"
         id="path3" /><path
         d="m 19.5,67.715 -0.578,2.893 c 2.71,3.683 4.861,7.673 8.323,10.552 -2.49,-4.863 -4.341,-6.872 -7.745,-13.445 m 6.409,-0.251 c -1.435,-1.587 -2.284,-3.497 -3.235,-5.4 0.909,3.345 2.771,6.219 4.504,9.143 l -1.269,-3.743 m 113.411,-24.65 -0.605,1.52 c -1.111,7.892 -3.511,15.701 -7.189,22.941 4.06,-7.639 6.69,-15.995 7.79,-24.461 M 49.698,-68.243 c 2.789,-1.022 6.855,-0.56 9.814,-1.233 -3.855,0.324 -7.693,0.517 -11.484,1.005 l 1.67,0.228 m -97.917,52.067 c 0.642,5.951 -4.477,8.26 1.134,4.337 3.007,-6.773 -1.175,-1.87 -1.134,-4.337 m -6.593,27.538 c 1.292,-3.967 1.526,-6.349 2.02,-8.645 -3.571,4.566 -1.643,5.539 -2.02,8.645"
         id="path4" /></g><g
       id="g1"
       transform="matrix(0.95106877,0,0,0.95106877,300.83888,82.02345)"
       style="stroke-width:1.05145"><path
         fill="#555753"
         d="m 89.912,104.16 a 22,22 0 0 0 -0.808,-0.119 c -10.394,-1.797 -20.854,5.47 -23.936,15.357 -4.543,12.474 -0.258,26.812 8.881,36.044 5.314,6.197 14.241,10.282 22.307,7.388 a 24,24 0 0 0 1.17,-0.431 c 4.787,15.24 11.329,30.236 22.656,41.6 4.563,4.277 10.567,8.352 17.152,7.571 5.323,-1.453 8.04,-7.006 9.226,-11.972 -8.987,-0.869 -14.789,-8.787 -19.759,-15.477 -7.085,-10.031 -12.202,-21.324 -16.017,-33.003 2.701,-4.217 6.27,-9.003 6.956,-13.881 0.891,-6.825 2.952,-17.323 -2.136,-22.041 -4.335,-7.082 -17.366,-9.65 -25.692,-11.036"
         id="path1-1"
         style="stroke-width:1.05145" /><path
         fill="#b4b4b4"
         d="m 88.215,108.413 c -10.065,-1.625 -19.161,4.684 -21.648,15.979 -2.944,13.385 4.503,28.727 16.628,34.249 5.571,2.537 11.176,1.711 15.908,-1.218 2.711,9.522 14.185,45.475 34.345,51.1 6.44,1.95 9.189,-6.614 9.189,-6.614 -10.186,-2.152 -25.487,-21.867 -34.444,-48.984 -0.183,-0.557 -4.134,2.975 -4.312,2.413 2.579,-4.853 7.869,-9.815 9.249,-15.219 2.947,-13.385 4.35,-20.667 -7.773,-26.192 -1.896,-0.862 -15.28,-5.214 -17.144,-5.517 z"
         id="path2-5"
         style="stroke-width:1.05145" /><path
         fill="#8f5902"
         d="m 122.934,0.115 c -5.899,-0.95 -11.36,4.137 -11.302,10.014 -16.51,53.967 -33.606,107.825 -49.583,161.914 0.805,9.607 14.647,15.539 21.697,8.729 5.161,-11.095 7.062,-23.322 11.322,-34.825 13.561,-44.884 28.199,-89.579 41.006,-134.61 -0.641,-6.452 -7.306,-10.36 -13.14,-11.222"
         id="path3-2"
         style="stroke-width:1.05145" /><path
         fill="#fcaf3e"
         d="m 125.934,4.692 c 4.367,1.669 7.182,5.376 6.285,8.288 L 81.732,176.888 c -0.896,2.91 -5.164,3.919 -9.531,2.253 -4.367,-1.667 -7.183,-5.378 -6.285,-8.288 L 116.402,6.944 c 0.895,-2.91 5.162,-3.919 9.532,-2.252"
         id="path4-7"
         style="stroke-width:1.05145" /><path
         fill="#555753"
         d="m 78.51,95.027 c -5.943,-0.823 -12.862,3.753 -13.442,9.674 -0.562,2.755 1.158,6.009 1.639,8.511 -5.672,0.876 -10.952,6.61 -10.222,12.321 0.296,3.951 3.273,7.484 5.473,10.654 -3.281,5.706 -1.124,13.522 3.885,17.089 7.306,5.87 19.63,7.058 27.585,1.491 4.798,-3.496 5.657,-10.782 2.207,-15.505 -0.937,-1.712 -2.798,-2.96 -3.794,-4.441 0.392,-2.027 -0.402,-4.241 -0.617,-6.038 5.483,-2.755 7.373,-9.746 5.816,-15.383 -1.869,-8.964 -9.208,-17.099 -18.53,-18.373"
         id="path5"
         style="stroke-width:1.05145" /><path
         fill="#b4b4b4"
         d="m 84.638,101.315 c -3.661,-2.772 -9.977,-3.972 -13.088,0.187 -6.259,12.359 3.487,16.001 11.006,23.033 -5.086,-1.301 -9.05,-6.317 -11.809,-7.315 -4.026,-1.463 -7.748,-0.522 -9.574,6.345 0.034,11.199 11.677,13.482 22.609,16.03 -5.772,2.764 -17.84,-2.764 -18.214,-2.202 -2.298,3.43 -0.871,8.619 2.211,11.258 6.164,5.791 16.508,8.002 23.714,2.845 4.972,-3.351 1.044,-16.055 -4.581,-13.363 2.769,-4.441 2.317,-9.582 -2.434,-12.291 5.973,1.47 10.503,-5.781 9.022,-10.783 -0.863,-5.535 -4.176,-10.623 -8.862,-13.744"
         id="path6"
         style="stroke-width:1.05145" /><path
         fill="#b4b4b4"
         stroke="#555753"
         stroke-width="3.99025"
         d="m 117.38,122.217 c -4.864,9.496 -13.947,14.818 -20.292,11.888 -6.339,-2.932 -7.54,-13.005 -2.676,-22.501 4.861,-9.493 13.944,-14.815 20.288,-11.888 6.344,2.928 7.54,13.004 2.675,22.501 z"
         id="path7" /><path
         fill="#555753"
         d="m 111.394,10.293 c 4.763,-2.832 18.176,-0.045 23.519,6.104 L 340.3,72.179 316.722,146.939 110.775,90.289 C 105.805,86.302 94.801,83.831 88.283,83.571 94.924,58.996 102.28,35.639 111.394,10.293"
         id="path8"
         style="stroke-width:1.05145" /><path
         fill="#ffffff"
         d="M 133.63,20.815 333.632,75.517 313.286,141.07 C 275.036,129.798 152.402,97.813 114.152,86.543 Z m -19.966,-5.17 c -8.926,22.765 -12.768,41.496 -19.214,63.134 0.275,-1.676 15.985,3.567 15.787,4.803 1.312,0.837 21.075,-64.558 19.696,-65.434 0.001,-0.002 -10.134,-6.918 -16.269,-2.503"
         id="path9"
         style="stroke-width:1.05145" /><path
         d="m 137.386,63.666 c 0.716,-3.538 1.661,-7.043 2.763,-10.479 17.276,-9.981 27.398,17.577 -2.763,10.479 m -6.523,11.373 c -0.04,0.4 0.881,0.868 1.26,0.999 0.491,0.167 1.592,0.17 2.075,-0.022 0.449,-0.18 1.442,-0.688 1.552,-1.16 0.482,-2.079 0.566,-4.486 0.813,-6.737 4.815,0.613 9.803,0.775 14.565,-0.278 20.929,-4.591 8.969,-29.541 -10.852,-18.974 -1.154,0.621 -5.047,2.87 -5.08,4.44 -0.18,7.08 -3.617,14.5 -4.333,21.732 M 188.998,64.037 C 196.535,79.203 174.703,93.009 167.04,77.566 159.476,62.35 181.3,48.523 188.998,64.037 m -2.271,21.171 c 21.514,-11.37 4.914,-40.829 -16.986,-29.189 -21.559,11.457 -4.867,40.73 16.986,29.189 m 18.672,-12.35 c 3.928,-4.26 9.903,-4.758 15.163,-3.101 0,1.162 0.18,2.513 0.787,3.526 l 2.437,-0.254 1.751,-1.31 0.439,-4.563 c 0.479,-6.653 -24.801,-2.511 -27.005,5.886 -1.865,7.151 19.283,6.008 21.836,13.26 -2.663,5.358 -8.461,6.307 -13.854,4.862 -9.192,-2.464 -6.505,-7.12 -9.73,-9.402 -3.595,0.934 -1.795,10.931 4.823,12.891 9.111,2.69 32.458,-6.591 25.2,-13.7 -3.468,-3.396 -17.584,-5.358 -21.847,-8.095 m 49.755,5.801 c 5.939,-4.995 -25.062,-13.99 -23.956,-2.988 l 1.48,1.561 c 2.473,0.189 4.974,-0.15 7.429,-0.371 -2.145,8.428 -4.261,16.909 -5.91,25.455 l 1.182,1.144 2.071,0.018 1.556,-1.03 c 1.023,-8.838 2.696,-16.861 5.542,-25.304 2.509,0.461 8.476,2.045 10.606,1.515 m 21.942,16.392 0.298,-0.495 -0.682,-1.929 c -3.005,-3.563 -14.734,-3.726 -19.208,-3.57 l 1.602,-5.363 c 3.219,-0.482 16.789,0.84 17.658,-0.075 l -0.449,-2.317 c -4.447,-4.729 -13.049,-4.369 -19.103,-3.504 -2.555,2.509 -3.098,8.099 -3.877,11.512 -2.395,0.776 -2.657,2.935 -1.142,4.748 -1.014,4.082 -2.163,8.409 -2.689,12.355 -0.057,0.425 0.845,1.056 1.26,1.168 0.507,0.136 1.615,0.226 2.102,0.03 0.465,-0.188 1.469,-0.795 1.541,-1.292 0.583,-4.115 0.861,-8.216 1.843,-12.26 6.896,-0.52 14.304,1.831 20.846,0.992 m 1.864,18.883 c 0.427,-0.192 1.411,-0.627 1.529,-1.081 2.498,-9.628 4.404,-18.315 7.479,-28.057 l -1.227,-1.446 c -6.971,-1.897 -10.376,28.871 -9.84,30.536 0.157,0.489 1.589,0.259 2.059,0.048 M 314.999,92.37 c 0.061,-0.52 -0.426,-1.529 -0.709,-1.97 -0.299,-0.465 -1.393,-1.361 -1.893,-1.131 -4.016,1.854 -9.764,7.26 -12.853,10.393 -0.833,-2.037 -5.077,-15.637 -5.897,-15.66 -0.501,-0.016 -1.502,0.394 -1.861,0.743 -0.373,0.361 -1.184,1.284 -1.057,1.787 0.824,3.271 3.943,12.283 5.709,16.271 -3.922,3.93 -7.805,7.547 -11.547,12.021 -0.293,0.352 0.322,1.4 0.662,1.707 0.359,0.325 1.203,0.89 1.684,0.949 0.518,0.064 1.688,-0.026 2.052,-0.402 2.89,-2.983 5.749,-6.689 8.938,-9.866 1.007,2.416 4.696,11.554 5.873,12.544 0.42,0.354 1.65,-0.459 2.018,-0.865 0.395,-0.433 1.063,-1.429 1.236,-1.987 0.272,-0.88 -5.421,-11.58 -5.939,-12.769 1.696,-1.583 13.514,-11.178 13.584,-11.765"
         id="path10"
         style="stroke-width:1.05145" /><path
         fill="#8f5902"
         d="m 312.405,275.942 c -5.947,0.298 -13.213,0.021 -17.365,5.021 -4.473,6.772 -2.844,15.45 -2.23,23.075 0.133,2.479 1.22,5.163 0.938,7.48 -7.805,9.375 -12.33,14.365 -19.897,23.927 7.534,10.2 19.446,22.676 31.779,27.02 0.984,-9.112 1.985,-18.227 2.897,-27.346 10.272,14.895 26.459,24.451 42.942,31.156 11.72,4.49 24.794,7.477 37.26,4.441 7.078,-2.106 12.996,-8.796 12.582,-16.448 0.015,-9.016 -3.95,-17.343 -6.992,-25.646 -9.604,-22.331 -28.702,-40.618 -52.042,-47.96 -9.59,-3.215 -19.727,-4.9 -29.872,-4.72"
         id="path11"
         style="stroke-width:1.05145" /><path
         fill="#e9b96e"
         d="m 280.27,333.218 17.787,-20.95 c 0,0 -5.534,-24.51 0.792,-30.041 6.324,-5.533 80.636,-9.094 98.422,67.593 6.325,39.132 -81.822,9.487 -91.308,-28.854 0.79,-4.35 -3.163,32.41 -3.163,32.41 0,0 -14.23,-20.158 -22.53,-20.158"
         id="path12"
         style="stroke-width:1.05145" /><path
         fill="#555753"
         d="m 433.448,130.583 c -21.237,0.32 -40.755,13.048 -52.673,30.068 -26.47,2.771 -34.2,10.75 -41.1,31.033 -11.392,4.354 -25.313,11.707 -21.283,25.728 -0.381,4.18 0.683,8.547 -1.126,12.488 -8.447,33.572 -7.097,70.156 6.511,102.179 2.519,5.313 5.98,11.681 12.336,12.735 9.143,1.722 17.945,-3.114 24.69,-8.833 4.559,-3.857 9.439,-7.577 15.303,-9.11 8.536,-3.302 19.014,-11.725 21.8,-20.928 2.828,-13.408 -4.231,-17.627 -16.104,-19.53 -14.763,-1.563 -30.433,9.688 -43.646,-8.878 5.805,-10.66 15.167,-27.436 21.703,-37.676 2.768,4.256 5.393,8.958 10.16,9.742 1.544,16.255 20.184,15.596 25.29,12.705 15.4,17.164 55.275,15.671 75.701,13.194 17.138,-3.21 35.775,-10.952 45.35,-26.01 23.843,-60.682 1.082,-79.734 -40.295,-106.47 -12.845,-7.507 -27.505,-12.767 -42.617,-12.437"
         id="path13"
         style="stroke-width:1.05145" /><path
         fill="#f8eda6"
         d="m 434.088,134.344 c -26.179,0.367 -38.568,15.684 -45.096,24.25 0,0 16.984,-0.165 35.542,6.229 -47.716,-11.914 -83.558,14.892 -78.68,25.033 11.506,-4.757 41.473,0.585 39.416,1.497 -19.014,-0.083 -67.887,-1.724 -62.764,33.616 -17.33,58.135 3.354,112.35 12.298,115.705 31.942,7.41 32.46,-35.721 54.215,-42.793 5.875,2.125 -10.388,23.383 -15.361,25.954 -1.551,0.8 4.053,2.836 9.846,-5.188 18.03,-17.602 11.899,-31.583 -10.506,-28.51 -6.795,0.975 -20.847,1.71 -26.181,0.558 -0.888,1.238 13.522,4.748 9.707,7.697 0,0 -10.09,-3.146 -12.153,-8.067 0,0 -0.641,-0.452 -0.943,-0.691 2.904,10.841 14.618,17.773 14.618,17.773 -13.163,-1.317 -23.67,-24.606 -24.348,-29.897 0,0 25.834,-47.278 25.834,-43.367 3.328,11.396 18.232,16.363 32.261,9.563 0.063,-0.011 -4.028,6.732 -17.674,6.415 4.992,17.025 23.81,11.148 37.787,-4.857 0,0 -1.928,7.982 -13.521,15.341 14.91,12.27 84.625,26.274 111.708,-10.576 -7.525,1.074 -57.46,7.894 -55.712,-0.837 11.317,-17.608 -11.32,-75.463 -11.32,-75.463 -4.92,-7.428 32.511,-17.676 51.055,-13.254 a 163,163 0 0 0 -3.102,-2.522 c -22.41,-17.846 -41.392,-23.828 -56.926,-23.609 m 62.998,28.676 c 11.236,13.76 15.23,68.804 14.633,84.66 7.536,-11.62 11.104,-27.854 8.125,-50.103 -1.875,-13.997 -13.625,-26.521 -22.758,-34.557"
         id="path14"
         style="stroke-width:1.05145" /><path
         fill="#555753"
         d="m 183.235,118.532 c -18.462,0.423 -34.813,13.49 -42.341,29.842 -5.273,10.854 -6.317,23.603 -4.469,35.327 -14.7,5.104 -26.682,17.582 -30.669,32.684 -17.634,-1.969 -35.773,-2.905 -53.212,0.888 -6.899,1.461 -13.499,4.031 -19.797,7.107 -4.596,1.332 -9.864,0.688 -13.783,3.903 -3.74,2.53 -5.165,7.285 -4.339,11.601 1.357,8.339 7.994,14.495 14.243,19.585 10.712,8.243 24.796,11.729 38.2,9.657 19.874,-2.287 37.525,-12.667 55.948,-19.62 7.74,-2.342 16.112,-0.219 23.901,-2.527 3.545,-0.853 6.99,-2.255 10.033,-4.313 23.09,18.49 21.128,45.656 14.075,71.745 -7.002,-5.377 -13.604,-16.424 -22.084,-19.133 -15.815,4.509 -20.854,23.492 -30.497,38.218 4.324,3.333 6.525,1.236 10.809,4.624 6.706,-8.645 12.974,-18.217 19.716,-26.856 7.114,5.063 15.368,15.374 21.124,21.92 7.44,46.396 47.346,42.303 84.534,29.33 6.55,5.869 15.66,11.578 24.855,11.528 8.492,-1.119 9.949,-14.407 12.396,-26.409 -3.625,-4.796 -3.424,-5.488 -8.12,-8.415 -4.976,8.963 -3.905,12.324 -8.951,21.252 -0.974,-0.732 -9.491,-8.872 -7.971,-10.485 20.538,-43.33 8.29,-74.539 -26.822,-103.612 17.603,-9.512 38.994,-8.926 57.747,-3.509 1.051,0.521 3.545,0.65 3.6,1.56 -3.076,4.12 -5.905,9.998 -3.121,14.97 3.803,5.815 10.134,9.247 15.572,13.335 11.243,7.396 23.266,13.896 36.151,17.897 19.029,-0.64 18.737,-10.956 10.813,-22.168 3.865,-1.955 7.882,-7.41 2.671,-18.104 6.23,-15.263 -14.159,-27.133 -27.441,-28.534 -7.968,-0.41 -15.656,2.246 -23.238,4.12 -13.758,-1.604 -27.438,-3.597 -41.188,-5.354 17.104,-11.63 31.044,-29.405 34.238,-50.252 2.299,-15.281 -2.925,-32.495 -16.016,-41.448 -13.16,-9.159 -30.69,-9.081 -45.526,-4.338 -9.688,2.836 -18.836,7.407 -27.454,12.515 -7.547,-10.803 -20.034,-18.944 -33.587,-18.531"
         id="path15"
         style="stroke-width:1.05145" /><path
         fill="#b4b4b4"
         d="m 183.257,122.317 c -25.772,0.354 -50.874,29.855 -42.175,63.931 -22.205,5.553 -32.323,26.979 -32.119,34.253 -58.696,-7.268 -70.982,7.277 -77.69,8.396 -1.677,0 -19.545,-0.563 -10.601,16.767 35.217,46.397 89.872,-1.827 108.996,-1.132 16.429,0.597 21.408,-4.303 24.313,-6.213 11.632,-12.704 9.588,-14.631 14.388,-21.943 l 12.071,-15.822 c 3.056,0.938 -4.179,16.947 -9.915,20.187 -1.676,4.624 -12.941,17.624 -12.346,18.217 30.854,24.938 18.944,57.271 14.142,89.663 -0.396,-0.335 -0.867,-10.075 -1.258,-10.397 -12.888,-10.703 -21.81,-19.188 -21.81,-19.188 -8.393,-1.872 -18.821,20.104 -26.521,33.298 l 4.91,2.1 21.24,-28.279 c 0,0 17.12,17.78 24.388,26.727 11.729,54.201 65.433,31.524 78.069,26.772 0.978,-0.367 -7.488,-10.298 -7.535,-12.705 9.271,10.261 19.054,21.382 34.479,24.827 7.97,0 11.407,-26.901 11.407,-26.901 -1.007,-2.237 -2.489,-3.714 -4.255,-4.74 l -9.139,25.295 c -5.206,-2.395 -20.563,-20.267 -23.33,-25.284 0.23,-0.42 11.006,8.764 11.228,8.345 27.178,-51.073 -13.563,-89.24 -27.063,-99.536 -0.508,-0.388 -10.205,5.157 -10.63,4.847 -1.367,-0.983 6.94,-7.449 6.643,-7.581 31.86,-22.274 76.53,-3.906 74.297,-3.349 0,0 -9.689,10.488 -5.707,15.174 10.615,12.489 43.201,28.194 49.301,29.006 12.757,0.038 12.797,-7.008 9.085,-13.288 -2.138,-3.609 -6.104,-6.136 -8.539,-8.694 16.288,2.376 12.916,-12.17 4.131,-16.359 0.056,-0.609 5.448,0.431 5.48,-0.173 -0.835,-25.517 -29.343,-25.249 -47.052,-18.493 l -53.531,-7.133 c 68.65,-37.87 47.397,-120.297 -23.438,-91.875 -26.731,7.592 -37.669,39.88 -39.676,66.985 -0.455,-1.95 -1.891,-10.075 -2.113,-11.934 -25.241,-15.153 -35.013,-7.405 -52.021,5.149 19.52,-27.827 40.65,-17.047 53.07,-7.84 -0.943,-16.589 6.99,-29.698 17.323,-44.076 -1.906,-8.156 -19.619,-17.153 -30.497,-17.004 m 84.318,29.514 c 9.237,0.05 16.646,4.681 17.851,17.438 -8.736,-27.849 -54.7,-2.974 -60.829,20.608 18.178,-8.263 16.512,21.617 -0.637,15.603 1.738,6.731 8.521,7.2 20.458,2.19 -34.099,19.034 -31.503,-18.224 -15.505,-37.767 7.74,-8.426 25.16,-18.143 38.662,-18.072 m -61.89,72.573 c 15.854,5.21 20.154,7.37 43.98,0 -12.828,5.522 -30.084,10.157 -36.283,17.002 l 3.295,-7.755 z"
         id="path16"
         style="stroke-width:1.05145" /><path
         fill="#8f5902"
         d="m 52.472,299.265 c -6.436,0.579 -13.715,-0.137 -19.137,3.771 -12.5,9.003 -15.558,27.935 -9.008,41.777 5.887,13.275 18.124,22.305 30.396,29.355 16.078,8.826 33.734,14.479 51.408,19.234 9.468,2.311 19.191,4.41 28.994,3.926 4.62,-0.42 9.969,-3.195 10.412,-8.322 0.695,-6.076 -2.976,-11.366 -4.694,-16.97 -3.028,-7.675 -6.34,-15.233 -9.574,-22.824 q 6.468,-5.408 12.938,-10.813 c -5.83,-7.45 -12.277,-15.76 -22.026,-17.852 -4.017,-1.229 -7.991,1.935 -8.913,6.012 -0.424,1.873 -1.146,3.662 -1.648,5.519 C 98.871,312.369 76.466,298.265 52.472,299.265"
         id="path17"
         style="stroke-width:1.05145" /><path
         fill="#555753"
         d="m 107.43,218.955 c 1.958,3.946 6.59,7.078 11.06,5.424 7.541,16.843 30.997,4.488 34.883,-10.006 3.83,-14.293 5.396,-33.063 -13.277,-27.914 -12.746,-17.221 -39.753,13.043 -32.666,32.496"
         id="path18"
         style="stroke-width:1.05145" /><path
         fill="#ffffff"
         d="m 109.674,196.875 c -6.473,7.17 -1.849,31.207 10.354,24.431 3.748,19.008 26.143,5.476 29.502,-7.072 6.757,-25.205 -3.41,-27.46 -10.43,-23.577 -6.682,3.698 -12.487,10.837 -18.13,26.697 1.547,-10.5 8.729,-25.735 16.214,-28.89 -4.389,-8.65 -22.804,0.971 -27.51,8.411"
         id="path19"
         style="stroke-width:1.05145" /><path
         d="m 138.534,212.694 c -1.862,-0.095 -3.583,2.09 -3.865,4.864 -0.282,2.771 0.971,5.103 2.835,5.196 1.862,0.098 3.584,-2.09 3.865,-4.86 0.009,-0.088 -0.009,-0.166 0,-0.253 a 2.04,2.04 0 0 1 -1.549,0.671 c -1.098,0 -2.01,-0.709 -2.01,-1.594 0,-0.887 0.912,-1.596 2.01,-1.596 0.552,0 1.032,0.172 1.395,0.461 -0.397,-1.646 -1.373,-2.822 -2.681,-2.889 m -19.32,-6.528 c -1.521,-0.067 -2.88,2.14 -3.063,4.915 -0.181,2.778 0.876,5.09 2.396,5.159 1.517,0.07 2.879,-2.138 3.061,-4.916 0.005,-0.087 -0.007,-0.166 -0.005,-0.251 -0.288,0.403 -0.708,0.682 -1.245,0.692 -0.894,0.015 -1.646,-0.683 -1.663,-1.565 -0.014,-0.883 0.718,-1.604 1.609,-1.621 0.446,-0.007 0.84,0.157 1.14,0.442 -0.352,-1.644 -1.166,-2.808 -2.23,-2.855"
         id="path20"
         style="stroke-width:1.05145" /><path
         fill="#a40000"
         d="m 170.462,220.816 c -1.199,2.053 -2.858,5.707 -4.357,6.688 14.59,15.843 16.445,50.523 37.654,30.227 16.354,-20.042 -14.708,-39.268 -28.881,-42.092 -3.258,1.496 -2.179,2.232 -4.416,5.177"
         id="path21"
         style="stroke-width:1.05145" /><path
         fill="#ef2929"
         d="m 173.602,216.604 c -0.674,0.108 -1.31,1.182 -3.22,4.368 11.764,-2.284 17.289,11.65 15.8,11.838 l -16.133,-11.424 c -2.214,2.878 -3.964,5.979 -4.193,5.979 13.523,6.325 18.465,37.029 27.247,32.667 13.237,-6.574 16.495,-29.063 -18.582,-43.32 -0.04,-0.009 -0.869,-0.115 -0.919,-0.108"
         id="path22"
         style="stroke-width:1.05145" /><path
         d="m 39.864,213.438 c 3.013,16.664 -3.307,31.171 -14.105,32.399 -10.8,1.23 -21.996,-11.278 -25.006,-27.943 -3.008,-16.665 3.308,-31.171 14.105,-32.402 10.801,-1.23 21.998,11.281 25.006,27.946"
         id="path23"
         style="stroke-width:1.05145" /><path
         fill="#e9b96e"
         d="m 111.137,338.39 c 0,0 -22.698,-44.17 -72.582,-33.723 -7.701,1.613 -50.682,53.141 65.22,84.195 36.354,9.74 39.135,2.769 37.946,-3.163 -1.187,-5.93 -15.02,-37.55 -15.02,-37.55 l 12.253,-10.275 c 0,0 -11.463,-15.813 -20.558,-13.438 -1.156,1.158 -3.278,8.05 -4.459,12.634 -0.162,0.63 4.688,11.24 4.541,11.812 -0.596,2.351 -7.341,-10.492 -7.341,-10.492"
         id="path24"
         style="stroke-width:1.05145" /><path
         fill="#c17d11"
         d="m 35.875,313.017 c 15.521,-8.013 34.328,31.997 58.479,48.738 19.673,13.634 40.836,20.98 39.935,27.979 -17.04,6.901 -137.48,-28.581 -98.414,-76.717"
         opacity="0.6"
         id="path25"
         style="stroke-width:1.05145" /><path
         fill="#ffffff"
         d="m 22.9,208.866 c 0,8.242 -4.177,14.924 -9.33,14.924 -5.15,0 -9.327,-6.681 -9.327,-14.924 0,-8.243 4.177,-14.924 9.327,-14.924 5.153,0 9.33,6.682 9.33,14.924"
         opacity="0.4"
         id="path26"
         style="stroke-width:1.05145" /><path
         fill="#ffffff"
         d="m 42.337,226.404 c -0.287,0.244 -1.205,7.903 -0.333,7.555 14.815,-5.929 37.775,-10.72 65.345,-11.674 -5.461,-1.366 -42.128,-7.041 -65.012,4.119"
         id="path27"
         style="stroke-width:1.05145" /><path
         fill="#555753"
         d="m 104.378,194.537 c 0,0 -10.696,11.605 -0.229,20.479 -2.729,-7.509 -2.274,-15.701 0.229,-20.479"
         id="path28"
         style="stroke-width:1.05145" /><path
         fill="#ffffff"
         d="m 490.885,162.76 c -14.844,0.225 -30.037,2.504 -43.155,9.702 -0.794,0.438 -2.004,1.521 -1.038,2.467 7.215,20.263 14.034,41.22 13.82,62.975 a 38.2,38.2 0 0 1 -2.582,11.391 c 3.885,1.354 8.146,0.904 12.203,1.19 12.957,0.04 25.952,-1.771 38.695,-3.371 -0.271,-1.76 -0.217,-3.552 -0.157,-5.365 -0.438,-21.338 -2.72,-42.771 -8.013,-63.425 -1.6,-5.203 -3.276,-10.844 -7.3,-14.738 -0.709,-0.52 -1.58,-0.88 -2.473,-0.826"
         id="path29"
         style="stroke-width:1.05145" /><path
         fill="#555753"
         d="m 470.961,240.825 c -0.643,-2.438 -0.34,-6.908 -0.34,-6.908 0,0 14.494,-3.8 11.287,-4.412 l -12.464,-3.13 c -1.183,-2.624 0.54,-6.825 0.54,-6.825 0,0 19.569,-0.044 26.527,-0.441 1.724,2.866 -0.574,4.754 -0.574,4.754 -4.521,0.26 -15.451,0.332 -19.973,0.592 l 13.854,3.471 c 0.419,6.085 -8.467,5.028 -12.082,7.988 5.874,-0.338 13.438,2.004 20.826,2.004 3.667,0.732 1.065,5.203 0.027,4.995 -6.507,0.369 -21.874,-1.331 -27.628,-2.088 m 19.36,-37.304 c 0.568,2.357 -0.271,5.168 1.437,7.149 2.044,0.566 5.171,1.147 4.357,4.233 -2.825,2.8 -28.271,-3.859 -28.271,-3.859 -3.699,-2.299 -0.04,-5.88 3.609,-7.095 5.628,-1.87 16.128,-4.353 22.778,-6.623 1.425,2.959 -0.408,6.576 -3.91,6.195 m -4.525,6.692 c 0.861,-2.938 0.073,-5.418 0.073,-5.418 -1.217,0.435 -12.064,2.275 -10.994,3.37 2.887,0.559 8.031,1.492 10.921,2.048 m -21.401,-13.13 c -1.976,-3.037 4.521,-5.036 4.521,-5.036 6.617,-0.38 15.12,-1.699 21.737,-2.081 1.977,3.036 -3.203,5.411 -3.203,5.411 -6.621,0.38 -16.439,1.326 -23.055,1.706 m -0.614,-10.363 c -3.361,-7.494 16.104,-5.521 21.034,-5.897 0.474,-2.804 -5.59,-12.144 -1.996,-13.729 4.271,-0.109 6.582,17.236 5.806,18.285 -7.777,0.447 -17.062,0.893 -24.844,1.341"
         id="path30"
         style="stroke-width:1.05145" /><path
         fill="#ffffff"
         d="m 203.307,181.936 c -0.287,0.246 -0.7,8.421 -0.333,7.557 15.263,-35.944 38.89,-59.3 69.458,-61.032 -27.14,0.967 -56.691,3.633 -69.125,53.475"
         id="path31"
         style="stroke-width:1.05145" /></g></g></svg>
