<?xml version="1.0" encoding="UTF-8" standalone="no"?>
<!-- Created with Inkscape (http://www.inkscape.org/) -->

<svg
   version="1.1"
   id="svg132"
   width="1200"
   height="630"
   viewBox="0 0 1200 630"
   sodipodi:docname="systemd.svg"
   inkscape:version="1.4.2 (f4327f4, 2025-05-13)"
   xml:space="preserve"
   xmlns:inkscape="http://www.inkscape.org/namespaces/inkscape"
   xmlns:sodipodi="http://sodipodi.sourceforge.net/DTD/sodipodi-0.dtd"
   xmlns="http://www.w3.org/2000/svg"
   xmlns:svg="http://www.w3.org/2000/svg"><defs
     id="defs136"><style
       id="style368">.cls-1{fill:#1d1d1b;}.cls-2{fill:#e9500e;}.cls-3{fill:#fff;}</style><path
       id="a"
       d="m258.277 184.829-.07 28.477-82.285-47.519.069-28.477z" /><path
       id="c"
       d="m216.802 175.326-40.741 23.654-40.95-23.654 40.88-23.76z" /><path
       id="e"
       d="m216.837 161.14-40.706 23.654-40.985-23.654 40.88-23.83z" /><path
       id="g"
       d="m176.131 184.794-.07 14.186-40.95-23.654.035-14.186z" /><path
       id="i"
       d="m135.146 161.14 40.88-23.83-.035 14.256-40.88 23.76z" /><path
       id="k"
       d="m176.026 137.31 40.811 23.83-.035 14.186-40.811-23.76z" /></defs><sodipodi:namedview
     id="namedview134"
     pagecolor="#ffffff"
     bordercolor="#000000"
     borderopacity="0.25"
     inkscape:showpageshadow="2"
     inkscape:pageopacity="0.0"
     inkscape:pagecheckerboard="0"
     inkscape:deskcolor="#d1d1d1"
     showgrid="false"
     inkscape:zoom="0.65435437"
     inkscape:cx="563.15051"
     inkscape:cy="129.89903"
     inkscape:window-width="1711"
     inkscape:window-height="1398"
     inkscape:window-x="1715"
     inkscape:window-y="14"
     inkscape:window-maximized="0"
     inkscape:current-layer="g138" /><g
     inkscape:groupmode="layer"
     inkscape:label="Image"
     id="g138"><g
       id="g4"
       transform="matrix(5.8146723,0,0,5.8146723,-2260.819,-1801.5517)"
       style="stroke-width:0.171979"><path
         d="m 406.00025,338.00196 v 51.99987 h 19.99995 v -7.99998 h -11.99997 v -35.99991 h 11.99997 v -7.99998 z m 151.99962,0 v 7.99998 h 11.99997 v 35.99991 h -11.99997 v 7.99998 h 19.99995 v -51.99987 z"
         style="line-height:normal;font-variant-ligatures:normal;font-variant-position:normal;font-variant-caps:normal;font-variant-numeric:normal;font-variant-alternates:normal;font-feature-settings:normal;text-indent:0;text-align:start;text-decoration-line:none;text-decoration-style:solid;text-decoration-color:#000000;text-transform:none;text-orientation:mixed;white-space:normal;shape-padding:0;isolation:auto;mix-blend-mode:normal;solid-color:#000000;solid-opacity:1;stroke-width:0.229305"
         color="#000000"
         font-weight="400"
         font-family="sans-serif"
         overflow="visible"
         fill="#201a26"
         id="path2" /><path
         d="m 496.00002,364.0019 35.99991,-19.99995 v 39.9999 z"
         fill="#30d475"
         id="path3"
         style="stroke-width:0.229305" /><circle
         cx="466.00278"
         cy="364.00327"
         r="17.999954"
         fill="#30d475"
         id="circle3"
         style="stroke-width:0.229305" /></g></g></svg>
